<?xml version="1.0" encoding="UTF-8"?>
<svg xmlns="http://www.w3.org/2000/svg" width="24" height="25" viewBox="0 0 24 25" fill="none">
  <path d="M12 23.3265C11.4 23.3265 10.81 23.183 10.33 22.9061L5.60001 20.107C3.64001 18.7536 3.51001 18.5075 3.51001 16.3851V11.2995C3.51001 9.17705 3.64001 8.93097 5.56001 7.60831L10.34 4.77841C11.29 4.21449 12.72 4.21449 13.67 4.77841L18.4 7.57755C20.36 8.93097 20.49 9.17705 20.49 11.2995V16.3851C20.49 18.5075 20.36 18.7536 18.44 20.0762L13.66 22.9061C13.19 23.1932 12.59 23.3265 12 23.3265ZM12 5.89602C11.66 5.89602 11.32 5.96779 11.08 6.11133L6.35001 8.91047C5.01001 9.84351 5.01001 9.84351 5.01001 11.2995V16.3851C5.01001 17.841 5.01001 17.841 6.40001 18.8048L11.09 21.5732C11.57 21.8603 12.44 21.8603 12.92 21.5732L17.65 18.7741C18.99 17.841 18.99 17.841 18.99 16.3851V11.2995C18.99 9.84351 18.99 9.84351 17.6 8.87971L12.91 6.11133C12.68 5.96779 12.34 5.89602 12 5.89602Z" fill="white" fill-opacity="0.8"></path>
  <path d="M17.5 8.5918C17.09 8.5918 16.75 8.24319 16.75 7.82281V5.12621C16.75 3.5062 16.08 2.81923 14.5 2.81923H9.5C7.92 2.81923 7.25 3.5062 7.25 5.12621V7.75104C7.25 8.17142 6.91 8.52003 6.5 8.52003C6.09 8.52003 5.75 8.18167 5.75 7.75104V5.12621C5.75 2.64493 7.08 1.28125 9.5 1.28125H14.5C16.92 1.28125 18.25 2.64493 18.25 5.12621V7.82281C18.25 8.24319 17.91 8.5918 17.5 8.5918Z" fill="white" fill-opacity="0.8"></path>
  <path d="M13.63 18.0766C13.42 18.0766 13.2 18.0356 12.98 17.9433L12 17.5537L11.02 17.9536C10.49 18.1689 9.94999 18.1176 9.54999 17.8203C9.14999 17.5229 8.93999 17.0103 8.96999 16.4259L9.02999 15.3493L8.35999 14.5188C7.99999 14.0574 7.87999 13.5242 8.03999 13.032C8.18999 12.5501 8.59999 12.181 9.14999 12.0375L10.17 11.7709L10.74 10.8583C11.35 9.87404 12.66 9.87404 13.27 10.8583L13.84 11.7709L14.86 12.0375C15.41 12.181 15.82 12.5501 15.97 13.032C16.12 13.5139 16 14.0574 15.64 14.5085L14.97 15.339L15.03 16.4156C15.06 17 14.85 17.5024 14.45 17.81C14.21 17.9843 13.93 18.0766 13.63 18.0766ZM9.51999 13.5344L10.19 14.365C10.42 14.6418 10.55 15.0827 10.53 15.4415L10.47 16.5181L11.45 16.1183C11.78 15.985 12.22 15.985 12.55 16.1183L13.53 16.5181L13.47 15.4415C13.45 15.0827 13.58 14.652 13.81 14.365L14.48 13.5344L13.46 13.2679C13.12 13.1756 12.76 12.909 12.57 12.6117L12.01 11.7094L11.44 12.6117C11.25 12.9192 10.89 13.1858 10.55 13.2781L9.51999 13.5344Z" fill="white" fill-opacity="0.8"></path>
</svg>
