<?xml version="1.0" encoding="UTF-8"?>
<svg xmlns="http://www.w3.org/2000/svg" width="20" height="20" viewBox="0 0 20 20" fill="none">
  <path d="M8.74166 1.8583L4.58334 3.41663C3.62501 3.77497 2.84167 4.9083 2.84167 5.9333V12.125C2.84167 13.1083 3.49168 14.4 4.28335 14.9916L7.86667 17.6666C9.04167 18.55 10.975 18.55 12.15 17.6666L15.7333 14.9916C16.525 14.4 17.175 13.1083 17.175 12.125V5.9333C17.175 4.9083 16.3917 3.77497 15.4333 3.41663L11.275 1.8583C10.5667 1.59997 9.43333 1.59997 8.74166 1.8583Z" stroke="#6ED190" stroke-width="1.5" stroke-linecap="round" stroke-linejoin="round"></path>
  <path d="M9.99996 12.9167C11.8409 12.9167 13.3333 11.4243 13.3333 9.58333C13.3333 7.74238 11.8409 6.25 9.99996 6.25C8.15901 6.25 6.66663 7.74238 6.66663 9.58333C6.66663 11.4243 8.15901 12.9167 9.99996 12.9167Z" stroke="#6ED190" stroke-width="1.5" stroke-miterlimit="10" stroke-linecap="round" stroke-linejoin="round"></path>
  <path d="M10.2083 8.54175V9.31675C10.2083 9.60841 10.0583 9.88341 9.79997 10.0334L9.16663 10.4167" stroke="#6ED190" stroke-width="1.5" stroke-miterlimit="10" stroke-linecap="round" stroke-linejoin="round"></path>
</svg>
