<?xml version="1.0" encoding="UTF-8"?>
<svg xmlns="http://www.w3.org/2000/svg" width="24" height="24" viewBox="0 0 24 24" fill="none">
  <path d="M12.01 17C11.16 17 10.3 16.78 9.63001 16.35L3.61001 12.42C2.49001 11.69 1.82001 10.46 1.82001 9.12003C1.82001 7.78003 2.49001 6.55003 3.61001 5.82003L9.64001 1.90003C10.98 1.03003 13.07 1.03003 14.4 1.91003L20.39 5.84003C21.5 6.57003 22.17 7.80003 22.17 9.13003C22.17 10.46 21.5 11.69 20.39 12.42L14.4 16.35C13.73 16.79 12.87 17 12.01 17ZM12.01 2.75003C11.44 2.75003 10.87 2.88003 10.46 3.16003L4.44001 7.08003C3.74001 7.54003 3.33001 8.28003 3.33001 9.12003C3.33001 9.96003 3.73001 10.7 4.44001 11.16L10.46 15.09C11.29 15.63 12.75 15.63 13.58 15.09L19.57 11.16C20.27 10.7 20.67 9.96003 20.67 9.12003C20.67 8.28003 20.27 7.54003 19.57 7.08003L13.58 3.15003C13.16 2.89003 12.59 2.75003 12.01 2.75003Z" fill="white" fill-opacity="0.8"></path>
  <path d="M12 22.7501C11.56 22.7501 11.11 22.6901 10.75 22.5701L7.56 21.5101C6.05 21.0101 4.86 19.3601 4.87 17.7701L4.88 13.0801C4.88 12.6701 5.22 12.3301 5.63 12.3301C6.04 12.3301 6.38 12.6701 6.38 13.0801L6.37 17.7701C6.37 18.7101 7.15 19.7901 8.04 20.0901L11.23 21.1501C11.63 21.2801 12.37 21.2801 12.77 21.1501L15.96 20.0901C16.85 19.7901 17.63 18.7101 17.63 17.7801V13.1401C17.63 12.7301 17.97 12.3901 18.38 12.3901C18.79 12.3901 19.13 12.7301 19.13 13.1401V17.7801C19.13 19.3701 17.95 21.0101 16.44 21.5201L13.25 22.5801C12.89 22.6901 12.44 22.7501 12 22.7501Z" fill="white" fill-opacity="0.8"></path>
  <path d="M21.4 15.75C20.99 15.75 20.65 15.41 20.65 15V9C20.65 8.59 20.99 8.25 21.4 8.25C21.81 8.25 22.15 8.59 22.15 9V15C22.15 15.41 21.81 15.75 21.4 15.75Z" fill="white" fill-opacity="0.8"></path>
</svg>
