<svg width="125" height="46" viewBox="0 0 125 46" fill="none" xmlns="http://www.w3.org/2000/svg">
<rect width="125" height="46" rx="23" fill="url(#paint0_linear_1428_3474)" fill-opacity="0.76"/>
<path d="M37.3896 20.8968C37.3896 21.2137 37.4237 21.4706 37.484 21.6585C37.5523 21.8466 37.638 22.0522 37.7576 22.2744C37.7997 22.3427 37.8172 22.4109 37.8172 22.4712C37.8172 22.5561 37.7656 22.6419 37.6547 22.7274L37.1158 23.0869C37.0388 23.1377 36.9618 23.1639 36.8938 23.1639C36.808 23.1639 36.7223 23.121 36.6366 23.044C36.5216 22.9199 36.4185 22.7853 36.3287 22.6419C36.2335 22.4773 36.1451 22.3089 36.0638 22.1371C35.3971 22.9242 34.5586 23.3179 33.5491 23.3179C32.8311 23.3179 32.2582 23.1123 31.8386 22.702C31.4195 22.2911 31.2061 21.7436 31.2061 21.0595C31.2061 20.3327 31.4624 19.7425 31.9846 19.2982C32.5059 18.853 33.1985 18.6308 34.0801 18.6308C34.3705 18.6308 34.6695 18.6561 34.986 18.699C35.3029 18.7419 35.6281 18.8101 35.9701 18.8871V18.2627C35.9701 17.6127 35.8328 17.1597 35.568 16.8948C35.2937 16.6298 34.832 16.5012 34.1735 16.5012C33.8743 16.5012 33.5666 16.5353 33.2499 16.6123C32.9355 16.6872 32.6268 16.7845 32.3263 16.9034C32.189 16.9629 32.0866 16.997 32.0271 17.0145C31.967 17.0311 31.9241 17.0399 31.89 17.0399C31.7701 17.0399 31.7106 16.9542 31.7106 16.775V16.356C31.7106 16.2186 31.7273 16.1163 31.7701 16.0561C31.8128 15.9966 31.89 15.9371 32.0098 15.8768C32.3088 15.7228 32.6684 15.5944 33.0872 15.4919C33.5062 15.3807 33.9513 15.3294 34.4217 15.3294C35.439 15.3294 36.1832 15.5601 36.6626 16.022C37.133 16.4837 37.3719 17.1851 37.3719 18.1262V20.8968H37.3896ZM33.9174 22.1974C34.1991 22.1974 34.4902 22.1458 34.7981 22.0435C35.1061 21.9403 35.3797 21.7524 35.6106 21.496C35.7471 21.3335 35.8503 21.154 35.9011 20.9486C35.9527 20.743 35.9868 20.4956 35.9868 20.2042V19.8456C35.7277 19.782 35.4652 19.7332 35.2005 19.6996C34.9336 19.6659 34.6649 19.649 34.3959 19.6488C33.8231 19.6488 33.4041 19.7599 33.1215 19.9909C32.8398 20.2216 32.7027 20.5462 32.7027 20.974C32.7027 21.3762 32.8051 21.6754 33.0191 21.8807C33.2247 22.0942 33.5239 22.1974 33.9174 22.1974ZM40.7848 23.121C40.6309 23.121 40.5285 23.0956 40.4602 23.0353C40.3912 22.9837 40.3316 22.8647 40.2801 22.7022L38.2703 16.0909C38.2196 15.9196 38.1931 15.8085 38.1931 15.7482C38.1931 15.6117 38.2616 15.5349 38.3989 15.5349H39.2368C39.3993 15.5349 39.5104 15.5601 39.5707 15.6204C39.639 15.6712 39.6906 15.7911 39.7414 15.9536L41.1783 21.6159L42.5128 15.9538C42.5551 15.7831 42.6066 15.6714 42.6747 15.6206C42.7438 15.5688 42.8636 15.5347 43.0176 15.5347H43.7015C43.864 15.5347 43.9753 15.5601 44.0436 15.6204C44.1118 15.6712 44.1721 15.7911 44.2061 15.9536L45.5574 21.6841L47.0372 15.9538C47.088 15.7831 47.1483 15.6714 47.2078 15.6206C47.2761 15.5688 47.388 15.5347 47.5418 15.5347H48.3368C48.4741 15.5347 48.5511 15.603 48.5511 15.7482C48.5511 15.7909 48.5424 15.8339 48.5336 15.8855C48.5249 15.9371 48.5082 16.0054 48.4741 16.0988L46.4128 22.7107C46.3612 22.8813 46.3017 22.9925 46.2326 23.0438C46.1644 23.0956 46.0533 23.1298 45.908 23.1298H45.1727C45.01 23.1298 44.8989 23.1034 44.8307 23.044C44.7616 22.9837 44.7021 22.8726 44.668 22.702L43.3422 17.1851L42.0249 22.6932C41.9822 22.8647 41.9315 22.9758 41.8624 23.0353C41.7939 23.0956 41.6743 23.121 41.5203 23.121H40.7848ZM51.7749 23.352C51.3307 23.352 50.8854 23.3004 50.4578 23.198C50.0301 23.0956 49.6969 22.9837 49.4747 22.856C49.3374 22.779 49.2438 22.6935 49.2096 22.6163C49.1759 22.5408 49.1584 22.4592 49.158 22.3766V21.9403C49.158 21.7611 49.2263 21.6754 49.3551 21.6754C49.4059 21.6754 49.4572 21.6841 49.5088 21.7016C49.5596 21.7183 49.6366 21.7524 49.7221 21.7865C50.0245 21.9193 50.34 22.0198 50.6634 22.0863C51.0053 22.1546 51.3386 22.1887 51.6813 22.1887C52.2201 22.1887 52.639 22.0942 52.9295 21.9063C53.2205 21.7182 53.3745 21.4444 53.3745 21.0938C53.3745 20.8542 53.2975 20.6581 53.1438 20.4954C52.9898 20.3329 52.6985 20.1875 52.2797 20.0504L51.0394 19.6655C50.415 19.4686 49.9531 19.1784 49.6715 18.7935C49.3892 18.4167 49.2438 17.9976 49.2438 17.5534C49.2438 17.1938 49.3209 16.8774 49.4747 16.6036C49.6274 16.3284 49.8374 16.0892 50.0904 15.9022C50.3467 15.7062 50.638 15.5601 50.9801 15.4577C51.3219 15.3554 51.6813 15.3125 52.0574 15.3125C52.2455 15.3125 52.4422 15.3212 52.6303 15.3466C52.8271 15.372 53.0064 15.4061 53.1864 15.4403C53.357 15.4831 53.5197 15.526 53.6737 15.5776C53.8277 15.6292 53.9475 15.68 54.0332 15.7315C54.1531 15.7998 54.2386 15.868 54.2894 15.9448C54.341 16.0139 54.3664 16.1077 54.3664 16.2274V16.6296C54.3664 16.8091 54.2981 16.9034 54.1695 16.9034C54.1013 16.9034 53.9902 16.8686 53.8451 16.8004C53.357 16.5782 52.8096 16.4671 52.2027 16.4671C51.7154 16.4671 51.3307 16.544 51.0656 16.7068C50.7997 16.8686 50.6634 17.1171 50.6634 17.4677C50.6634 17.7073 50.7489 17.9127 50.9195 18.0746C51.091 18.2371 51.4076 18.4 51.8606 18.545L53.0753 18.93C53.6912 19.1268 54.1356 19.4004 54.4005 19.7512C54.6656 20.102 54.7941 20.5042 54.7941 20.9486C54.7941 21.3167 54.717 21.65 54.5719 21.9403C54.418 22.2315 54.2124 22.4879 53.9475 22.6932C53.6824 22.9067 53.3658 23.0607 52.9985 23.1726C52.6136 23.2917 52.2114 23.352 51.7749 23.352Z" fill="white"/>
<path d="M53.9688 24.8991C53.0686 24.9119 52.0058 25.1128 51.202 25.6775C50.9536 25.8569 50.9965 26.0963 51.2703 26.0622C52.186 25.9511 54.2034 25.7116 54.563 26.1733C54.9225 26.6263 54.1616 28.5336 53.8189 29.3807C53.7165 29.6366 53.9387 29.74 54.1695 29.5432C55.6747 28.2775 56.0683 25.6346 55.7604 25.2497C55.6066 25.0618 54.8691 24.8861 53.9688 24.8991ZM30.3312 25.4092C30.1429 25.4327 30.0575 25.6602 30.2564 25.84C33.6096 28.867 38.0481 30.689 42.9747 30.689C46.4897 30.689 50.5776 29.586 53.3911 27.5081C53.8528 27.1652 53.4515 26.644 52.9808 26.8572C49.8255 28.1918 46.3953 28.8418 43.2739 28.8418C38.6471 28.8418 34.1739 27.5676 30.5475 25.4632C30.4683 25.4163 30.3941 25.4014 30.3314 25.4092H30.3312Z" fill="white"/>
<path d="M68.634 20.02L65.484 27.58C65.428 27.7293 65.344 27.846 65.232 27.93C65.12 28.014 64.994 28.056 64.854 28.056C64.6487 28.056 64.4947 28 64.392 27.888C64.2893 27.7667 64.2333 27.6173 64.224 27.44C64.224 27.3747 64.238 27.3 64.266 27.216L67.822 18.62C67.8873 18.4613 67.9807 18.34 68.102 18.256C68.2327 18.172 68.3727 18.1347 68.522 18.144C68.662 18.144 68.7927 18.186 68.914 18.27C69.0353 18.354 69.124 18.4707 69.18 18.62L72.694 27.09C72.7313 27.1833 72.75 27.2767 72.75 27.37C72.75 27.5753 72.68 27.7433 72.54 27.874C72.4093 27.9953 72.26 28.056 72.092 28.056C71.952 28.056 71.8213 28.014 71.7 27.93C71.588 27.8367 71.504 27.72 71.448 27.58L68.27 20.062L68.634 20.02ZM66.044 25.592L66.674 24.248H70.636L70.874 25.592H66.044ZM84.932 18.158C85.1186 18.158 85.2913 18.228 85.45 18.368C85.6086 18.4987 85.688 18.6807 85.688 18.914C85.688 18.9793 85.674 19.0587 85.646 19.152L82.776 27.552C82.7293 27.692 82.6453 27.7993 82.524 27.874C82.4026 27.9487 82.2766 27.9907 82.146 28C82.0153 28 81.8846 27.9627 81.754 27.888C81.6233 27.8133 81.5253 27.7013 81.46 27.552L79.248 22.372L79.374 22.428L77.19 27.552C77.1153 27.7013 77.0126 27.8133 76.882 27.888C76.7606 27.9627 76.63 28 76.49 28C76.3686 27.9907 76.2473 27.9487 76.126 27.874C76.0046 27.7993 75.9206 27.692 75.874 27.552L73.004 19.152C72.976 19.0587 72.962 18.9793 72.962 18.914C72.962 18.6807 73.046 18.4987 73.214 18.368C73.382 18.228 73.5546 18.158 73.732 18.158C73.8813 18.158 74.0166 18.2 74.138 18.284C74.2686 18.3587 74.3573 18.4707 74.404 18.62L76.826 25.844H76.574L78.702 20.636C78.7673 20.496 78.856 20.384 78.968 20.3C79.0893 20.216 79.2246 20.1787 79.374 20.188C79.5233 20.1787 79.654 20.216 79.766 20.3C79.8873 20.384 79.976 20.496 80.032 20.636L82.048 25.69L81.838 25.802L84.246 18.62C84.2926 18.4707 84.3813 18.3587 84.512 18.284C84.6426 18.2 84.7826 18.158 84.932 18.158ZM89.9917 28.14C89.3197 28.14 88.7223 28.0467 88.1997 27.86C87.677 27.6733 87.1777 27.3653 86.7017 26.936C86.599 26.8613 86.5197 26.7727 86.4637 26.67C86.417 26.558 86.3937 26.446 86.3937 26.334C86.3937 26.1567 86.459 25.998 86.5897 25.858C86.7203 25.718 86.8837 25.648 87.0797 25.648C87.229 25.648 87.369 25.6993 87.4997 25.802C87.8543 26.1287 88.223 26.376 88.6057 26.544C88.9977 26.712 89.455 26.796 89.9777 26.796C90.351 26.796 90.6917 26.7353 90.9997 26.614C91.317 26.4927 91.569 26.3293 91.7557 26.124C91.9423 25.9187 92.0357 25.6807 92.0357 25.41C92.0357 25.074 91.9377 24.7987 91.7417 24.584C91.555 24.36 91.2797 24.178 90.9157 24.038C90.561 23.8887 90.1317 23.7627 89.6277 23.66C89.161 23.576 88.741 23.4593 88.3677 23.31C88.0037 23.1607 87.691 22.974 87.4297 22.75C87.1683 22.5167 86.9677 22.2413 86.8277 21.924C86.6877 21.6067 86.6177 21.238 86.6177 20.818C86.6177 20.2487 86.767 19.7587 87.0657 19.348C87.3643 18.9373 87.7703 18.62 88.2837 18.396C88.797 18.172 89.3757 18.06 90.0197 18.06C90.6077 18.06 91.1583 18.1533 91.6717 18.34C92.185 18.5173 92.6003 18.76 92.9177 19.068C93.1417 19.264 93.2537 19.474 93.2537 19.698C93.2537 19.866 93.1837 20.0247 93.0437 20.174C92.913 20.314 92.759 20.384 92.5817 20.384C92.451 20.384 92.339 20.3467 92.2457 20.272C92.0963 20.1133 91.8957 19.9733 91.6437 19.852C91.3917 19.7213 91.121 19.614 90.8317 19.53C90.5517 19.446 90.281 19.404 90.0197 19.404C89.5997 19.404 89.2403 19.4647 88.9417 19.586C88.643 19.698 88.4143 19.8567 88.2557 20.062C88.097 20.258 88.0177 20.4913 88.0177 20.762C88.0177 21.0793 88.1063 21.3407 88.2837 21.546C88.4703 21.7513 88.727 21.9193 89.0537 22.05C89.3803 22.1713 89.7537 22.2833 90.1737 22.386C90.687 22.498 91.1443 22.624 91.5457 22.764C91.9563 22.904 92.3017 23.086 92.5817 23.31C92.8617 23.5247 93.0763 23.7953 93.2257 24.122C93.375 24.4487 93.4497 24.8547 93.4497 25.34C93.4497 25.9 93.291 26.39 92.9737 26.81C92.6563 27.23 92.2363 27.5567 91.7137 27.79C91.2003 28.0233 90.6263 28.14 89.9917 28.14Z" fill="white"/>
<defs>
<linearGradient id="paint0_linear_1428_3474" x1="0" y1="23" x2="125" y2="23" gradientUnits="userSpaceOnUse">
<stop stop-color="#2B3631"/>
<stop offset="1" stop-color="#496A56"/>
</linearGradient>
</defs>
</svg>
