<svg width="446" height="92" viewBox="0 0 446 92" fill="none" xmlns="http://www.w3.org/2000/svg">
<path d="M9.39369e-05 45.6952C9.39369e-05 36.9912 1.96276 29.1832 5.88809 22.2712C9.81343 15.2739 15.1468 9.81252 21.8881 5.88718C28.7148 1.96185 36.2668 -0.000816345 44.5441 -0.000816345C54.2721 -0.000816345 62.7628 2.34585 70.0161 7.03918C77.2694 11.7325 82.5601 18.3885 85.8881 27.0072H71.9361C69.4614 21.6312 65.8774 17.4925 61.1841 14.5912C56.5761 11.6898 51.0294 10.2392 44.5441 10.2392C38.3148 10.2392 32.7254 11.6898 27.7761 14.5912C22.8268 17.4925 18.9441 21.6312 16.1281 27.0072C13.3121 32.2979 11.9041 38.5272 11.9041 45.6952C11.9041 52.7779 13.3121 59.0072 16.1281 64.3832C18.9441 69.6739 22.8268 73.7699 27.7761 76.6712C32.7254 79.5725 38.3148 81.0232 44.5441 81.0232C51.0294 81.0232 56.5761 79.6152 61.1841 76.7992C65.8774 73.8979 69.4614 69.7592 71.9361 64.3832H85.8881C82.5601 72.9165 77.2694 79.5299 70.0161 84.2232C62.7628 88.8312 54.2721 91.1352 44.5441 91.1352C36.2668 91.1352 28.7148 89.2152 21.8881 85.3752C15.1468 81.4499 9.81343 76.0312 5.88809 69.1192C1.96276 62.2072 9.39369e-05 54.3992 9.39369e-05 45.6952ZM133.819 91.5192C127.248 91.5192 121.275 90.0259 115.899 87.0392C110.608 84.0525 106.427 79.8285 103.355 74.3672C100.368 68.8205 98.8751 62.4205 98.8751 55.1672C98.8751 47.9992 100.411 41.6845 103.483 36.2232C106.64 30.6765 110.907 26.4525 116.283 23.5512C121.659 20.5645 127.675 19.0712 134.331 19.0712C140.987 19.0712 147.003 20.5645 152.379 23.5512C157.755 26.4525 161.979 30.6339 165.051 36.0952C168.208 41.5565 169.787 47.9139 169.787 55.1672C169.787 62.4205 168.166 68.8205 164.923 74.3672C161.766 79.8285 157.456 84.0525 151.995 87.0392C146.534 90.0259 140.475 91.5192 133.819 91.5192ZM133.819 81.2792C138 81.2792 141.926 80.2979 145.595 78.3352C149.264 76.3725 152.208 73.4285 154.427 69.5032C156.731 65.5779 157.883 60.7992 157.883 55.1672C157.883 49.5352 156.774 44.7565 154.555 40.8312C152.336 36.9059 149.435 34.0045 145.851 32.1272C142.267 30.1645 138.384 29.1832 134.203 29.1832C129.936 29.1832 126.011 30.1645 122.427 32.1272C118.928 34.0045 116.112 36.9059 113.979 40.8312C111.846 44.7565 110.779 49.5352 110.779 55.1672C110.779 60.8845 111.803 65.7059 113.851 69.6312C115.984 73.5565 118.8 76.5005 122.299 78.4632C125.798 80.3405 129.638 81.2792 133.819 81.2792ZM247.31 20.2232V90.3672H235.662V79.9992C233.443 83.5832 230.329 86.3992 226.318 88.4472C222.393 90.4099 218.041 91.3912 213.262 91.3912C207.801 91.3912 202.894 90.2819 198.542 88.0632C194.19 85.7592 190.734 82.3459 188.174 77.8232C185.699 73.3005 184.462 67.7965 184.462 61.3112V20.2232H195.982V59.7752C195.982 66.6872 197.731 72.0205 201.23 75.7752C204.729 79.4445 209.507 81.2792 215.566 81.2792C221.795 81.2792 226.702 79.3592 230.286 75.5192C233.87 71.6792 235.662 66.0899 235.662 58.7512V20.2232H247.31ZM278.625 31.6152C280.673 27.6045 283.574 24.4899 287.329 22.2712C291.169 20.0525 295.82 18.9432 301.281 18.9432V30.9752H298.209C285.153 30.9752 278.625 38.0579 278.625 52.2232V90.3672H266.977V20.2232H278.625V31.6152ZM339.559 91.5192C334.183 91.5192 329.362 90.6232 325.095 88.8312C320.828 86.9539 317.458 84.3939 314.983 81.1512C312.508 77.8232 311.143 74.0259 310.887 69.7592H322.919C323.26 73.2579 324.882 76.1165 327.783 78.3352C330.77 80.5539 334.652 81.6632 339.431 81.6632C343.868 81.6632 347.367 80.6819 349.927 78.7192C352.487 76.7565 353.767 74.2819 353.767 71.2952C353.767 68.2232 352.402 65.9619 349.671 64.5112C346.94 62.9752 342.716 61.4819 336.999 60.0312C331.794 58.6659 327.527 57.3005 324.199 55.9352C320.956 54.4845 318.14 52.3939 315.751 49.6632C313.447 46.8472 312.295 43.1779 312.295 38.6552C312.295 35.0712 313.362 31.7859 315.495 28.7992C317.628 25.8125 320.658 23.4659 324.583 21.7592C328.508 19.9672 332.988 19.0712 338.023 19.0712C345.788 19.0712 352.06 21.0338 356.839 24.9592C361.618 28.8845 364.178 34.2605 364.519 41.0872H352.871C352.615 37.4179 351.122 34.4739 348.391 32.2552C345.746 30.0365 342.162 28.9272 337.639 28.9272C333.458 28.9272 330.13 29.8232 327.655 31.6152C325.18 33.4072 323.943 35.7539 323.943 38.6552C323.943 40.9592 324.668 42.8792 326.119 44.4152C327.655 45.8659 329.532 47.0605 331.751 47.9992C334.055 48.8525 337.212 49.8339 341.223 50.9432C346.258 52.3085 350.354 53.6739 353.511 55.0392C356.668 56.3192 359.356 58.2819 361.575 60.9272C363.879 63.5725 365.074 67.0285 365.159 71.2952C365.159 75.1352 364.092 78.5912 361.959 81.6632C359.826 84.7352 356.796 87.1672 352.871 88.9592C349.031 90.6659 344.594 91.5192 339.559 91.5192ZM445.602 52.6072C445.602 54.8259 445.474 57.1725 445.218 59.6472H389.154C389.581 66.5592 391.927 71.9779 396.194 75.9032C400.546 79.7432 405.794 81.6632 411.938 81.6632C416.973 81.6632 421.154 80.5112 424.482 78.2072C427.895 75.8179 430.285 72.6605 431.65 68.7352H444.194C442.317 75.4765 438.562 80.9805 432.93 85.2472C427.298 89.4285 420.301 91.5192 411.938 91.5192C405.282 91.5192 399.309 90.0259 394.018 87.0392C388.813 84.0525 384.717 79.8285 381.73 74.3672C378.743 68.8205 377.25 62.4205 377.25 55.1672C377.25 47.9139 378.701 41.5565 381.602 36.0952C384.503 30.6339 388.557 26.4525 393.762 23.5512C399.053 20.5645 405.111 19.0712 411.938 19.0712C418.594 19.0712 424.482 20.5219 429.602 23.4232C434.722 26.3245 438.647 30.3352 441.378 35.4552C444.194 40.4899 445.602 46.2072 445.602 52.6072ZM433.57 50.1752C433.57 45.7379 432.589 41.9405 430.626 38.7832C428.663 35.5405 425.975 33.1085 422.562 31.4872C419.234 29.7805 415.522 28.9272 411.426 28.9272C405.538 28.9272 400.503 30.8045 396.322 34.5592C392.226 38.3139 389.879 43.5192 389.282 50.1752H433.57Z" fill="#333333"/>
</svg>
