<svg width="142" height="46" viewBox="0 0 142 46" fill="none" xmlns="http://www.w3.org/2000/svg">
<rect width="142" height="46" rx="23" fill="url(#paint0_linear_1428_3485)" fill-opacity="0.76"/>
<path fill-rule="evenodd" clip-rule="evenodd" d="M44.9906 20.3203H47.286V22.6562H48.4438C48.9719 22.6562 49.5203 22.5547 50.0281 22.3922C50.2719 22.3109 50.5563 22.1891 50.8 22.0469C50.475 21.6203 50.3125 21.0922 50.2719 20.5641C50.211 19.8531 50.3531 18.9188 50.8406 18.3703L51.0844 18.0859L51.3688 18.3094C52.1 18.8984 52.6891 19.6906 52.811 20.625C53.6844 20.3609 54.7 20.4219 55.4719 20.8688L55.7766 21.0516L55.6141 21.3766C54.9641 22.6359 53.6031 23.0422 52.2828 22.9609C50.2922 27.8969 45.986 30.2328 40.7453 30.2328C38.0438 30.2328 35.5656 29.2172 34.1438 26.8203L34.1235 26.7797L33.9203 26.3531C33.4328 25.2969 33.2906 24.1391 33.3922 22.9813L33.4328 22.6359H35.3828V20.3203H37.6781V18.0453H42.2485V15.75H44.9906V20.3203Z" fill="white"/>
<path d="M52.4246 21.193C52.5871 19.9945 51.6933 19.0602 51.1246 18.6133C50.4949 19.3445 50.3933 21.2945 51.3887 22.107C50.8199 22.5945 49.6621 23.0617 48.4433 23.0617H33.7777C33.6558 24.3211 33.8793 25.4789 34.3871 26.4742L34.5496 26.7789C34.6512 26.9617 34.773 27.1242 34.8949 27.307C35.5043 27.3477 36.0527 27.368 36.5605 27.3477C37.5558 27.3273 38.3683 27.2055 38.998 27.0023C39.0996 26.9617 39.1808 27.0227 39.2215 27.1039C39.2621 27.2055 39.2012 27.2867 39.1199 27.3273C39.0387 27.3477 38.9574 27.3883 38.8558 27.4086C38.3683 27.5508 37.8402 27.632 37.1699 27.6727H37.048C36.784 27.693 36.4996 27.693 36.1949 27.693C35.8699 27.693 35.5652 27.693 35.1996 27.6727C36.4183 29.0539 38.3277 29.8664 40.7246 29.8664C45.8027 29.8664 50.109 27.6117 51.998 22.5742C53.359 22.7164 54.659 22.3711 55.248 21.2133C54.334 20.6648 53.1152 20.8477 52.4246 21.193Z" fill="white"/>
<path d="M52.4253 21.193C52.5878 19.9945 51.694 19.0602 51.1253 18.6133C50.4956 19.3445 50.3941 21.2945 51.3894 22.107C50.8206 22.5945 49.6628 23.0617 48.4441 23.0617H34.6316C34.5706 24.9914 35.2816 26.4539 36.5612 27.3273C37.5566 27.307 38.3691 27.1852 38.9987 26.982C39.1003 26.9414 39.1816 27.0023 39.2222 27.0836C39.2628 27.1852 39.2019 27.2664 39.1206 27.307C39.0394 27.3273 38.9581 27.368 38.8566 27.3883C38.3691 27.5305 37.8003 27.632 37.13 27.6727L37.1097 27.6523C38.8362 28.5461 41.3347 28.5258 44.2191 27.4289C47.4284 26.1898 50.4347 23.8336 52.5269 21.1523C52.4862 21.1727 52.4456 21.1727 52.4253 21.193Z" fill="white"/>
<path d="M33.7988 24.5859C33.8801 25.2562 34.0832 25.8859 34.3879 26.475L34.5504 26.7797C34.652 26.9625 34.7738 27.125 34.8957 27.3078C35.5051 27.3484 36.0535 27.3687 36.5613 27.3484C37.5566 27.3281 38.3691 27.2062 38.9988 27.0031C39.1004 26.9625 39.1816 27.0234 39.2223 27.1047C39.2629 27.2062 39.202 27.2875 39.1207 27.3281C39.0395 27.3484 38.9582 27.3891 38.8566 27.4094C38.3691 27.5516 37.8004 27.6531 37.1301 27.6937H37.0488C36.7848 27.7141 36.5004 27.7141 36.216 27.7141C35.891 27.7141 35.566 27.7141 35.2207 27.6937C36.4395 29.075 38.3691 29.8875 40.766 29.8875C45.1129 29.8875 48.891 28.2422 51.0848 24.6062H33.7988V24.5859Z" fill="white"/>
<path d="M34.7734 24.5859C35.0375 25.7641 35.6469 26.6984 36.5609 27.3281C37.5562 27.3078 38.3687 27.1859 38.9984 26.9828C39.1 26.9422 39.1813 27.0031 39.2219 27.0844C39.2625 27.1859 39.2016 27.2672 39.1203 27.3078C39.0391 27.3281 38.9578 27.3687 38.8562 27.3891C38.3687 27.5312 37.8 27.6328 37.1094 27.6734C38.8359 28.5672 41.3344 28.5469 44.1984 27.45C45.925 26.7797 47.6109 25.7844 49.1141 24.5859H34.7734Z" fill="white"/>
<path fill-rule="evenodd" clip-rule="evenodd" d="M35.7686 20.7047H37.7592V22.6953H35.7686V20.7047ZM35.9311 20.8672H36.0936V22.5125H35.9311V20.8672ZM36.2154 20.8672H36.3779V22.5125H36.2154V20.8672ZM36.5201 20.8672H36.6826V22.5125H36.5201V20.8672ZM36.8248 20.8672H36.9873V22.5125H36.8248V20.8672ZM37.1295 20.8672H37.292V22.5125H37.1295V20.8672ZM37.4342 20.8672H37.5967V22.5125H37.4342V20.8672ZM38.0436 18.4297H40.0342V20.4203H38.0436V18.4297ZM38.2264 18.5922H38.3889V20.2375H38.2264V18.5922ZM38.5107 18.5922H38.6732V20.2375H38.5107V18.5922ZM38.8154 18.5922H38.9779V20.2375H38.8154V18.5922ZM39.1201 18.5922H39.2826V20.2375H39.1201V18.5922ZM39.4045 18.5922H39.567V20.2375H39.4045V18.5922ZM39.7092 18.5922H39.8717V20.2375H39.7092V18.5922Z" fill="white"/>
<path fill-rule="evenodd" clip-rule="evenodd" d="M38.0439 20.7031H40.0346V22.6937H38.0439V20.7031ZM38.2268 20.8656H38.3893V22.5109H38.2268V20.8656ZM38.5111 20.8656H38.6736V22.5109H38.5111V20.8656ZM38.8158 20.8656H38.9783V22.5109H38.8158V20.8656ZM39.1205 20.8656H39.283V22.5109H39.1205V20.8656ZM39.4049 20.8656H39.5674V22.5109H39.4049V20.8656ZM39.7096 20.8656H39.8721V22.5109H39.7096V20.8656Z" fill="white"/>
<path fill-rule="evenodd" clip-rule="evenodd" d="M40.3389 20.7031H42.3295V22.6937H40.3389V20.7031ZM40.5014 20.8656H40.6639V22.5109H40.5014V20.8656ZM40.8061 20.8656H40.9686V22.5109H40.8061V20.8656ZM41.1107 20.8656H41.2732V22.5109H41.1107V20.8656ZM41.3951 20.8656H41.5576V22.5109H41.3951V20.8656ZM41.6998 20.8656H41.8623V22.5109H41.6998V20.8656ZM42.0045 20.8656H42.167V22.5109H42.0045V20.8656Z" fill="white"/>
<path fill-rule="evenodd" clip-rule="evenodd" d="M40.3389 18.4297H42.3295V20.4203H40.3389V18.4297ZM40.5014 18.5922H40.6639V20.2375H40.5014V18.5922ZM40.8061 18.5922H40.9686V20.2375H40.8061V18.5922ZM41.1107 18.5922H41.2732V20.2375H41.1107V18.5922ZM41.3951 18.5922H41.5576V20.2375H41.3951V18.5922ZM41.6998 18.5922H41.8623V20.2375H41.6998V18.5922ZM42.0045 18.5922H42.167V20.2375H42.0045V18.5922ZM42.6342 20.7047H44.6248V22.6953H42.6342V20.7047ZM42.7967 20.8672H42.9592V22.5125H42.7967V20.8672ZM43.1014 20.8672H43.2639V22.5125H43.1014V20.8672ZM43.3857 20.8672H43.5482V22.5125H43.3857V20.8672ZM43.6904 20.8672H43.8529V22.5125H43.6904V20.8672ZM43.9951 20.8672H44.1576V22.5125H43.9951V20.8672ZM44.2998 20.8672H44.4623V22.5125H44.2998V20.8672Z" fill="white"/>
<path fill-rule="evenodd" clip-rule="evenodd" d="M42.6348 18.4297H44.6254V20.4203H42.6348V18.4297ZM42.7973 18.5922H42.9598V20.2375H42.7973V18.5922ZM43.102 18.5922H43.2645V20.2375H43.102V18.5922ZM43.3863 18.5922H43.5488V20.2375H43.3863V18.5922ZM43.691 18.5922H43.8535V20.2375H43.691V18.5922ZM43.9957 18.5922H44.1582V20.2375H43.9957V18.5922ZM44.3004 18.5922H44.4629V20.2375H44.3004V18.5922Z" fill="white"/>
<path fill-rule="evenodd" clip-rule="evenodd" d="M42.6348 16.1328H44.6254V18.1234H42.6348V16.1328ZM42.7973 16.2953H42.9598V17.9406H42.7973V16.2953ZM43.102 16.2953H43.2645V17.9406H43.102V16.2953ZM43.3863 16.2953H43.5488V17.9406H43.3863V16.2953ZM43.691 16.2953H43.8535V17.9406H43.691V16.2953ZM43.9957 16.2953H44.1582V17.9406H43.9957V16.2953ZM44.3004 16.2953H44.4629V17.9406H44.3004V16.2953Z" fill="white"/>
<path fill-rule="evenodd" clip-rule="evenodd" d="M44.9297 20.7031H46.9203V22.6937H44.9297V20.7031ZM45.0922 20.8656H45.2547V22.5109H45.0922V20.8656ZM45.3766 20.8656H45.5391V22.5109H45.3766V20.8656ZM45.6812 20.8656H45.8438V22.5109H45.6812V20.8656ZM45.9859 20.8656H46.1484V22.5109H45.9859V20.8656ZM46.2906 20.8656H46.4531V22.5109H46.2906V20.8656ZM46.5953 20.8656H46.7578V22.5109H46.5953V20.8656Z" fill="white"/>
<path fill-rule="evenodd" clip-rule="evenodd" d="M39.9127 25.9062C40.2174 25.9062 40.4611 26.15 40.4611 26.4547C40.4611 26.7594 40.2174 27.0031 39.9127 27.0031C39.608 27.0031 39.3643 26.7594 39.3643 26.4547C39.3643 26.15 39.608 25.9062 39.9127 25.9062Z" fill="white"/>
<path fill-rule="evenodd" clip-rule="evenodd" d="M39.9127 26.0664C39.9533 26.0664 40.0143 26.0664 40.0549 26.0867C40.0143 26.107 39.9736 26.168 39.9736 26.2289C39.9736 26.3102 40.0549 26.3914 40.1361 26.3914C40.1971 26.3914 40.258 26.3508 40.2783 26.3102C40.2986 26.3508 40.2986 26.4117 40.2986 26.4523C40.2986 26.6758 40.1158 26.8383 39.9127 26.8383C39.6893 26.8383 39.5268 26.6555 39.5268 26.4523C39.5268 26.2492 39.6893 26.0664 39.9127 26.0664ZM30.2236 24.7867H55.6955C55.1471 24.6445 53.9486 24.4617 54.1314 23.7305C53.1158 24.8883 50.6986 24.543 50.0689 23.9742C49.3783 24.9695 45.3971 24.5836 45.133 23.8117C44.2799 24.8273 41.6189 24.8273 40.7658 23.8117C40.4814 24.5836 36.5002 24.9695 35.8299 23.9742C35.2205 24.543 32.783 24.8883 31.7674 23.7305C31.9908 24.4414 30.7721 24.6445 30.2236 24.7867Z" fill="white"/>
<path d="M41.3748 29.8648C40.0139 29.2148 39.2826 28.3414 38.8561 27.3867C38.3482 27.5289 37.7389 27.6305 37.0482 27.6711C36.7842 27.6914 36.4998 27.6914 36.2154 27.6914C35.8701 27.6914 35.5248 27.6914 35.1592 27.6711C36.3779 28.8898 37.9217 29.8445 40.7451 29.8648H41.3748Z" fill="white"/>
<path d="M39.3645 28.2602C39.1816 27.9961 38.9988 27.6914 38.8566 27.3867C38.3488 27.5289 37.7395 27.6305 37.0488 27.6711C37.516 27.9148 38.2066 28.1586 39.3645 28.2602Z" fill="white"/>
<path d="M69.264 18.2C69.9453 18.2 70.5473 18.3307 71.07 18.592C71.5927 18.844 72.0267 19.1987 72.372 19.656C72.7267 20.104 72.9927 20.6267 73.17 21.224C73.3473 21.812 73.436 22.4373 73.436 23.1C73.436 24.0053 73.2773 24.8313 72.96 25.578C72.6427 26.3153 72.176 26.9033 71.56 27.342C70.944 27.7807 70.1787 28 69.264 28H65.848C65.652 28 65.484 27.9347 65.344 27.804C65.204 27.664 65.134 27.4913 65.134 27.286V18.914C65.134 18.7087 65.204 18.5407 65.344 18.41C65.484 18.27 65.652 18.2 65.848 18.2H69.264ZM69.124 26.656C69.7867 26.656 70.3233 26.4927 70.734 26.166C71.1447 25.8393 71.4433 25.41 71.63 24.878C71.826 24.3367 71.924 23.744 71.924 23.1C71.924 22.624 71.868 22.176 71.756 21.756C71.6533 21.3267 71.4853 20.9487 71.252 20.622C71.028 20.286 70.7387 20.0247 70.384 19.838C70.0387 19.642 69.6187 19.544 69.124 19.544H66.478L66.604 19.418V26.796L66.52 26.656H69.124ZM82.1669 24.318C82.1669 25.0647 82.0035 25.7273 81.6769 26.306C81.3502 26.8753 80.9069 27.3233 80.3469 27.65C79.7869 27.9767 79.1569 28.14 78.4569 28.14C77.7569 28.14 77.1269 27.9767 76.5669 27.65C76.0069 27.3233 75.5589 26.8753 75.2229 26.306C74.8962 25.7273 74.7329 25.0647 74.7329 24.318C74.7329 23.562 74.8962 22.8993 75.2229 22.33C75.5589 21.7513 76.0069 21.2987 76.5669 20.972C77.1269 20.636 77.7569 20.468 78.4569 20.468C79.1569 20.468 79.7869 20.636 80.3469 20.972C80.9069 21.2987 81.3502 21.7513 81.6769 22.33C82.0035 22.8993 82.1669 23.562 82.1669 24.318ZM80.7669 24.318C80.7669 23.8047 80.6642 23.3613 80.4589 22.988C80.2535 22.6053 79.9735 22.3067 79.6189 22.092C79.2735 21.868 78.8862 21.756 78.4569 21.756C78.0275 21.756 77.6355 21.868 77.2809 22.092C76.9262 22.3067 76.6462 22.6053 76.4409 22.988C76.2355 23.3613 76.1329 23.8047 76.1329 24.318C76.1329 24.8127 76.2355 25.2513 76.4409 25.634C76.6462 26.0167 76.9262 26.3153 77.2809 26.53C77.6355 26.7447 78.0275 26.852 78.4569 26.852C78.8862 26.852 79.2735 26.7447 79.6189 26.53C79.9735 26.3153 80.2535 26.0167 80.4589 25.634C80.6642 25.2513 80.7669 24.8127 80.7669 24.318ZM87.0135 20.468C87.5175 20.468 87.9655 20.524 88.3575 20.636C88.7495 20.7387 89.0528 20.888 89.2675 21.084C89.4915 21.2707 89.6035 21.49 89.6035 21.742C89.6035 21.9007 89.5568 22.05 89.4635 22.19C89.3702 22.3207 89.2302 22.386 89.0435 22.386C88.9128 22.386 88.8008 22.3627 88.7075 22.316C88.6235 22.2693 88.5442 22.2133 88.4695 22.148C88.3948 22.0827 88.3015 22.0173 88.1895 21.952C88.0868 21.896 87.9328 21.8493 87.7275 21.812C87.5315 21.7747 87.3542 21.756 87.1955 21.756C86.7008 21.756 86.2715 21.868 85.9075 22.092C85.5528 22.316 85.2728 22.6193 85.0675 23.002C84.8715 23.3847 84.7735 23.8187 84.7735 24.304C84.7735 24.7893 84.8715 25.2233 85.0675 25.606C85.2728 25.9887 85.5482 26.292 85.8935 26.516C86.2482 26.74 86.6588 26.852 87.1255 26.852C87.4055 26.852 87.6342 26.8333 87.8115 26.796C87.9888 26.7493 88.1428 26.6933 88.2735 26.628C88.4135 26.544 88.5302 26.46 88.6235 26.376C88.7262 26.2827 88.8662 26.236 89.0435 26.236C89.2488 26.236 89.4028 26.3013 89.5055 26.432C89.6175 26.5533 89.6735 26.7073 89.6735 26.894C89.6735 27.0993 89.5475 27.3 89.2955 27.496C89.0528 27.6827 88.7262 27.8367 88.3155 27.958C87.9048 28.0793 87.4522 28.14 86.9575 28.14C86.2295 28.14 85.5948 27.972 85.0535 27.636C84.5215 27.3 84.1062 26.8427 83.8075 26.264C83.5182 25.6853 83.3735 25.032 83.3735 24.304C83.3735 23.5667 83.5275 22.9133 83.8355 22.344C84.1435 21.7653 84.5728 21.308 85.1235 20.972C85.6742 20.636 86.3042 20.468 87.0135 20.468ZM91.8233 28C91.6273 28 91.4593 27.9347 91.3193 27.804C91.1886 27.664 91.1233 27.4913 91.1233 27.286V18.354C91.1233 18.1487 91.1886 17.9807 91.3193 17.85C91.4593 17.71 91.6273 17.64 91.8233 17.64C92.0286 17.64 92.1966 17.71 92.3273 17.85C92.4579 17.9807 92.5233 18.1487 92.5233 18.354V27.286C92.5233 27.4913 92.4579 27.664 92.3273 27.804C92.1966 27.9347 92.0286 28 91.8233 28ZM96.3873 20.608C96.5646 20.608 96.7186 20.6827 96.8493 20.832C96.9799 20.9813 97.0453 21.1307 97.0453 21.28C97.0453 21.4667 96.9566 21.6393 96.7793 21.798L92.3973 25.718L92.3413 24.108L95.8693 20.832C96.0186 20.6827 96.1913 20.608 96.3873 20.608ZM96.5553 27.986C96.3593 27.986 96.1913 27.9067 96.0513 27.748L93.2513 24.794L94.3153 23.814L97.0453 26.768C97.1946 26.9267 97.2693 27.104 97.2693 27.3C97.2693 27.5053 97.1853 27.6733 97.0173 27.804C96.8586 27.9253 96.7046 27.986 96.5553 27.986ZM101.933 28.14C101.159 28.14 100.487 27.9813 99.9174 27.664C99.3481 27.3373 98.9048 26.894 98.5874 26.334C98.2794 25.7647 98.1254 25.116 98.1254 24.388C98.1254 23.5667 98.2888 22.8667 98.6154 22.288C98.9514 21.7 99.3854 21.252 99.9174 20.944C100.449 20.6267 101.014 20.468 101.611 20.468C102.069 20.468 102.503 20.5613 102.913 20.748C103.324 20.9253 103.688 21.1773 104.005 21.504C104.332 21.8213 104.589 22.1993 104.775 22.638C104.962 23.0673 105.06 23.5387 105.069 24.052C105.06 24.2387 104.985 24.3927 104.845 24.514C104.705 24.6353 104.542 24.696 104.355 24.696H98.9094L98.5734 23.506H103.837L103.571 23.758V23.408C103.553 23.0813 103.445 22.7967 103.249 22.554C103.053 22.302 102.811 22.1107 102.521 21.98C102.232 21.84 101.929 21.77 101.611 21.77C101.331 21.77 101.061 21.8167 100.799 21.91C100.547 21.994 100.319 22.134 100.113 22.33C99.9174 22.526 99.7588 22.7873 99.6374 23.114C99.5254 23.4313 99.4694 23.828 99.4694 24.304C99.4694 24.8173 99.5768 25.2653 99.7914 25.648C100.006 26.0307 100.295 26.3293 100.659 26.544C101.023 26.7493 101.425 26.852 101.863 26.852C102.209 26.852 102.493 26.8193 102.717 26.754C102.941 26.6793 103.128 26.5907 103.277 26.488C103.427 26.3853 103.557 26.2873 103.669 26.194C103.809 26.11 103.949 26.068 104.089 26.068C104.257 26.068 104.397 26.1287 104.509 26.25C104.621 26.362 104.677 26.4973 104.677 26.656C104.677 26.8613 104.575 27.048 104.369 27.216C104.117 27.4587 103.767 27.6733 103.319 27.86C102.881 28.0467 102.419 28.14 101.933 28.14ZM107.352 28C107.147 28 106.979 27.9347 106.848 27.804C106.717 27.664 106.652 27.4913 106.652 27.286V21.35C106.652 21.1447 106.717 20.9767 106.848 20.846C106.979 20.706 107.147 20.636 107.352 20.636C107.548 20.636 107.711 20.706 107.842 20.846C107.982 20.9767 108.052 21.1447 108.052 21.35V22.918L107.912 22.316C107.987 22.0547 108.099 21.812 108.248 21.588C108.407 21.364 108.593 21.168 108.808 21C109.023 20.832 109.261 20.7013 109.522 20.608C109.793 20.5147 110.073 20.468 110.362 20.468C110.605 20.468 110.815 20.5333 110.992 20.664C111.169 20.7947 111.258 20.958 111.258 21.154C111.258 21.406 111.193 21.5927 111.062 21.714C110.931 21.826 110.787 21.882 110.628 21.882C110.488 21.882 110.353 21.854 110.222 21.798C110.091 21.7327 109.937 21.7 109.76 21.7C109.564 21.7 109.363 21.7513 109.158 21.854C108.953 21.9567 108.766 22.1107 108.598 22.316C108.43 22.512 108.295 22.7453 108.192 23.016C108.099 23.2867 108.052 23.59 108.052 23.926V27.286C108.052 27.4913 107.982 27.664 107.842 27.804C107.711 27.9347 107.548 28 107.352 28Z" fill="white"/>
<defs>
<linearGradient id="paint0_linear_1428_3485" x1="0" y1="23" x2="142" y2="23" gradientUnits="userSpaceOnUse">
<stop stop-color="#2B3631"/>
<stop offset="1" stop-color="#496A56"/>
</linearGradient>
</defs>
</svg>
