<svg width="148" height="46" viewBox="0 0 148 46" fill="none" xmlns="http://www.w3.org/2000/svg">
<rect width="148" height="46" rx="23" fill="url(#paint0_linear_1430_3459)" fill-opacity="0.76"/>
<g clip-path="url(#clip0_1430_3459)">
<path d="M41.5401 35.9153C41.1536 35.8692 40.7482 35.8096 40.6395 35.7828C40.4796 35.7449 40.3187 35.7111 40.1571 35.6813C39.9725 35.6455 39.7893 35.6026 39.608 35.5527C38.7661 35.3114 38.7057 35.2917 38.071 35.0321C37.487 34.794 36.411 34.2379 36.043 33.9848C35.9422 33.9149 35.848 33.8586 35.8335 33.8586C35.8193 33.8586 35.5837 33.6929 35.3099 33.4904C33.5691 32.2019 32.2622 30.6379 31.3179 28.7114C31.1554 28.3806 31.0227 28.087 31.0227 28.0594C31.0227 28.0322 30.9935 27.9568 30.9577 27.8935C30.884 27.7616 30.779 27.4777 30.6943 27.1841C30.6579 27.0594 30.6155 26.9365 30.5673 26.8159C30.5277 26.7224 30.4958 26.6087 30.4958 26.5628C30.4958 26.5167 30.4562 26.3668 30.4079 26.2286C30.3595 26.0915 30.3205 25.9296 30.3205 25.8691C30.3205 25.809 30.2825 25.601 30.2356 25.4068C30.1215 24.9274 30 23.6857 30 22.9898C30 22.2947 30.1215 21.053 30.2356 20.5739C30.2823 20.3795 30.3205 20.1676 30.3205 20.1026C30.3205 20.0374 30.35 19.9096 30.3855 19.8182C30.4221 19.7272 30.4688 19.5637 30.4903 19.455C30.5127 19.3464 30.5635 19.1591 30.6047 19.0376L30.7245 18.687C30.8125 18.4244 30.8942 18.2022 30.9332 18.1156C30.9555 18.0673 31.0426 17.8699 31.1275 17.6769C31.2649 17.3651 31.5592 16.777 31.7312 16.4693C31.794 16.3566 31.8178 16.3192 32.1574 15.7884C32.6955 14.9459 33.615 13.8975 34.471 13.1502C34.7726 12.8868 35.7803 12.1218 35.8256 12.1218C35.8382 12.1218 35.9333 12.0647 36.0375 11.9949C36.3111 11.8116 36.5794 11.6561 36.9292 11.4808C37.0548 11.4187 37.1791 11.3541 37.3021 11.2872C37.36 11.2539 37.4687 11.2039 38.0267 10.9541C38.1496 10.8992 38.282 10.8492 38.6637 10.7158C38.7478 10.6865 38.9168 10.6246 39.0374 10.5793C39.1589 10.5342 39.3017 10.4968 39.3549 10.4968C39.4073 10.4968 39.5452 10.4603 39.6612 10.4152C39.777 10.3699 39.9873 10.3183 40.1292 10.3008C40.2706 10.2841 40.4585 10.2445 40.5467 10.2135C40.634 10.1834 40.8737 10.1444 41.079 10.1271C41.3467 10.103 41.6136 10.0715 41.8796 10.0327C42.4256 9.95265 43.6126 9.95265 44.1529 10.0327C44.4081 10.0693 44.6642 10.0994 44.921 10.1231C45.1145 10.1391 45.3613 10.1795 45.47 10.2129C45.5787 10.2454 45.7668 10.286 45.8874 10.3008C46.0081 10.3169 46.2112 10.3668 46.3388 10.4127C46.4667 10.4594 46.6118 10.4968 46.6617 10.4968C46.7117 10.4968 46.8149 10.5246 46.8903 10.5596C46.9664 10.5937 47.1275 10.6508 47.249 10.6865C47.3696 10.7231 47.5766 10.7952 47.7101 10.8484C47.8425 10.9014 48.0202 10.9713 48.1051 11.003C48.2615 11.0619 49.4173 11.6402 49.5745 11.7387C50.8504 12.5344 51.5067 13.0542 52.389 13.9658C53.453 15.0655 54.1593 16.1128 54.8781 17.6545C54.9289 17.7634 55.0065 17.9245 55.051 18.0116C55.0947 18.0998 55.1312 18.203 55.1312 18.2412C55.1312 18.2798 55.1678 18.3955 55.2129 18.4989C55.3352 18.7799 55.4398 19.0996 55.4891 19.3439C55.5135 19.4638 55.5588 19.6121 55.5897 19.6732C55.6208 19.7341 55.6571 19.8891 55.6715 20.0161C55.6858 20.1428 55.7278 20.3508 55.7636 20.477C55.9707 21.1942 56.0737 23.3073 55.9484 24.2419C55.9112 24.5196 55.8692 24.8553 55.855 24.9878C55.831 25.2146 55.7112 25.8011 55.6088 26.1953L55.5032 26.6128C55.3041 27.4165 54.8121 28.5615 54.2115 29.6208C53.9734 30.0413 53.1753 31.1784 53.0246 31.3116C53.011 31.3234 52.9436 31.4031 52.8753 31.4869C52.8071 31.5719 52.5881 31.8091 52.3899 32.0139C51.5162 32.9159 50.8116 33.4737 49.5745 34.2419C49.4279 34.3331 48.1837 34.9409 47.9512 35.0353C47.8305 35.0837 47.629 35.1653 47.5037 35.2161C47.3792 35.2663 47.2402 35.3083 47.1966 35.3091C47.1529 35.3098 47.0379 35.3488 46.941 35.3955C46.8443 35.4422 46.7213 35.4812 46.6666 35.482C46.6126 35.4828 46.4547 35.521 46.3158 35.5669C46.1771 35.6136 45.9841 35.6638 45.8872 35.6786C45.7905 35.6939 45.5835 35.7351 45.4263 35.77C45.2693 35.805 44.7946 35.8732 44.3727 35.9216C43.4316 36.0313 42.4808 36.0292 41.5401 35.9153ZM42.4954 33.3762C42.5564 33.3287 42.6191 33.234 42.6358 33.1676C42.6724 33.0207 48.574 21.1893 48.6851 21.041C48.7787 20.9157 48.7874 20.715 48.7017 20.6443C48.6566 20.6064 48.0915 20.5944 46.5831 20.5968C45.4517 20.5992 44.5005 20.6001 44.4694 20.5992C44.4235 20.5976 44.414 19.8416 44.4186 16.6034C44.4219 14.4062 44.4115 12.5884 44.3957 12.5632C44.3798 12.5376 44.3179 12.5171 44.2575 12.5171C44.1726 12.5171 44.133 12.5537 44.0808 12.6812C43.9823 12.9185 43.7101 13.4572 42.3851 16.0297C42.1099 16.5636 41.8354 17.0978 41.5615 17.6324C41.3267 18.0919 40.9562 18.8132 40.7394 19.2351C40.156 20.3692 39.5739 21.5039 38.993 22.6392C37.9909 24.5965 37.8697 24.8299 37.8266 24.8815C37.7433 24.9823 37.698 25.2146 37.745 25.302C37.7876 25.382 37.8727 25.3853 39.9881 25.382C41.1973 25.3806 42.1946 25.3869 42.205 25.3962C42.2328 25.4249 42.2224 32.9748 42.1938 33.1548C42.1749 33.273 42.1875 33.3356 42.2415 33.3896C42.335 33.4833 42.3606 33.4824 42.4954 33.3762Z" fill="white"/>
</g>
<path d="M65.876 28C65.652 28 65.47 27.9347 65.33 27.804C65.1993 27.664 65.134 27.4913 65.134 27.286V18.914C65.134 18.7087 65.204 18.5407 65.344 18.41C65.484 18.27 65.652 18.2 65.848 18.2H70.58C70.7853 18.2 70.9533 18.2653 71.084 18.396C71.224 18.5267 71.294 18.69 71.294 18.886C71.294 19.0633 71.224 19.2173 71.084 19.348C70.9533 19.4787 70.7853 19.544 70.58 19.544H66.492L66.59 19.404V22.526L66.506 22.358H69.95C70.1553 22.358 70.3233 22.4233 70.454 22.554C70.594 22.6847 70.664 22.848 70.664 23.044C70.664 23.2213 70.594 23.3753 70.454 23.506C70.3233 23.6367 70.1553 23.702 69.95 23.702H66.478L66.59 23.59V27.286C66.59 27.4913 66.52 27.664 66.38 27.804C66.24 27.9347 66.072 28 65.876 28ZM78.6292 20.524C78.8346 20.524 79.0026 20.594 79.1332 20.734C79.2639 20.8647 79.3292 21.0327 79.3292 21.238V27.286C79.3292 27.4913 79.2639 27.664 79.1332 27.804C79.0026 27.9347 78.8346 28 78.6292 28C78.4332 28 78.2652 27.9347 78.1252 27.804C77.9946 27.664 77.9292 27.4913 77.9292 27.286V26.278L78.2232 26.32C78.2232 26.488 78.1532 26.6747 78.0132 26.88C77.8826 27.0853 77.7006 27.286 77.4672 27.482C77.2339 27.6687 76.9586 27.8273 76.6412 27.958C76.3239 28.0793 75.9832 28.14 75.6192 28.14C74.9752 28.14 74.3966 27.9767 73.8832 27.65C73.3699 27.314 72.9639 26.8567 72.6652 26.278C72.3666 25.6993 72.2172 25.0413 72.2172 24.304C72.2172 23.548 72.3666 22.8853 72.6652 22.316C72.9639 21.7373 73.3652 21.2847 73.8692 20.958C74.3826 20.6313 74.9519 20.468 75.5772 20.468C75.9786 20.468 76.3472 20.5333 76.6832 20.664C77.0286 20.7947 77.3272 20.9627 77.5792 21.168C77.8312 21.3733 78.0226 21.5927 78.1532 21.826C78.2932 22.05 78.3632 22.2647 78.3632 22.47L77.9292 22.512V21.238C77.9292 21.042 77.9946 20.874 78.1252 20.734C78.2652 20.594 78.4332 20.524 78.6292 20.524ZM75.7732 26.852C76.2119 26.852 76.5992 26.74 76.9352 26.516C77.2712 26.292 77.5326 25.9887 77.7192 25.606C77.9059 25.214 77.9992 24.78 77.9992 24.304C77.9992 23.8187 77.9059 23.3847 77.7192 23.002C77.5326 22.6193 77.2712 22.316 76.9352 22.092C76.5992 21.868 76.2119 21.756 75.7732 21.756C75.3439 21.756 74.9612 21.868 74.6252 22.092C74.2986 22.316 74.0372 22.6193 73.8412 23.002C73.6546 23.3847 73.5612 23.8187 73.5612 24.304C73.5612 24.78 73.6546 25.214 73.8412 25.606C74.0372 25.9887 74.2986 26.292 74.6252 26.516C74.9612 26.74 75.3439 26.852 75.7732 26.852ZM80.8565 26.852C80.7725 26.7213 80.7352 26.572 80.7445 26.404C80.7539 26.2267 80.8519 26.0773 81.0385 25.956C81.1692 25.872 81.3045 25.8393 81.4445 25.858C81.5939 25.8673 81.7339 25.9373 81.8645 26.068C82.1259 26.3573 82.4152 26.586 82.7325 26.754C83.0592 26.922 83.4512 27.006 83.9085 27.006C84.0952 26.9967 84.2865 26.9687 84.4825 26.922C84.6785 26.866 84.8465 26.7727 84.9865 26.642C85.1265 26.502 85.1965 26.3013 85.1965 26.04C85.1965 25.8067 85.1219 25.62 84.9725 25.48C84.8232 25.34 84.6272 25.228 84.3845 25.144C84.1419 25.0507 83.8805 24.9667 83.6005 24.892C83.3019 24.808 82.9985 24.7147 82.6905 24.612C82.3919 24.5093 82.1212 24.3787 81.8785 24.22C81.6359 24.052 81.4352 23.8373 81.2765 23.576C81.1272 23.3147 81.0525 22.9927 81.0525 22.61C81.0525 22.1713 81.1739 21.7933 81.4165 21.476C81.6685 21.1587 81.9905 20.9113 82.3825 20.734C82.7839 20.5567 83.2179 20.468 83.6845 20.468C83.9552 20.468 84.2399 20.5053 84.5385 20.58C84.8372 20.6453 85.1265 20.7527 85.4065 20.902C85.6865 21.0513 85.9292 21.2473 86.1345 21.49C86.2279 21.6113 86.2792 21.756 86.2885 21.924C86.3072 22.092 86.2325 22.2413 86.0645 22.372C85.9525 22.4653 85.8172 22.5073 85.6585 22.498C85.4999 22.4887 85.3692 22.4373 85.2665 22.344C85.0892 22.12 84.8605 21.9473 84.5805 21.826C84.3005 21.6953 83.9832 21.63 83.6285 21.63C83.4512 21.63 83.2645 21.658 83.0685 21.714C82.8819 21.7607 82.7232 21.8493 82.5925 21.98C82.4619 22.1107 82.3965 22.302 82.3965 22.554C82.3965 22.7873 82.4712 22.974 82.6205 23.114C82.7792 23.254 82.9845 23.3707 83.2365 23.464C83.4885 23.5573 83.7639 23.6413 84.0625 23.716C84.3519 23.7907 84.6365 23.8793 84.9165 23.982C85.2059 24.0847 85.4625 24.22 85.6865 24.388C85.9199 24.5467 86.1065 24.7567 86.2465 25.018C86.3959 25.27 86.4705 25.592 86.4705 25.984C86.4705 26.4413 86.3352 26.8333 86.0645 27.16C85.8032 27.4773 85.4672 27.72 85.0565 27.888C84.6552 28.056 84.2305 28.14 83.7825 28.14C83.2505 28.14 82.7185 28.0467 82.1865 27.86C81.6639 27.664 81.2205 27.328 80.8565 26.852ZM87.8781 20.72H91.1681C91.3548 20.72 91.5088 20.7853 91.6301 20.916C91.7608 21.0373 91.8261 21.1913 91.8261 21.378C91.8261 21.5553 91.7608 21.7047 91.6301 21.826C91.5088 21.9473 91.3548 22.008 91.1681 22.008H87.8781C87.6914 22.008 87.5328 21.9473 87.4021 21.826C87.2808 21.6953 87.2201 21.5413 87.2201 21.364C87.2201 21.1773 87.2808 21.0233 87.4021 20.902C87.5328 20.7807 87.6914 20.72 87.8781 20.72ZM89.3481 18.9C89.5534 18.9 89.7214 18.97 89.8521 19.11C89.9828 19.2407 90.0481 19.4087 90.0481 19.614V26.11C90.0481 26.278 90.0761 26.4133 90.1321 26.516C90.1881 26.6187 90.2628 26.6887 90.3561 26.726C90.4588 26.7633 90.5614 26.782 90.6641 26.782C90.7668 26.782 90.8554 26.7633 90.9301 26.726C91.0141 26.6887 91.1121 26.67 91.2241 26.67C91.3361 26.67 91.4388 26.7213 91.5321 26.824C91.6254 26.9267 91.6721 27.0667 91.6721 27.244C91.6721 27.468 91.5508 27.65 91.3081 27.79C91.0654 27.93 90.8041 28 90.5241 28C90.3654 28 90.1788 27.986 89.9641 27.958C89.7494 27.93 89.5394 27.86 89.3341 27.748C89.1381 27.636 88.9748 27.4587 88.8441 27.216C88.7134 26.964 88.6481 26.614 88.6481 26.166V19.614C88.6481 19.4087 88.7134 19.2407 88.8441 19.11C88.9841 18.97 89.1521 18.9 89.3481 18.9ZM100.927 20.02L97.777 27.58C97.721 27.7293 97.637 27.846 97.525 27.93C97.413 28.014 97.287 28.056 97.147 28.056C96.9416 28.056 96.7876 28 96.685 27.888C96.5823 27.7667 96.5263 27.6173 96.517 27.44C96.517 27.3747 96.531 27.3 96.559 27.216L100.115 18.62C100.18 18.4613 100.274 18.34 100.395 18.256C100.526 18.172 100.666 18.1347 100.815 18.144C100.955 18.144 101.086 18.186 101.207 18.27C101.328 18.354 101.417 18.4707 101.473 18.62L104.987 27.09C105.024 27.1833 105.043 27.2767 105.043 27.37C105.043 27.5753 104.973 27.7433 104.833 27.874C104.702 27.9953 104.553 28.056 104.385 28.056C104.245 28.056 104.114 28.014 103.993 27.93C103.881 27.8367 103.797 27.72 103.741 27.58L100.563 20.062L100.927 20.02ZM98.337 25.592L98.967 24.248H102.929L103.167 25.592H98.337ZM110.357 18.2C110.852 18.2 111.309 18.3353 111.729 18.606C112.149 18.8673 112.485 19.2267 112.737 19.684C112.989 20.1413 113.115 20.6547 113.115 21.224C113.115 21.7933 112.989 22.3113 112.737 22.778C112.485 23.2353 112.149 23.604 111.729 23.884C111.309 24.1547 110.852 24.29 110.357 24.29H107.655L107.767 24.066V27.286C107.767 27.4913 107.702 27.664 107.571 27.804C107.45 27.9347 107.287 28 107.081 28C106.885 28 106.722 27.9347 106.591 27.804C106.47 27.664 106.409 27.4913 106.409 27.286V18.914C106.409 18.7087 106.479 18.5407 106.619 18.41C106.759 18.27 106.927 18.2 107.123 18.2H110.357ZM110.357 22.946C110.6 22.946 110.819 22.8667 111.015 22.708C111.221 22.5493 111.384 22.3393 111.505 22.078C111.636 21.8167 111.701 21.532 111.701 21.224C111.701 20.916 111.636 20.636 111.505 20.384C111.384 20.132 111.221 19.9313 111.015 19.782C110.819 19.6233 110.6 19.544 110.357 19.544H107.627L107.767 19.334V23.128L107.641 22.946H110.357ZM116.288 27.286C116.278 27.4913 116.199 27.664 116.05 27.804C115.91 27.9347 115.742 28 115.546 28C115.331 28 115.154 27.9347 115.014 27.804C114.883 27.664 114.818 27.4913 114.818 27.286V18.914C114.818 18.7087 114.888 18.5407 115.028 18.41C115.168 18.27 115.35 18.2 115.574 18.2C115.76 18.2 115.924 18.27 116.064 18.41C116.213 18.5407 116.288 18.7087 116.288 18.914V27.286Z" fill="white"/>
<defs>
<linearGradient id="paint0_linear_1430_3459" x1="0" y1="23" x2="148" y2="23" gradientUnits="userSpaceOnUse">
<stop stop-color="#2B3631"/>
<stop offset="1" stop-color="#496A56"/>
</linearGradient>
<clipPath id="clip0_1430_3459">
<rect width="26" height="26" fill="white" transform="translate(30 10)"/>
</clipPath>
</defs>
</svg>
