<svg width="129" height="46" viewBox="0 0 129 46" fill="none" xmlns="http://www.w3.org/2000/svg">
<rect width="129" height="46" rx="23" fill="url(#paint0_linear_1428_3542)" fill-opacity="0.76"/>
<path d="M39.0266 30.4388C38.1673 29.7624 37.2512 29.1144 36.6236 28.2024C35.3053 26.5937 34.2897 24.729 33.597 22.7708C33.1766 21.4972 33.0344 20.1322 32.492 18.9074C31.9273 18.0177 32.5895 17.0468 33.5625 16.7644C33.9951 16.6812 34.7589 16.2708 33.8387 16.5654C33.0141 17.1707 32.9348 16.0149 33.7798 15.9418C34.3567 15.8646 34.57 15.3933 34.373 14.9668C33.7534 14.5626 35.8761 14.1177 34.8076 13.5144C33.6945 12.314 36.3636 12.0824 35.7055 13.4474C35.5491 14.4955 37.5701 13.2544 37.1009 14.4651C37.5783 15.046 38.8884 14.5971 38.8539 15.4137C39.5486 15.4624 39.7883 16.0454 40.4383 16.0901C41.1147 16.3947 42.3395 16.6365 42.5691 17.3982C41.8987 17.9283 40.3448 16.3013 40.2717 17.7719C40.4748 19.9433 40.422 22.1797 41.2162 24.2476C41.592 25.4988 42.502 26.484 43.3247 27.459C44.1128 28.4137 45.1772 29.086 46.2659 29.6527C47.2186 30.1016 48.2464 30.4002 49.2864 30.5871C49.7069 30.2641 50.4523 29.0677 51.1084 29.5715C51.1409 30.1402 49.8044 30.7577 51.0455 30.6968C51.7747 30.4774 52.2805 31.2594 52.8817 30.5526C53.4342 31.2087 55.1811 30.1341 54.787 31.4727C54.2548 31.816 53.4789 31.6088 52.9447 32.0821C52.0651 31.6433 51.3664 32.4741 50.3934 32.3705C49.3128 32.5635 48.2139 32.6427 47.117 32.6427C45.3194 32.5005 43.4831 32.4416 41.7748 31.816C40.812 31.5357 39.8716 30.9872 39.0266 30.4388ZM40.5439 31.0969C41.4844 31.5032 42.4045 31.9318 43.4344 32.0618C45.0695 32.2893 46.7595 32.6387 48.4008 32.3197C47.6573 31.9846 46.8895 32.4497 46.1501 32.0801C45.2625 32.271 44.3098 32.0313 43.408 31.9135C42.3822 31.4565 41.2751 31.1416 40.3144 30.5485C39.1139 30.1097 40.9359 31.1112 41.2589 31.1924C42.0084 31.619 40.4342 30.973 40.2108 30.7963C39.5831 30.4429 39.5019 30.518 40.1478 30.8755C40.2778 30.9507 40.4078 31.0319 40.5439 31.0969ZM38.7544 29.8315C39.6664 30.1687 38.7503 29.1896 38.3339 29.2465C38.1491 28.9255 37.627 28.7224 37.9947 28.5497C37.3325 28.7793 37.3 27.6763 36.9892 27.8327C36.2884 27.6113 36.717 26.8272 35.8822 26.3458C35.807 25.838 35.0534 25.3993 34.8137 24.6335C34.7081 24.2415 33.9626 23.1182 34.4197 24.1643C34.8097 25.1718 35.4942 26.0351 36.065 26.8963C36.5078 27.7169 37.0319 28.5741 37.8362 29.086C38.1084 29.3501 38.3705 29.7502 38.7544 29.8315ZM36.128 26.9491C36.1605 26.811 36.2945 27.2457 36.128 26.9491V26.9491ZM39.8451 30.2357C39.5547 30.1219 40.0483 30.1463 39.8451 30.2357V30.2357ZM40.3408 30.4165C40.1153 30.5566 40.29 30.1666 40.3408 30.4165V30.4165ZM40.9603 30.6744C40.5053 30.4977 41.2548 30.3941 40.9603 30.6744V30.6744ZM42.0206 31.2655C41.4478 31.166 42.2014 31.0015 42.0206 31.2655V31.2655ZM39.9833 29.8457C39.3922 29.8416 40.4403 29.5491 39.9833 29.8457V29.8457ZM40.4484 30.0772C40.2819 30.1463 40.4342 29.9208 40.4484 30.0772V30.0772ZM42.7701 31.5255C43.1439 31.7612 44.9497 32.0415 43.8183 31.623C43.6294 31.6637 41.72 31.0827 42.7701 31.5255ZM39.0834 28.6554C38.5045 28.4827 39.0469 28.499 39.0834 28.6554V28.6554ZM40.1641 29.2851C39.5811 29.1347 40.4464 29.0901 40.1641 29.2851V29.2851ZM41.0741 29.8437C40.418 29.6913 41.4762 29.6913 41.0741 29.8437V29.8437ZM38.6426 28.176C39.0814 28.5112 40.4098 28.2187 39.313 27.9749C38.8153 27.7088 37.69 27.528 38.4558 28.1354L38.6426 28.176ZM41.6895 30.0366C40.9237 29.8579 41.8723 29.7258 41.6895 30.0366V30.0366ZM40.7633 29.2993C41.8337 29.6019 39.8634 28.6208 40.4992 29.1876L40.6414 29.2526L40.7633 29.2993ZM42.6198 30.3718C41.7037 30.2337 43.6334 30.3819 42.6198 30.3718V30.3718ZM38.2526 27.589C38.0028 27.6052 38.2141 27.4001 38.2526 27.589V27.589ZM44.3342 31.3346C44.0051 31.5885 44.3626 30.9933 44.3342 31.3346V31.3346ZM39.9833 28.6493C39.6664 28.6412 39.9223 28.4705 39.9833 28.6493V28.6493ZM38.3501 27.4712C37.5519 27.2152 38.9311 27.4366 38.3501 27.4712V27.4712ZM36.4123 26.2199C35.7786 25.7182 36.3392 25.9396 36.4123 26.2199V26.2199ZM41.4966 29.4455C41.3909 29.3237 41.4458 29.4719 41.4966 29.4455V29.4455ZM44.6612 31.3874C44.4886 31.4585 44.6511 31.2026 44.6612 31.3874V31.3874ZM41.2162 29.1571C40.7206 29.084 41.2731 28.9174 41.2162 29.1571V29.1571ZM38.86 27.6621C38.1653 27.3696 39.2926 27.6154 38.86 27.6621V27.6621ZM42.8473 30.1402C42.1892 30.0102 43.5217 29.8721 42.8473 30.1402V30.1402ZM40.7734 28.7326C41.5514 28.8321 39.8472 28.2024 40.6028 28.6757L40.7734 28.7326ZM43.477 30.3962C44.2042 29.9615 43.9645 31.4138 44.71 30.518C45.4453 29.9818 44.0742 31.1822 44.9801 30.6135C45.6362 30.1747 46.6031 30.8207 47.2145 31.0319C47.6533 31.0096 48.0819 31.4118 48.5328 31.168C49.4001 30.9344 46.8347 30.8207 47.507 30.4063C46.7128 30.6379 46.1258 30.1301 45.7358 29.6222C44.8441 29.4171 43.8142 28.9621 43.3694 28.1719C43.1886 27.8754 43.6314 28.2146 43.213 27.7291C42.6767 27.2518 42.4086 26.7094 42.0491 26.1285C41.6184 25.899 41.5676 25.2226 41.525 26.1062C41.5291 25.5496 41.005 25.1738 40.877 25.3302C40.875 24.794 41.4376 25.0621 41.0436 24.666C40.9583 24.1094 40.68 23.5305 40.5967 22.9029C40.4667 22.6002 40.5784 21.9522 40.1519 22.6368C39.9975 23.3619 40.1011 21.7471 40.3428 22.2793C40.6597 21.7369 40.2291 21.7999 40.2108 21.8751C40.418 21.416 40.3408 20.766 40.1559 21.0138C40.2656 20.5283 40.3306 19.2263 39.9914 19.4579C40.1966 18.9501 40.3814 17.1341 39.4897 17.8268C39.1281 17.8329 38.5045 17.9568 38.208 18.1051C39.1342 18.6149 38.1145 18.2899 37.7367 18.2087C37.688 18.6819 37.3142 18.4768 36.847 18.4808C37.5925 18.5722 36.4834 19.2426 36.0569 18.9826C35.5003 19.2487 36.5362 19.9108 36.067 20.116C36.1239 20.4247 35.2159 20.0043 35.287 20.7172C34.7487 20.4897 35.2139 21.5622 35.482 21.2007C36.3981 21.4485 36.128 22.0152 36.1503 22.5515C36 22.8643 35.413 21.8162 36.0203 21.8649C35.5409 21.0869 35.4901 21.5846 35.0941 21.9441C35.0026 21.9705 36.1076 22.458 35.413 22.6997C36.0244 22.7952 36.0426 23.3294 36.1666 23.6666C36.5342 24.0485 36.4591 23.2441 36.8978 23.7032C36.6195 23.2929 35.4251 22.5494 36.3859 22.7871C36.3798 22.3747 36.2112 22.0416 36.5078 22.0497C36.8003 21.5216 36.2011 23.3538 36.8592 22.6815C37.042 22.6022 37.0867 22.1533 37.4137 22.7241C37.8891 23.1913 37.5864 23.5305 36.9141 23.1019C37.0339 23.5102 37.8119 23.6544 37.6656 24.2922C37.82 24.8529 38.0373 24.6457 38.2262 24.6132C38.3745 25.1576 38.4578 24.7574 38.4659 24.4974C39.1444 24.6437 38.9859 25.0438 39.1972 25.3241C39.6644 25.5354 38.5289 23.8941 39.3312 24.8305C40.1762 25.5922 39.6481 25.9112 38.8905 25.7893C39.3698 25.7507 39.5242 26.4372 40.1234 26.4129C40.6698 26.6729 41.0416 27.6722 40.0991 27.2558C39.772 26.9613 38.6142 26.5977 39.5608 27.1583C40.4342 27.5626 41.1269 27.8043 41.9698 28.3121C42.5711 28.7427 42.8331 29.2343 43.0606 29.3318C42.5548 29.5735 41.5351 29.1388 42.2928 29.0047C41.8195 28.9194 41.2894 28.6797 41.7423 29.2688C42.1262 29.5897 43.1053 29.5572 43.282 29.5918C43.1337 29.9188 42.8778 29.9452 43.2881 29.9696C42.8311 30.2174 43.4344 30.256 43.477 30.3962ZM42.5426 27.7555C42.2644 27.4651 42.1933 26.9207 42.4939 27.394C42.6462 27.4549 42.9875 28.2837 42.5426 27.7555ZM45.5875 29.6893C45.5916 29.8213 45.7601 29.6771 45.5875 29.6893V29.6893ZM42.1039 27.0426C42.0917 26.6018 42.2034 27.3818 42.1039 27.0426V27.0426ZM41.8012 26.6343C41.4498 25.9599 42.242 26.8272 41.8012 26.6343V26.6343ZM38.1328 24.1033C38.2344 24.4547 38.338 24.0485 38.1328 24.1033V24.1033ZM41.0517 25.6857C41.1776 25.2124 41.2 26.0838 41.0517 25.6857V25.6857ZM38.99 24.2516C38.8458 23.9896 39.2947 24.4974 38.99 24.2516V24.2516ZM40.7592 24.8183C40.4281 24.0769 40.9948 24.4121 40.8323 24.9402L40.7592 24.8183ZM37.7083 22.7851C37.56 22.5413 37.3162 21.8263 37.3934 21.609C37.4645 21.9644 38.1491 23.1385 37.7286 22.0944C37.2655 21.221 38.2831 22.3788 38.3887 22.5962C38.4375 22.8135 38.1023 22.5372 38.3298 23.0451C37.9155 22.4662 38.0861 23.366 37.7083 22.7851ZM36.7658 22.1351C36.8044 21.5683 36.9811 22.523 36.7658 22.1351V22.1351ZM37.1883 22.2813C37.3914 21.8527 37.5316 22.8765 37.1883 22.2813V22.2813ZM36.1686 21.4912C35.8172 21.1418 35.5633 20.8208 36.1848 21.2738C36.4245 21.284 35.6526 20.5426 36.2417 21.0382C36.8633 21.1519 36.5484 22.0558 36.1686 21.4912ZM36.7048 21.4769C36.8125 21.676 36.908 21.2758 36.7048 21.4769V21.4769ZM37.0339 21.5826C36.7251 21.0037 37.4097 21.8263 37.0339 21.5826V21.5826ZM36.3798 20.9569C35.3601 20.049 37.6616 21.4322 36.5464 21.1255L36.3798 20.9569ZM39.3028 22.6551C38.86 22.391 39.185 20.7904 39.3353 21.8852C39.7639 21.7471 39.3109 22.4499 39.6319 22.4438C39.5831 22.8866 39.4389 23.0471 39.3028 22.6551ZM40.3855 23.2949C40.4281 22.8115 40.4769 23.624 40.3855 23.2949V23.2949ZM40.1966 23.108C40.2026 23.3518 40.2453 22.9029 40.1966 23.108V23.108ZM36.5789 20.6583C35.9228 19.7544 38.4842 21.5744 36.9994 20.8879C36.843 20.8452 36.6561 20.831 36.5789 20.6583ZM38.663 21.7613C38.6 20.9996 38.8011 21.8872 38.663 21.7613V21.7613ZM40.2433 22.7769C40.2534 23.0633 40.3651 22.3422 40.2433 22.7769V22.7769ZM36.6805 20.313C37.0705 20.2297 38.2953 20.9976 37.17 20.5324C37.0441 20.3922 36.778 20.4552 36.6805 20.313ZM40.0259 21.9807C40.0666 21.2007 40.2595 21.5155 40.028 22.0924L40.0259 21.9807ZM36.9689 20.0408C37.1273 19.8072 36.5464 18.9887 37.0522 19.7463C37.2716 19.919 37.6839 20.0368 37.3183 20.1099C37.8951 20.6177 37.1801 20.248 36.9689 20.0408ZM39.8614 21.7369C39.9569 22.2569 39.9711 20.8493 39.8614 21.7369V21.7369ZM36.6378 19.2222C36.7028 19.3827 36.7597 19.1694 36.6378 19.2222V19.2222ZM37.3914 19.6712C37.5864 19.2629 37.7509 20.1241 37.3914 19.6712V19.6712ZM39.5181 20.8533C39.5181 20.6969 39.5587 21.0808 39.5181 20.8533V20.8533ZM39.3962 20.5812C39.1017 19.8519 39.6705 20.9671 39.3962 20.5812V20.5812ZM39.2155 20.1038C39.1647 19.8032 39.3841 20.4816 39.2155 20.1038V20.1038ZM39.51 19.6244C39.3069 19.2669 39.7659 18.0502 39.8167 18.8058C39.6034 19.3929 39.7558 19.7219 39.9041 18.9338C40.1803 18.3122 39.8451 20.1566 39.51 19.6244ZM39.8126 17.8146C39.833 17.9466 39.902 17.7069 39.8126 17.8146V17.8146ZM39.3069 27.7921C39.187 27.6865 39.3211 27.8591 39.3069 27.7921V27.7921ZM40.3489 28.3202C40.9298 28.4705 40.9258 28.2308 40.4017 28.1597C40.1194 27.8977 39.2297 27.6194 40.0259 28.1272C40.0808 28.2593 40.2473 28.2552 40.3489 28.3202ZM38.2892 26.9512C38.6081 27.1908 39.4937 27.6255 38.7442 27.0426C38.9961 26.7501 38.2608 26.5937 38.5045 26.3966C37.883 26.0168 38.015 26.0513 38.4497 26.0635C37.7042 25.7304 38.5573 25.7547 38.5167 25.5841C38.2283 25.5272 37.0887 25.0763 37.7591 25.6207C37.0766 25.2733 37.5966 25.7507 37.3894 25.6999C36.6906 25.509 38.0109 26.2321 37.2797 26.0513C37.6798 26.3682 38.3562 26.8638 37.4483 26.3865C37.3325 26.5591 38.1003 26.8212 38.2892 26.9512ZM39.38 27.5788C38.73 27.0547 40.7064 28.0054 39.38 27.5788V27.5788ZM44.9659 30.9608C44.7831 31.1863 44.9822 30.6968 44.9659 30.9608V30.9608ZM45.5387 31.2026C45.8455 30.906 45.5509 31.6758 46.0466 31.1294C46.0526 30.7394 46.0323 30.5079 45.4778 30.9832C45.3255 31.0685 45.2564 31.428 45.5387 31.2026ZM36.4286 25.4805C35.7684 25.1129 36.3331 25.1108 36.4286 25.4805V25.4805ZM37.04 25.8827C36.2275 25.5415 36.8125 25.5049 37.04 25.8827V25.8827ZM40.5276 27.9851C40.8689 28.2877 42.0917 28.2065 40.94 28.0216C40.7714 27.7697 39.8594 27.8307 40.5276 27.9851ZM45.3214 30.9446C44.8136 31.1416 45.8434 30.5058 45.3214 30.9446V30.9446ZM46.4101 31.6941C46.1847 31.7551 46.4142 31.554 46.4101 31.6941V31.6941ZM46.4122 31.4971C45.8495 31.5337 46.9931 30.8816 46.4122 31.4971V31.4971ZM34.9194 24.2191C34.4258 23.5143 34.6126 23.1974 34.1353 22.6205C34.0439 22.1797 33.3167 21.1804 33.7595 22.2387C34.1637 22.8582 34.2836 23.8169 34.9194 24.2191ZM46.2294 31.3021C45.7926 31.0015 47.2978 30.6115 46.2294 31.3021V31.3021ZM47.0439 31.621C46.7067 31.5255 47.5801 31.1619 47.0439 31.621V31.621ZM36.2458 24.7005C35.8517 24.6721 36.4001 24.473 36.2458 24.7005V24.7005ZM46.8753 31.4016C47.3933 31.0685 46.7555 31.1193 46.7819 31.4321L46.8753 31.4016ZM39.8512 26.9755C39.577 26.9938 39.833 26.7501 39.8512 26.9755V26.9755ZM40.2859 27.2254C40.0726 27.268 40.1458 26.9451 40.2859 27.2254V27.2254ZM47.7061 31.6271C48.3703 31.1477 47.3039 31.5357 47.568 31.7185L47.7061 31.6271ZM47.4501 31.5052C46.8814 31.7063 47.9925 31.0522 47.4501 31.5052V31.5052ZM48.7481 32.3685C48.3073 32.2913 49.1117 32.1268 48.7481 32.3685V32.3685ZM36.5789 24.536C37.0644 24.6457 38.5208 25.7324 37.6616 24.6112C37.2208 24.4812 37.4848 23.4046 37.0359 23.5955C37.3366 24.0993 37.2837 24.3126 36.65 23.9957C35.8558 23.6077 36.2031 24.1866 36.3595 24.3471C36.1483 24.3979 36.6419 24.5319 36.5789 24.536ZM34.3648 22.7871C34.4522 22.4276 33.5625 20.8066 33.9444 21.9746C34.0825 22.2204 34.0683 22.6835 34.3648 22.7871ZM38.4294 25.2937C38.1795 25.0844 38.4172 25.2632 38.4294 25.2937V25.2937ZM39.0448 25.4379C38.3644 25.2815 39.0448 25.056 39.0448 25.4379V25.4379ZM44.387 28.8037C43.9848 28.7996 44.2855 28.5437 44.387 28.8037V28.8037ZM44.643 28.9926C44.4967 29.021 44.6064 28.8463 44.643 28.9926V28.9926ZM46.7616 30.3251C46.5076 30.3068 46.9647 30.1747 46.7616 30.3251V30.3251ZM35.4698 23.0694C34.8462 22.909 36.0528 22.844 35.4698 23.0694V23.0694ZM43.9178 28.3913C43.5461 28.4847 43.9097 28.0135 43.9178 28.3913V28.3913ZM35.2403 22.5332C34.893 22.4499 35.6141 22.4072 35.2403 22.5332V22.5332ZM36.325 23.0593C36.2112 23.106 36.3189 22.9354 36.325 23.0593V23.0593ZM49.5728 31.1822C50.0542 31.0847 51.1511 31.428 51.3278 31.0543C50.7428 31.0401 49.3067 30.6419 49.2397 31.1477L49.3676 31.168L49.5728 31.1822ZM36.6703 23.1466C36.3737 23.1324 36.6805 22.7647 36.6703 23.1466V23.1466ZM33.8164 21.1662C33.3228 21.0565 33.6864 20.439 33.8164 21.1662V21.1662ZM34.4969 21.3368C33.8733 21.1276 34.505 21.1032 34.4969 21.3368V21.3368ZM34.8848 21.5277C34.7731 21.4383 34.7975 21.6435 34.8848 21.5277V21.5277ZM37.3345 23.0979C37.0603 23.0207 37.4503 22.9922 37.3345 23.0979V23.0979ZM34.6269 21.0971C33.8387 21.0158 34.5598 20.5466 34.6269 21.0971V21.0971ZM33.2314 20.1912C33.0953 20.2866 33.2111 19.9372 33.2314 20.1912V20.1912ZM33.4386 20.0347C33.2598 20.0733 33.4041 19.7341 33.4386 20.0347V20.0347ZM34.5862 20.7193C35.0717 20.5283 33.7026 20.3252 34.4867 20.6827L34.5862 20.7193ZM49.9405 30.2032C49.5464 30.1158 50.2512 29.9188 49.9405 30.2032V30.2032ZM51.795 31.166C51.4822 31.2127 51.9189 30.7983 51.795 31.166V31.166ZM34.702 20.118C34.3181 20.1891 34.7548 19.7626 34.702 20.118V20.118ZM33.0709 19.0252C32.9836 18.5235 32.9958 17.6399 33.8347 17.9385C32.7155 18.1619 34.6106 19.3299 34.3709 18.4077C34.8422 18.4301 35.2911 18.1294 35.0453 18.5865C35.9736 18.4849 36.6155 17.6805 37.5112 17.7922C38.21 17.6988 38.9717 17.6297 39.7233 17.3494C40.3408 17.3047 40.9359 16.6385 40.5987 16.2444C39.7558 16.1733 38.8722 16.279 37.9419 16.4638C36.91 16.6791 35.9716 17.0854 34.9295 17.2621C33.9139 17.3982 35.1326 17.6379 34.8422 17.6907C34.312 17.8735 35.4739 17.9994 34.7731 18.1924C34.3405 18.1091 33.8895 17.9608 34.0744 17.5058C33.1014 17.6318 32.2462 18.036 33.0161 19.0252H33.0709ZM35.415 17.8308C35.6425 16.9899 36.6358 18.5215 35.7887 17.9426C35.6872 17.8654 35.5206 17.8044 35.415 17.8308ZM35.4597 17.4226C35.6344 17.5607 35.7887 17.1788 35.4597 17.4226V17.4226ZM35.8781 17.4307C35.9086 17.0447 36.8348 17.6358 36.0305 17.5688L35.8781 17.4307ZM36.4489 17.1991C36.5098 17.4165 36.6581 16.9554 36.4489 17.1991V17.1991ZM36.5951 17.1016C36.9425 16.6832 38.5634 16.8355 37.3772 17.061C37.0603 16.8213 36.8166 17.2032 36.5951 17.1016ZM38.7117 16.7766C38.6589 15.6351 39.7639 17.1808 38.7117 16.7766V16.7766ZM39.313 16.7726C39.5323 16.1977 40.1661 16.541 39.4145 16.6568C39.4308 16.7177 39.3922 16.9533 39.313 16.7726ZM34.4664 19.8235C33.7697 19.4741 35.1225 19.4213 34.4664 19.8235V19.8235ZM34.9519 19.9576C34.4522 19.858 35.1814 19.7138 34.9519 19.9576V19.9576ZM33.5219 18.944C33.0791 18.8343 33.8976 18.6555 33.5219 18.944V18.944ZM52.8898 31.0604C52.6034 31.2107 52.9 30.7252 52.8898 31.0604V31.0604ZM50.9216 29.7177C50.6697 29.7502 50.9784 29.3318 50.9216 29.7177V29.7177ZM53.4322 31.1904C53.9562 31.1924 55.0206 31.0279 53.8791 31.0279C53.7003 31.0543 52.837 31.0502 53.4322 31.1904ZM35.3784 19.7219C35.803 19.6935 36.0426 19.2547 35.2951 19.2791C34.1394 19.1593 36.3148 19.6752 35.1469 19.5269C34.9905 19.6305 35.3683 19.7504 35.3784 19.7219ZM35.7522 19.9108C35.6201 20.0551 35.7075 19.6387 35.7522 19.9108V19.9108ZM36.195 18.7287C35.9391 18.6677 36.3778 18.5012 36.195 18.7287V18.7287ZM34.7833 16.3724C35.5409 16.1144 36.5748 15.826 36.9323 16.4983C36.5687 16.0616 36.7861 15.629 37.1294 16.2708C37.6148 16.9188 37.8586 15.9763 37.5417 15.759C37.9012 16.2058 38.3116 16.4171 37.7834 15.7874C38.3583 15.0968 36.6337 15.8788 36.2417 15.8707C36.0548 15.954 34.2958 16.3176 34.7833 16.3724ZM35.2281 15.5233C35.6608 15.1983 36.7211 15.7183 36.0406 15.2004C35.9736 15.1394 34.5476 15.5924 35.2281 15.5233ZM36.8023 15.5883C37.3081 15.6005 36.585 14.9099 37.1862 15.2227C37.0867 14.8997 36.4855 14.8388 36.1909 14.7108C36.0244 15.0054 36.5281 15.5924 36.8023 15.5883ZM35.5044 14.1583C35.1976 14.2802 35.6791 13.9227 35.5044 14.1583V14.1583ZM36.1462 14.3127C36.9608 14.2051 35.9391 13.9633 35.9817 14.3046L36.1462 14.3127ZM34.9458 13.3743C34.373 12.6247 36.0244 13.5002 35.4414 12.7162C34.9519 12.3262 34.4806 13.1549 34.9458 13.3743ZM42.3009 17.3352C42.563 16.8701 41.2162 16.7076 42.1242 17.1707C42.2095 17.1991 42.1892 17.3677 42.3009 17.3352Z" fill="white"/>
<path d="M65.876 28C65.652 28 65.47 27.9347 65.33 27.804C65.1993 27.664 65.134 27.4913 65.134 27.286V18.914C65.134 18.7087 65.204 18.5407 65.344 18.41C65.484 18.27 65.652 18.2 65.848 18.2H70.58C70.7853 18.2 70.9533 18.2653 71.084 18.396C71.224 18.5267 71.294 18.69 71.294 18.886C71.294 19.0633 71.224 19.2173 71.084 19.348C70.9533 19.4787 70.7853 19.544 70.58 19.544H66.492L66.59 19.404V22.526L66.506 22.358H69.95C70.1553 22.358 70.3233 22.4233 70.454 22.554C70.594 22.6847 70.664 22.848 70.664 23.044C70.664 23.2213 70.594 23.3753 70.454 23.506C70.3233 23.6367 70.1553 23.702 69.95 23.702H66.478L66.59 23.59V27.286C66.59 27.4913 66.52 27.664 66.38 27.804C66.24 27.9347 66.072 28 65.876 28ZM74.3807 27.286C74.3807 27.4913 74.3107 27.664 74.1707 27.804C74.04 27.9347 73.8767 28 73.6807 28C73.4847 28 73.3167 27.9347 73.1767 27.804C73.046 27.664 72.9807 27.4913 72.9807 27.286V18.354C72.9807 18.1487 73.0507 17.9807 73.1907 17.85C73.3307 17.71 73.4987 17.64 73.6947 17.64C73.9 17.64 74.0633 17.71 74.1847 17.85C74.3153 17.9807 74.3807 18.1487 74.3807 18.354V27.286ZM82.4984 20.524C82.7037 20.524 82.8717 20.594 83.0024 20.734C83.133 20.8647 83.1984 21.0327 83.1984 21.238V27.286C83.1984 27.4913 83.133 27.664 83.0024 27.804C82.8717 27.9347 82.7037 28 82.4984 28C82.3024 28 82.1344 27.9347 81.9944 27.804C81.8637 27.664 81.7984 27.4913 81.7984 27.286V26.278L82.0924 26.32C82.0924 26.488 82.0224 26.6747 81.8824 26.88C81.7517 27.0853 81.5697 27.286 81.3364 27.482C81.103 27.6687 80.8277 27.8273 80.5104 27.958C80.193 28.0793 79.8524 28.14 79.4884 28.14C78.8444 28.14 78.2657 27.9767 77.7524 27.65C77.239 27.314 76.833 26.8567 76.5344 26.278C76.2357 25.6993 76.0864 25.0413 76.0864 24.304C76.0864 23.548 76.2357 22.8853 76.5344 22.316C76.833 21.7373 77.2344 21.2847 77.7384 20.958C78.2517 20.6313 78.821 20.468 79.4464 20.468C79.8477 20.468 80.2164 20.5333 80.5524 20.664C80.8977 20.7947 81.1964 20.9627 81.4484 21.168C81.7004 21.3733 81.8917 21.5927 82.0224 21.826C82.1624 22.05 82.2324 22.2647 82.2324 22.47L81.7984 22.512V21.238C81.7984 21.042 81.8637 20.874 81.9944 20.734C82.1344 20.594 82.3024 20.524 82.4984 20.524ZM79.6424 26.852C80.081 26.852 80.4684 26.74 80.8044 26.516C81.1404 26.292 81.4017 25.9887 81.5884 25.606C81.775 25.214 81.8684 24.78 81.8684 24.304C81.8684 23.8187 81.775 23.3847 81.5884 23.002C81.4017 22.6193 81.1404 22.316 80.8044 22.092C80.4684 21.868 80.081 21.756 79.6424 21.756C79.213 21.756 78.8304 21.868 78.4944 22.092C78.1677 22.316 77.9064 22.6193 77.7104 23.002C77.5237 23.3847 77.4304 23.8187 77.4304 24.304C77.4304 24.78 77.5237 25.214 77.7104 25.606C77.9064 25.9887 78.1677 26.292 78.4944 26.516C78.8304 26.74 79.213 26.852 79.6424 26.852ZM84.7257 26.852C84.6417 26.7213 84.6044 26.572 84.6137 26.404C84.623 26.2267 84.721 26.0773 84.9077 25.956C85.0384 25.872 85.1737 25.8393 85.3137 25.858C85.463 25.8673 85.603 25.9373 85.7337 26.068C85.995 26.3573 86.2844 26.586 86.6017 26.754C86.9284 26.922 87.3204 27.006 87.7777 27.006C87.9644 26.9967 88.1557 26.9687 88.3517 26.922C88.5477 26.866 88.7157 26.7727 88.8557 26.642C88.9957 26.502 89.0657 26.3013 89.0657 26.04C89.0657 25.8067 88.991 25.62 88.8417 25.48C88.6924 25.34 88.4964 25.228 88.2537 25.144C88.011 25.0507 87.7497 24.9667 87.4697 24.892C87.171 24.808 86.8677 24.7147 86.5597 24.612C86.261 24.5093 85.9904 24.3787 85.7477 24.22C85.505 24.052 85.3044 23.8373 85.1457 23.576C84.9964 23.3147 84.9217 22.9927 84.9217 22.61C84.9217 22.1713 85.043 21.7933 85.2857 21.476C85.5377 21.1587 85.8597 20.9113 86.2517 20.734C86.653 20.5567 87.087 20.468 87.5537 20.468C87.8244 20.468 88.109 20.5053 88.4077 20.58C88.7064 20.6453 88.9957 20.7527 89.2757 20.902C89.5557 21.0513 89.7984 21.2473 90.0037 21.49C90.097 21.6113 90.1484 21.756 90.1577 21.924C90.1764 22.092 90.1017 22.2413 89.9337 22.372C89.8217 22.4653 89.6864 22.5073 89.5277 22.498C89.369 22.4887 89.2384 22.4373 89.1357 22.344C88.9584 22.12 88.7297 21.9473 88.4497 21.826C88.1697 21.6953 87.8524 21.63 87.4977 21.63C87.3204 21.63 87.1337 21.658 86.9377 21.714C86.751 21.7607 86.5924 21.8493 86.4617 21.98C86.331 22.1107 86.2657 22.302 86.2657 22.554C86.2657 22.7873 86.3404 22.974 86.4897 23.114C86.6484 23.254 86.8537 23.3707 87.1057 23.464C87.3577 23.5573 87.633 23.6413 87.9317 23.716C88.221 23.7907 88.5057 23.8793 88.7857 23.982C89.075 24.0847 89.3317 24.22 89.5557 24.388C89.789 24.5467 89.9757 24.7567 90.1157 25.018C90.265 25.27 90.3397 25.592 90.3397 25.984C90.3397 26.4413 90.2044 26.8333 89.9337 27.16C89.6724 27.4773 89.3364 27.72 88.9257 27.888C88.5244 28.056 88.0997 28.14 87.6517 28.14C87.1197 28.14 86.5877 28.0467 86.0557 27.86C85.533 27.664 85.0897 27.328 84.7257 26.852ZM92.6572 28C92.4612 28 92.2932 27.9347 92.1532 27.804C92.0226 27.664 91.9572 27.4913 91.9572 27.286V18.354C91.9572 18.1487 92.0226 17.9807 92.1532 17.85C92.2932 17.71 92.4612 17.64 92.6572 17.64C92.8626 17.64 93.0306 17.71 93.1612 17.85C93.2919 17.9807 93.3572 18.1487 93.3572 18.354V27.286C93.3572 27.4913 93.2919 27.664 93.1612 27.804C93.0306 27.9347 92.8626 28 92.6572 28ZM97.2212 20.608C97.3986 20.608 97.5526 20.6827 97.6832 20.832C97.8139 20.9813 97.8792 21.1307 97.8792 21.28C97.8792 21.4667 97.7906 21.6393 97.6132 21.798L93.2312 25.718L93.1752 24.108L96.7032 20.832C96.8526 20.6827 97.0252 20.608 97.2212 20.608ZM97.3892 27.986C97.1932 27.986 97.0252 27.9067 96.8852 27.748L94.0852 24.794L95.1492 23.814L97.8792 26.768C98.0286 26.9267 98.1032 27.104 98.1032 27.3C98.1032 27.5053 98.0192 27.6733 97.8512 27.804C97.6926 27.9253 97.5386 27.986 97.3892 27.986Z" fill="white"/>
<defs>
<linearGradient id="paint0_linear_1428_3542" x1="0" y1="23" x2="129" y2="23" gradientUnits="userSpaceOnUse">
<stop stop-color="#2B3631"/>
<stop offset="1" stop-color="#496A56"/>
</linearGradient>
</defs>
</svg>
