<svg width="281" height="44" viewBox="0 0 281 44" fill="none" xmlns="http://www.w3.org/2000/svg">
<rect width="281" height="44" rx="22" fill="url(#paint0_linear_1428_3508)" fill-opacity="0.76"/>
<g clip-path="url(#clip0_1428_3508)">
<path d="M55.8228 29.1637C56.0293 29.7543 55.9797 30.3833 55.7044 30.9302C55.5062 31.3294 55.2226 31.6384 54.8757 31.9146C54.4572 32.2427 53.9368 32.5216 53.3092 32.7896C52.5603 33.1069 51.6462 33.4049 51.2278 33.5143C50.1568 33.7905 49.1271 33.9655 48.0836 33.9737C46.5914 33.9874 45.3057 33.6374 44.3916 32.7431C43.9181 32.8006 43.439 32.8334 42.9573 32.8334C42.5002 32.8334 42.0487 32.8061 41.6 32.7514C40.6831 33.6401 39.4029 33.9874 37.9162 33.9737C36.8727 33.9655 35.843 33.7905 34.7693 33.5143C34.3536 33.4049 33.4395 33.1069 32.6907 32.7896C32.063 32.5216 31.5426 32.2427 31.1269 31.9146C30.7772 31.6384 30.4937 31.3294 30.2954 30.9302C30.0229 30.3833 29.9706 29.7543 30.1798 29.1637C29.9871 28.7124 29.9375 28.1956 30.0889 27.6241C30.1578 27.3643 30.2706 27.1237 30.4138 26.9104C30.3835 26.7983 30.3587 26.6834 30.3422 26.5576C30.2376 25.8084 30.4992 25.1247 30.992 24.5942C31.2343 24.329 31.4958 24.1457 31.7684 24.0282C31.5674 23.1805 31.4628 22.3082 31.4628 21.4167C31.4628 15.1109 36.6084 10 42.9573 10C45.1378 10 47.1778 10.6016 48.9179 11.6517C49.2317 11.8431 49.54 12.0482 49.8347 12.2669C49.9806 12.3763 50.1265 12.4884 50.2669 12.606C50.4101 12.7209 50.5505 12.8412 50.6854 12.9642C51.0929 13.3334 51.4755 13.7299 51.8252 14.1538C51.9436 14.2932 52.0565 14.4382 52.1666 14.5858C52.3896 14.8784 52.5961 15.182 52.786 15.4964C53.0751 15.9668 53.3284 16.459 53.5487 16.9703C53.6946 17.3122 53.8213 17.6622 53.9341 18.0204C54.1021 18.5564 54.2315 19.1088 54.3196 19.6775C54.3471 19.8662 54.3719 20.0576 54.3911 20.249C54.4297 20.6319 54.4517 21.0202 54.4517 21.4167C54.4517 22.2972 54.3471 23.1613 54.1516 23.9954C54.4545 24.1129 54.7408 24.3044 55.0078 24.5942C55.5006 25.1247 55.7622 25.8111 55.6576 26.5604C55.6411 26.6834 55.6163 26.7983 55.586 26.9104C55.7292 27.1237 55.8421 27.3643 55.9109 27.6241C56.0623 28.1956 56.0127 28.7124 55.8228 29.1637Z" fill="white"/>
<path d="M52.5595 21.4951C52.5595 16.2643 48.2795 12.0238 42.9998 12.0238C37.7202 12.0238 33.4402 16.2643 33.4402 21.4951C33.4402 26.726 37.7202 30.9665 42.9998 30.9665C48.2795 30.9665 52.5595 26.726 52.5595 21.4951ZM32.3398 21.4951C32.3398 15.6622 37.1125 10.9336 42.9998 10.9336C48.8872 10.9336 53.6598 15.6622 53.6598 21.4951C53.6598 27.3281 48.8872 32.0567 42.9998 32.0567C37.1125 32.0567 32.3398 27.3281 32.3398 21.4951Z" fill="black"/>
<path d="M42.9999 31.0184C48.3129 31.0184 52.6199 26.754 52.6199 21.4936C52.6199 16.2332 48.3129 11.9688 42.9999 11.9688C37.6869 11.9688 33.3799 16.2332 33.3799 21.4936C33.3799 26.754 37.6869 31.0184 42.9999 31.0184Z" fill="white"/>
<path d="M40.5139 30.9504C41.2726 29.8589 41.2189 29.0398 40.1778 28.0192C39.1368 26.9989 38.5308 25.5061 38.5308 25.5061C38.5308 25.5061 38.3045 24.6391 37.7889 24.7189C37.2734 24.7986 36.8948 26.0943 37.9747 26.8869C39.0546 27.6793 37.7597 28.2177 37.3442 27.4735C36.9287 26.7292 35.7942 24.816 35.2059 24.45C34.6178 24.0841 34.2037 24.2891 34.3424 25.0434C34.4811 25.7976 36.9406 27.6257 36.7012 28.0213C36.4619 28.4167 35.6186 27.5565 35.6186 27.5565C35.6186 27.5565 32.9796 25.2008 32.405 25.8146C31.8305 26.4285 32.8409 26.9429 34.2809 27.798C35.7212 28.6528 35.8328 28.8786 35.6285 29.202C35.4239 29.5255 32.2451 26.8966 31.9466 28.0111C31.6483 29.1255 35.1907 29.4489 34.9721 30.2183C34.7534 30.9879 32.4767 28.7621 32.0111 29.6293C31.5451 30.4969 35.2238 31.5161 35.2536 31.5237C36.4418 31.826 39.4596 32.4667 40.5139 30.9504Z" fill="white"/>
<path d="M34.7315 23.2188C34.2885 23.2188 33.8925 23.399 33.6164 23.7259C33.4457 23.9284 33.2673 24.2547 33.2528 24.7434C33.067 24.6906 32.8883 24.661 32.7214 24.661C32.2973 24.661 31.9142 24.822 31.6433 25.1145C31.2953 25.4899 31.1407 25.9513 31.208 26.4129C31.24 26.6327 31.3142 26.8298 31.425 27.0122C31.1913 27.1995 31.0192 27.4603 30.936 27.7739C30.8709 28.0197 30.8042 28.5318 31.1527 29.0593C31.1306 29.0937 31.1098 29.1294 31.0904 29.166C30.8808 29.5601 30.8674 30.0055 31.0523 30.4202C31.3328 31.0488 32.0297 31.544 33.383 32.0756C34.225 32.4062 34.9952 32.6177 35.0021 32.6195C36.1151 32.9055 37.1218 33.0508 37.9933 33.0508C39.5951 33.0508 40.7418 32.5648 41.4018 31.6064C42.464 30.0629 42.3121 28.6513 40.9378 27.2906C40.1771 26.5376 39.6714 25.4273 39.5661 25.1836C39.3538 24.4621 38.7923 23.66 37.859 23.66H37.8587C37.7801 23.66 37.7008 23.6662 37.6226 23.6785C37.2137 23.7421 36.8564 23.9753 36.6011 24.326C36.3256 23.9866 36.058 23.7167 35.8158 23.5643C35.4508 23.335 35.0861 23.2188 34.7315 23.2188ZM34.7315 24.303C34.871 24.303 35.0415 24.3618 35.2294 24.48C35.8131 24.8467 36.9393 26.7645 37.3517 27.5104C37.4898 27.7603 37.726 27.866 37.9386 27.866C38.3605 27.866 38.6899 27.4505 37.9772 26.9225C36.9054 26.128 37.2813 24.8294 37.793 24.7494C37.8154 24.7459 37.8376 24.7443 37.859 24.7443C38.3241 24.7443 38.5293 25.5385 38.5293 25.5385C38.5293 25.5385 39.1307 27.0347 40.164 28.0574C41.1972 29.0803 41.2505 29.9014 40.4975 30.9954C39.9839 31.7413 39.0008 31.8386 37.9933 31.8386C36.9483 31.8386 35.8753 31.6562 35.2749 31.5019C35.2454 31.4943 31.5963 30.5408 32.0587 29.6713C32.1364 29.5252 32.2645 29.4666 32.4256 29.4666C33.0769 29.4666 34.2614 30.4267 34.7706 30.4267C34.8844 30.4267 34.9692 30.3395 35.0021 30.2224C35.2286 29.4143 31.6983 29.1663 31.9947 28.0493C32.0469 27.8517 32.1887 27.7714 32.3879 27.7717C33.2484 27.7717 35.1791 29.2709 35.5838 29.2709C35.6147 29.2709 35.6368 29.262 35.6489 29.243C35.8517 28.9188 35.7583 28.6549 34.3292 27.7981C32.9 26.941 31.8792 26.4631 32.4497 25.8478C32.5154 25.7767 32.6084 25.7453 32.7214 25.7453C33.5891 25.7455 35.639 27.5936 35.639 27.5936C35.639 27.5936 36.1923 28.1636 36.527 28.1636C36.6038 28.1636 36.6693 28.1336 36.7136 28.0593C36.9508 27.663 34.5101 25.8307 34.3725 25.0747C34.2792 24.5624 34.4379 24.303 34.7315 24.303Z" fill="black"/>
<path d="M45.4386 30.9504C44.6799 29.8589 44.7337 29.0398 45.7747 28.0192C46.8157 26.9989 47.4218 25.5061 47.4218 25.5061C47.4218 25.5061 47.6481 24.6391 48.1636 24.7189C48.6792 24.7986 49.0577 26.0943 47.9778 26.8869C46.8979 27.6793 48.1929 28.2177 48.6083 27.4735C49.0238 26.7292 50.1583 24.816 50.7467 24.45C51.3348 24.0841 51.7488 24.2891 51.6101 25.0434C51.4715 25.7976 49.012 27.6257 49.2513 28.0213C49.4906 28.4167 50.334 27.5565 50.334 27.5565C50.334 27.5565 52.973 25.2008 53.5475 25.8146C54.1221 26.4285 53.1116 26.9429 51.6717 27.798C50.2314 28.6528 50.1197 28.8786 50.324 29.202C50.5286 29.5255 53.7074 26.8966 54.006 28.0111C54.3043 29.1255 50.7618 29.4489 50.9805 30.2183C51.1991 30.9879 53.4758 28.7621 53.9415 29.6293C54.4074 30.4969 50.7287 31.5161 50.6989 31.5237C49.5107 31.826 46.4929 32.4667 45.4386 30.9504Z" fill="white"/>
<path d="M51.2211 23.2188C51.6641 23.2188 52.0601 23.399 52.3361 23.7259C52.5069 23.9284 52.6853 24.2547 52.6998 24.7434C52.8856 24.6906 53.0642 24.661 53.2312 24.661C53.6553 24.661 54.0384 24.822 54.3092 25.1145C54.6573 25.4899 54.8119 25.9513 54.7446 26.4129C54.7126 26.6327 54.6384 26.8298 54.5276 27.0122C54.7613 27.1995 54.9334 27.4603 55.0166 27.7739C55.0817 28.0197 55.1484 28.5318 54.7998 29.0593C54.822 29.0937 54.8428 29.1294 54.8622 29.166C55.0719 29.5601 55.0852 30.0055 54.9003 30.4202C54.6198 31.0488 53.9229 31.544 52.5696 32.0756C51.7276 32.4062 50.9574 32.6177 50.9505 32.6195C49.8374 32.9055 48.8308 33.0508 47.9593 33.0508C46.3575 33.0508 45.2107 32.5648 44.5508 31.6064C43.4886 30.0629 43.6404 28.6513 45.0148 27.2906C45.7755 26.5376 46.2811 25.4273 46.3865 25.1836C46.5988 24.4621 47.1603 23.66 48.0937 23.66H48.0939C48.1724 23.66 48.2518 23.6662 48.3301 23.6785C48.7388 23.7421 49.0962 23.9753 49.3515 24.326C49.627 23.9866 49.8946 23.7167 50.1368 23.5643C50.5018 23.335 50.8665 23.2188 51.2211 23.2188ZM51.2211 24.303C51.0816 24.303 50.9111 24.3618 50.7231 24.48C50.1395 24.8467 49.0133 26.7645 48.6009 27.5104C48.4628 27.7603 48.2266 27.866 48.014 27.866C47.5921 27.866 47.2626 27.4505 47.9754 26.9225C49.0472 26.128 48.6713 24.8294 48.1596 24.7494C48.1371 24.7459 48.115 24.7443 48.0937 24.7443C47.6285 24.7443 47.4233 25.5385 47.4233 25.5385C47.4233 25.5385 46.8218 27.0347 45.7887 28.0574C44.7554 29.0803 44.7021 29.9014 45.4551 30.9954C45.9687 31.7413 46.9518 31.8386 47.9593 31.8386C49.0042 31.8386 50.0773 31.6562 50.6776 31.5019C50.7072 31.4943 54.3563 30.5408 53.8939 29.6713C53.8162 29.5252 53.6881 29.4666 53.5269 29.4666C52.8757 29.4666 51.6912 30.4267 51.182 30.4267C51.0682 30.4267 50.9834 30.3395 50.9505 30.2224C50.7239 29.4143 54.2543 29.1663 53.9579 28.0493C53.9056 27.8517 53.7639 27.7714 53.5647 27.7717C52.7042 27.7717 50.7735 29.2709 50.3688 29.2709C50.3379 29.2709 50.3157 29.262 50.3037 29.243C50.1009 28.9188 50.1943 28.6549 51.6234 27.7981C53.0526 26.941 54.0734 26.4631 53.5029 25.8478C53.4372 25.7767 53.3442 25.7453 53.2312 25.7453C52.3635 25.7455 50.3135 27.5936 50.3135 27.5936C50.3135 27.5936 49.7603 28.1636 49.4256 28.1636C49.3487 28.1636 49.2834 28.1336 49.239 28.0593C49.0018 27.663 51.4425 25.8307 51.5802 25.0747C51.6734 24.5624 51.5147 24.303 51.2211 24.303Z" fill="black"/>
<path d="M46.6023 21.8662C46.6023 20.6395 45.0063 22.5091 43.033 22.5175C41.0599 22.5092 39.4639 20.6396 39.4639 21.8662C39.4639 22.6795 39.8542 24.0023 40.9027 24.8048C41.1113 24.0892 42.2576 23.516 42.4215 23.5983C42.6548 23.7155 42.6417 24.0403 43.033 24.3265C43.4243 24.0403 43.4112 23.7156 43.6446 23.5983C43.8085 23.516 44.9548 24.0892 45.1633 24.8048C46.2118 24.0023 46.6022 22.6795 46.6022 21.8663L46.6023 21.8662Z" fill="#0E1116"/>
<path d="M43.6452 23.5977C43.4119 23.7149 43.425 24.0397 43.0336 24.3259C42.6423 24.0397 42.6554 23.715 42.4221 23.5977C42.2581 23.5154 41.1119 24.0886 40.9033 24.8042C41.4334 25.2099 42.1318 25.4826 43.033 25.4893C43.0332 25.4893 43.0334 25.4893 43.0337 25.4893C43.034 25.4893 43.0342 25.4893 43.0345 25.4893C43.9356 25.4827 44.6341 25.2099 45.1641 24.8042C44.9556 24.0886 43.8092 23.5154 43.6454 23.5977H43.6452Z" fill="#FF323D"/>
<path d="M49.3957 20.1609C49.8839 20.1609 50.2797 19.7663 50.2797 19.2796C50.2797 18.793 49.8839 18.3984 49.3957 18.3984C48.9075 18.3984 48.5117 18.793 48.5117 19.2796C48.5117 19.7663 48.9075 20.1609 49.3957 20.1609Z" fill="black"/>
<path d="M36.6565 20.1609C37.1447 20.1609 37.5405 19.7663 37.5405 19.2796C37.5405 18.793 37.1447 18.3984 36.6565 18.3984C36.1682 18.3984 35.7725 18.793 35.7725 19.2796C35.7725 19.7663 36.1682 20.1609 36.6565 20.1609Z" fill="black"/>
<path d="M46.2787 18.8937C46.629 19.0167 46.7683 19.7326 47.1222 19.5456C47.7923 19.1913 48.0467 18.364 47.6904 17.6978C47.3341 17.0315 46.502 16.7786 45.8319 17.1329C45.1617 17.4871 44.9074 18.3143 45.2637 18.9806C45.4318 19.2951 45.9656 18.7838 46.2787 18.8937Z" fill="#0E1116"/>
<path d="M39.8052 18.8937C39.4549 19.0167 39.3156 19.7326 38.9618 19.5456C38.2916 19.1913 38.0372 18.364 38.3935 17.6978C38.7499 17.0315 39.5819 16.7786 40.252 17.1329C40.9222 17.4871 41.1765 18.3143 40.8202 18.9806C40.6521 19.2951 40.1183 18.7838 39.8052 18.8937Z" fill="#0E1116"/>
</g>
<path d="M65.89 17.2C66.0767 17.2 66.24 17.27 66.38 17.41C66.5293 17.5407 66.604 17.7087 66.604 17.914V26.286C66.5947 26.4913 66.5153 26.664 66.366 26.804C66.226 26.9347 66.058 27 65.862 27C65.6473 27 65.47 26.9347 65.33 26.804C65.1993 26.664 65.134 26.4913 65.134 26.286V17.914C65.134 17.7087 65.204 17.5407 65.344 17.41C65.484 17.27 65.666 17.2 65.89 17.2ZM72.204 17.2C72.428 17.2 72.6053 17.27 72.736 17.41C72.8667 17.5407 72.932 17.7087 72.932 17.914V26.286C72.932 26.4913 72.862 26.664 72.722 26.804C72.5913 26.9347 72.414 27 72.19 27C71.994 27 71.826 26.9347 71.686 26.804C71.546 26.664 71.476 26.4913 71.476 26.286V17.914C71.476 17.7087 71.546 17.5407 71.686 17.41C71.8353 17.27 72.008 17.2 72.204 17.2ZM65.834 21.372H72.218L72.204 22.716H65.82L65.834 21.372ZM80.5305 19.636C80.7265 19.636 80.8898 19.706 81.0205 19.846C81.1605 19.9767 81.2305 20.1447 81.2305 20.35V24.032C81.2305 25.0027 80.9598 25.7633 80.4185 26.314C79.8772 26.8553 79.1118 27.126 78.1225 27.126C77.1425 27.126 76.3818 26.8553 75.8405 26.314C75.3085 25.7633 75.0425 25.0027 75.0425 24.032V20.35C75.0425 20.1447 75.1078 19.9767 75.2385 19.846C75.3692 19.706 75.5372 19.636 75.7425 19.636C75.9385 19.636 76.1018 19.706 76.2325 19.846C76.3725 19.9767 76.4425 20.1447 76.4425 20.35V24.032C76.4425 24.6387 76.5825 25.0913 76.8625 25.39C77.1518 25.6887 77.5718 25.838 78.1225 25.838C78.6825 25.838 79.1072 25.6887 79.3965 25.39C79.6858 25.0913 79.8305 24.6387 79.8305 24.032V20.35C79.8305 20.1447 79.8958 19.9767 80.0265 19.846C80.1572 19.706 80.3252 19.636 80.5305 19.636ZM86.1065 19.468C86.5079 19.468 86.8765 19.5333 87.2125 19.664C87.5485 19.7947 87.8379 19.9627 88.0805 20.168C88.3325 20.364 88.5285 20.5693 88.6685 20.784C88.8085 20.9987 88.8785 21.1853 88.8785 21.344L88.5565 21.358V20.238C88.5565 20.042 88.6219 19.874 88.7525 19.734C88.8832 19.594 89.0512 19.524 89.2565 19.524C89.4619 19.524 89.6299 19.594 89.7605 19.734C89.8912 19.8647 89.9565 20.0327 89.9565 20.238V26.412C89.9565 27.2053 89.7885 27.8493 89.4525 28.344C89.1165 28.848 88.6685 29.2167 88.1085 29.45C87.5579 29.6833 86.9512 29.8 86.2885 29.8C86.0552 29.8 85.7799 29.7673 85.4625 29.702C85.1452 29.646 84.8512 29.576 84.5805 29.492C84.3192 29.408 84.1372 29.324 84.0345 29.24C83.8199 29.128 83.6752 28.9973 83.6005 28.848C83.5352 28.6987 83.5352 28.5493 83.6005 28.4C83.6939 28.1947 83.8199 28.0687 83.9785 28.022C84.1372 27.9753 84.3192 27.9893 84.5245 28.064C84.6179 28.092 84.7625 28.1433 84.9585 28.218C85.1545 28.2927 85.3739 28.358 85.6165 28.414C85.8592 28.4793 86.0879 28.512 86.3025 28.512C87.0492 28.512 87.6092 28.3393 87.9825 27.994C88.3652 27.6487 88.5565 27.1773 88.5565 26.58V25.32L88.7105 25.418C88.6825 25.614 88.5939 25.8147 88.4445 26.02C88.3045 26.216 88.1179 26.398 87.8845 26.566C87.6512 26.734 87.3805 26.874 87.0725 26.986C86.7739 27.0887 86.4659 27.14 86.1485 27.14C85.4859 27.14 84.8932 26.9767 84.3705 26.65C83.8479 26.314 83.4325 25.8613 83.1245 25.292C82.8165 24.7133 82.6625 24.0507 82.6625 23.304C82.6625 22.5573 82.8165 21.8993 83.1245 21.33C83.4325 20.7513 83.8432 20.2987 84.3565 19.972C84.8792 19.636 85.4625 19.468 86.1065 19.468ZM86.3165 20.756C85.8592 20.756 85.4579 20.868 85.1125 21.092C84.7672 21.316 84.4965 21.6193 84.3005 22.002C84.1045 22.3847 84.0065 22.8187 84.0065 23.304C84.0065 23.7893 84.1045 24.2233 84.3005 24.606C84.4965 24.9887 84.7672 25.292 85.1125 25.516C85.4579 25.74 85.8592 25.852 86.3165 25.852C86.7739 25.852 87.1752 25.7447 87.5205 25.53C87.8659 25.306 88.1365 25.0027 88.3325 24.62C88.5285 24.228 88.6265 23.7893 88.6265 23.304C88.6265 22.8187 88.5285 22.3847 88.3325 22.002C88.1365 21.61 87.8659 21.3067 87.5205 21.092C87.1752 20.868 86.7739 20.756 86.3165 20.756ZM94.9659 19.468C95.3673 19.468 95.7359 19.5333 96.0719 19.664C96.4079 19.7947 96.6973 19.9627 96.9399 20.168C97.1919 20.364 97.3879 20.5693 97.5279 20.784C97.6679 20.9987 97.7379 21.1853 97.7379 21.344L97.4159 21.358V20.238C97.4159 20.042 97.4813 19.874 97.6119 19.734C97.7426 19.594 97.9106 19.524 98.1159 19.524C98.3213 19.524 98.4893 19.594 98.6199 19.734C98.7506 19.8647 98.8159 20.0327 98.8159 20.238V26.412C98.8159 27.2053 98.6479 27.8493 98.3119 28.344C97.9759 28.848 97.5279 29.2167 96.9679 29.45C96.4173 29.6833 95.8106 29.8 95.1479 29.8C94.9146 29.8 94.6393 29.7673 94.3219 29.702C94.0046 29.646 93.7106 29.576 93.4399 29.492C93.1786 29.408 92.9966 29.324 92.8939 29.24C92.6793 29.128 92.5346 28.9973 92.4599 28.848C92.3946 28.6987 92.3946 28.5493 92.4599 28.4C92.5533 28.1947 92.6793 28.0687 92.8379 28.022C92.9966 27.9753 93.1786 27.9893 93.3839 28.064C93.4773 28.092 93.6219 28.1433 93.8179 28.218C94.0139 28.2927 94.2333 28.358 94.4759 28.414C94.7186 28.4793 94.9473 28.512 95.1619 28.512C95.9086 28.512 96.4686 28.3393 96.8419 27.994C97.2246 27.6487 97.4159 27.1773 97.4159 26.58V25.32L97.5699 25.418C97.5419 25.614 97.4533 25.8147 97.3039 26.02C97.1639 26.216 96.9773 26.398 96.7439 26.566C96.5106 26.734 96.2399 26.874 95.9319 26.986C95.6333 27.0887 95.3253 27.14 95.0079 27.14C94.3453 27.14 93.7526 26.9767 93.2299 26.65C92.7073 26.314 92.2919 25.8613 91.9839 25.292C91.6759 24.7133 91.5219 24.0507 91.5219 23.304C91.5219 22.5573 91.6759 21.8993 91.9839 21.33C92.2919 20.7513 92.7026 20.2987 93.2159 19.972C93.7386 19.636 94.3219 19.468 94.9659 19.468ZM95.1759 20.756C94.7186 20.756 94.3173 20.868 93.9719 21.092C93.6266 21.316 93.3559 21.6193 93.1599 22.002C92.9639 22.3847 92.8659 22.8187 92.8659 23.304C92.8659 23.7893 92.9639 24.2233 93.1599 24.606C93.3559 24.9887 93.6266 25.292 93.9719 25.516C94.3173 25.74 94.7186 25.852 95.1759 25.852C95.6333 25.852 96.0346 25.7447 96.3799 25.53C96.7253 25.306 96.9959 25.0027 97.1919 24.62C97.3879 24.228 97.4859 23.7893 97.4859 23.304C97.4859 22.8187 97.3879 22.3847 97.1919 22.002C96.9959 21.61 96.7253 21.3067 96.3799 21.092C96.0346 20.868 95.6333 20.756 95.1759 20.756ZM102.075 26.286C102.075 26.4913 102.01 26.664 101.879 26.804C101.749 26.9347 101.581 27 101.375 27C101.179 27 101.011 26.9347 100.871 26.804C100.741 26.664 100.675 26.4913 100.675 26.286V20.294C100.675 20.0887 100.741 19.9207 100.871 19.79C101.011 19.65 101.179 19.58 101.375 19.58C101.581 19.58 101.749 19.65 101.879 19.79C102.01 19.9207 102.075 20.0887 102.075 20.294V26.286ZM101.361 18.656C101.091 18.656 100.895 18.6093 100.773 18.516C100.652 18.4133 100.591 18.2453 100.591 18.012V17.788C100.591 17.5547 100.657 17.3913 100.787 17.298C100.918 17.2047 101.114 17.158 101.375 17.158C101.655 17.158 101.856 17.2093 101.977 17.312C102.099 17.4053 102.159 17.564 102.159 17.788V18.012C102.159 18.2547 102.094 18.4227 101.963 18.516C101.842 18.6093 101.641 18.656 101.361 18.656ZM107.753 19.468C108.415 19.468 108.929 19.608 109.293 19.888C109.657 20.1587 109.909 20.5273 110.049 20.994C110.198 21.4513 110.273 21.9647 110.273 22.534V26.286C110.273 26.4913 110.203 26.664 110.063 26.804C109.932 26.9347 109.769 27 109.573 27C109.367 27 109.199 26.9347 109.069 26.804C108.938 26.664 108.873 26.4913 108.873 26.286V22.548C108.873 22.212 108.826 21.9133 108.733 21.652C108.639 21.3813 108.476 21.1667 108.243 21.008C108.019 20.84 107.701 20.756 107.291 20.756C106.908 20.756 106.572 20.84 106.283 21.008C105.993 21.1667 105.765 21.3813 105.597 21.652C105.438 21.9133 105.359 22.212 105.359 22.548V26.286C105.359 26.4913 105.289 26.664 105.149 26.804C105.018 26.9347 104.855 27 104.659 27C104.453 27 104.285 26.9347 104.155 26.804C104.024 26.664 103.959 26.4913 103.959 26.286V20.35C103.959 20.1447 104.024 19.9767 104.155 19.846C104.285 19.706 104.453 19.636 104.659 19.636C104.855 19.636 105.018 19.706 105.149 19.846C105.289 19.9767 105.359 20.1447 105.359 20.35V21.134L105.107 21.274C105.172 21.0687 105.284 20.8633 105.443 20.658C105.611 20.4433 105.811 20.2473 106.045 20.07C106.278 19.8833 106.539 19.7387 106.829 19.636C107.118 19.524 107.426 19.468 107.753 19.468ZM115.282 19.468C115.684 19.468 116.052 19.5333 116.388 19.664C116.724 19.7947 117.014 19.9627 117.256 20.168C117.508 20.364 117.704 20.5693 117.844 20.784C117.984 20.9987 118.054 21.1853 118.054 21.344L117.732 21.358V20.238C117.732 20.042 117.798 19.874 117.928 19.734C118.059 19.594 118.227 19.524 118.432 19.524C118.638 19.524 118.806 19.594 118.936 19.734C119.067 19.8647 119.132 20.0327 119.132 20.238V26.412C119.132 27.2053 118.964 27.8493 118.628 28.344C118.292 28.848 117.844 29.2167 117.284 29.45C116.734 29.6833 116.127 29.8 115.464 29.8C115.231 29.8 114.956 29.7673 114.638 29.702C114.321 29.646 114.027 29.576 113.756 29.492C113.495 29.408 113.313 29.324 113.21 29.24C112.996 29.128 112.851 28.9973 112.776 28.848C112.711 28.6987 112.711 28.5493 112.776 28.4C112.87 28.1947 112.996 28.0687 113.154 28.022C113.313 27.9753 113.495 27.9893 113.7 28.064C113.794 28.092 113.938 28.1433 114.134 28.218C114.33 28.2927 114.55 28.358 114.792 28.414C115.035 28.4793 115.264 28.512 115.478 28.512C116.225 28.512 116.785 28.3393 117.158 27.994C117.541 27.6487 117.732 27.1773 117.732 26.58V25.32L117.886 25.418C117.858 25.614 117.77 25.8147 117.62 26.02C117.48 26.216 117.294 26.398 117.06 26.566C116.827 26.734 116.556 26.874 116.248 26.986C115.95 27.0887 115.642 27.14 115.324 27.14C114.662 27.14 114.069 26.9767 113.546 26.65C113.024 26.314 112.608 25.8613 112.3 25.292C111.992 24.7133 111.838 24.0507 111.838 23.304C111.838 22.5573 111.992 21.8993 112.3 21.33C112.608 20.7513 113.019 20.2987 113.532 19.972C114.055 19.636 114.638 19.468 115.282 19.468ZM115.492 20.756C115.035 20.756 114.634 20.868 114.288 21.092C113.943 21.316 113.672 21.6193 113.476 22.002C113.28 22.3847 113.182 22.8187 113.182 23.304C113.182 23.7893 113.28 24.2233 113.476 24.606C113.672 24.9887 113.943 25.292 114.288 25.516C114.634 25.74 115.035 25.852 115.492 25.852C115.95 25.852 116.351 25.7447 116.696 25.53C117.042 25.306 117.312 25.0027 117.508 24.62C117.704 24.228 117.802 23.7893 117.802 23.304C117.802 22.8187 117.704 22.3847 117.508 22.002C117.312 21.61 117.042 21.3067 116.696 21.092C116.351 20.868 115.95 20.756 115.492 20.756ZM125.868 27C125.644 27 125.462 26.9347 125.322 26.804C125.192 26.664 125.126 26.4913 125.126 26.286V17.914C125.126 17.7087 125.196 17.5407 125.336 17.41C125.476 17.27 125.644 17.2 125.84 17.2H130.572C130.778 17.2 130.946 17.2653 131.076 17.396C131.216 17.5267 131.286 17.69 131.286 17.886C131.286 18.0633 131.216 18.2173 131.076 18.348C130.946 18.4787 130.778 18.544 130.572 18.544H126.484L126.582 18.404V21.526L126.498 21.358H129.942C130.148 21.358 130.316 21.4233 130.446 21.554C130.586 21.6847 130.656 21.848 130.656 22.044C130.656 22.2213 130.586 22.3753 130.446 22.506C130.316 22.6367 130.148 22.702 129.942 22.702H126.47L126.582 22.59V26.286C126.582 26.4913 126.512 26.664 126.372 26.804C126.232 26.9347 126.064 27 125.868 27ZM138.621 19.524C138.827 19.524 138.995 19.594 139.125 19.734C139.256 19.8647 139.321 20.0327 139.321 20.238V26.286C139.321 26.4913 139.256 26.664 139.125 26.804C138.995 26.9347 138.827 27 138.621 27C138.425 27 138.257 26.9347 138.117 26.804C137.987 26.664 137.921 26.4913 137.921 26.286V25.278L138.215 25.32C138.215 25.488 138.145 25.6747 138.005 25.88C137.875 26.0853 137.693 26.286 137.459 26.482C137.226 26.6687 136.951 26.8273 136.633 26.958C136.316 27.0793 135.975 27.14 135.611 27.14C134.967 27.14 134.389 26.9767 133.875 26.65C133.362 26.314 132.956 25.8567 132.657 25.278C132.359 24.6993 132.209 24.0413 132.209 23.304C132.209 22.548 132.359 21.8853 132.657 21.316C132.956 20.7373 133.357 20.2847 133.861 19.958C134.375 19.6313 134.944 19.468 135.569 19.468C135.971 19.468 136.339 19.5333 136.675 19.664C137.021 19.7947 137.319 19.9627 137.571 20.168C137.823 20.3733 138.015 20.5927 138.145 20.826C138.285 21.05 138.355 21.2647 138.355 21.47L137.921 21.512V20.238C137.921 20.042 137.987 19.874 138.117 19.734C138.257 19.594 138.425 19.524 138.621 19.524ZM135.765 25.852C136.204 25.852 136.591 25.74 136.927 25.516C137.263 25.292 137.525 24.9887 137.711 24.606C137.898 24.214 137.991 23.78 137.991 23.304C137.991 22.8187 137.898 22.3847 137.711 22.002C137.525 21.6193 137.263 21.316 136.927 21.092C136.591 20.868 136.204 20.756 135.765 20.756C135.336 20.756 134.953 20.868 134.617 21.092C134.291 21.316 134.029 21.6193 133.833 22.002C133.647 22.3847 133.553 22.8187 133.553 23.304C133.553 23.78 133.647 24.214 133.833 24.606C134.029 24.9887 134.291 25.292 134.617 25.516C134.953 25.74 135.336 25.852 135.765 25.852ZM144.545 19.468C145.049 19.468 145.497 19.524 145.889 19.636C146.281 19.7387 146.584 19.888 146.799 20.084C147.023 20.2707 147.135 20.49 147.135 20.742C147.135 20.9007 147.088 21.05 146.995 21.19C146.901 21.3207 146.761 21.386 146.575 21.386C146.444 21.386 146.332 21.3627 146.239 21.316C146.155 21.2693 146.075 21.2133 146.001 21.148C145.926 21.0827 145.833 21.0173 145.721 20.952C145.618 20.896 145.464 20.8493 145.259 20.812C145.063 20.7747 144.885 20.756 144.727 20.756C144.232 20.756 143.803 20.868 143.439 21.092C143.084 21.316 142.804 21.6193 142.599 22.002C142.403 22.3847 142.305 22.8187 142.305 23.304C142.305 23.7893 142.403 24.2233 142.599 24.606C142.804 24.9887 143.079 25.292 143.425 25.516C143.779 25.74 144.19 25.852 144.657 25.852C144.937 25.852 145.165 25.8333 145.343 25.796C145.52 25.7493 145.674 25.6933 145.805 25.628C145.945 25.544 146.061 25.46 146.155 25.376C146.257 25.2827 146.397 25.236 146.575 25.236C146.78 25.236 146.934 25.3013 147.037 25.432C147.149 25.5533 147.205 25.7073 147.205 25.894C147.205 26.0993 147.079 26.3 146.827 26.496C146.584 26.6827 146.257 26.8367 145.847 26.958C145.436 27.0793 144.983 27.14 144.489 27.14C143.761 27.14 143.126 26.972 142.585 26.636C142.053 26.3 141.637 25.8427 141.339 25.264C141.049 24.6853 140.905 24.032 140.905 23.304C140.905 22.5667 141.059 21.9133 141.367 21.344C141.675 20.7653 142.104 20.308 142.655 19.972C143.205 19.636 143.835 19.468 144.545 19.468ZM151.973 27.14C151.198 27.14 150.526 26.9813 149.957 26.664C149.387 26.3373 148.944 25.894 148.627 25.334C148.319 24.7647 148.165 24.116 148.165 23.388C148.165 22.5667 148.328 21.8667 148.655 21.288C148.991 20.7 149.425 20.252 149.957 19.944C150.489 19.6267 151.053 19.468 151.651 19.468C152.108 19.468 152.542 19.5613 152.953 19.748C153.363 19.9253 153.727 20.1773 154.045 20.504C154.371 20.8213 154.628 21.1993 154.815 21.638C155.001 22.0673 155.099 22.5387 155.109 23.052C155.099 23.2387 155.025 23.3927 154.885 23.514C154.745 23.6353 154.581 23.696 154.395 23.696H148.949L148.613 22.506H153.877L153.611 22.758V22.408C153.592 22.0813 153.485 21.7967 153.289 21.554C153.093 21.302 152.85 21.1107 152.561 20.98C152.271 20.84 151.968 20.77 151.651 20.77C151.371 20.77 151.1 20.8167 150.839 20.91C150.587 20.994 150.358 21.134 150.153 21.33C149.957 21.526 149.798 21.7873 149.677 22.114C149.565 22.4313 149.509 22.828 149.509 23.304C149.509 23.8173 149.616 24.2653 149.831 24.648C150.045 25.0307 150.335 25.3293 150.699 25.544C151.063 25.7493 151.464 25.852 151.903 25.852C152.248 25.852 152.533 25.8193 152.757 25.754C152.981 25.6793 153.167 25.5907 153.317 25.488C153.466 25.3853 153.597 25.2873 153.709 25.194C153.849 25.11 153.989 25.068 154.129 25.068C154.297 25.068 154.437 25.1287 154.549 25.25C154.661 25.362 154.717 25.4973 154.717 25.656C154.717 25.8613 154.614 26.048 154.409 26.216C154.157 26.4587 153.807 26.6733 153.359 26.86C152.92 27.0467 152.458 27.14 151.973 27.14ZM163.933 27C163.709 27 163.527 26.9347 163.387 26.804C163.257 26.664 163.191 26.4913 163.191 26.286V17.9H164.689V26.286C164.689 26.4913 164.615 26.664 164.465 26.804C164.325 26.9347 164.148 27 163.933 27ZM160.755 18.544C160.559 18.544 160.391 18.4833 160.251 18.362C160.111 18.2313 160.041 18.0633 160.041 17.858C160.041 17.662 160.111 17.5033 160.251 17.382C160.391 17.2607 160.559 17.2 160.755 17.2H167.125C167.321 17.2 167.485 17.2653 167.615 17.396C167.755 17.5173 167.825 17.676 167.825 17.872C167.825 18.0773 167.755 18.2407 167.615 18.362C167.485 18.4833 167.321 18.544 167.125 18.544H160.755ZM169.121 27C168.916 27 168.748 26.9347 168.617 26.804C168.487 26.664 168.421 26.4913 168.421 26.286V20.35C168.421 20.1447 168.487 19.9767 168.617 19.846C168.748 19.706 168.916 19.636 169.121 19.636C169.317 19.636 169.481 19.706 169.611 19.846C169.751 19.9767 169.821 20.1447 169.821 20.35V21.918L169.681 21.316C169.756 21.0547 169.868 20.812 170.017 20.588C170.176 20.364 170.363 20.168 170.577 20C170.792 19.832 171.03 19.7013 171.291 19.608C171.562 19.5147 171.842 19.468 172.131 19.468C172.374 19.468 172.584 19.5333 172.761 19.664C172.939 19.7947 173.027 19.958 173.027 20.154C173.027 20.406 172.962 20.5927 172.831 20.714C172.701 20.826 172.556 20.882 172.397 20.882C172.257 20.882 172.122 20.854 171.991 20.798C171.861 20.7327 171.707 20.7 171.529 20.7C171.333 20.7 171.133 20.7513 170.927 20.854C170.722 20.9567 170.535 21.1107 170.367 21.316C170.199 21.512 170.064 21.7453 169.961 22.016C169.868 22.2867 169.821 22.59 169.821 22.926V26.286C169.821 26.4913 169.751 26.664 169.611 26.804C169.481 26.9347 169.317 27 169.121 27ZM180.143 19.524C180.348 19.524 180.516 19.594 180.647 19.734C180.778 19.8647 180.843 20.0327 180.843 20.238V26.286C180.843 26.4913 180.778 26.664 180.647 26.804C180.516 26.9347 180.348 27 180.143 27C179.947 27 179.779 26.9347 179.639 26.804C179.508 26.664 179.443 26.4913 179.443 26.286V25.278L179.737 25.32C179.737 25.488 179.667 25.6747 179.527 25.88C179.396 26.0853 179.214 26.286 178.981 26.482C178.748 26.6687 178.472 26.8273 178.155 26.958C177.838 27.0793 177.497 27.14 177.133 27.14C176.489 27.14 175.91 26.9767 175.397 26.65C174.884 26.314 174.478 25.8567 174.179 25.278C173.88 24.6993 173.731 24.0413 173.731 23.304C173.731 22.548 173.88 21.8853 174.179 21.316C174.478 20.7373 174.879 20.2847 175.383 19.958C175.896 19.6313 176.466 19.468 177.091 19.468C177.492 19.468 177.861 19.5333 178.197 19.664C178.542 19.7947 178.841 19.9627 179.093 20.168C179.345 20.3733 179.536 20.5927 179.667 20.826C179.807 21.05 179.877 21.2647 179.877 21.47L179.443 21.512V20.238C179.443 20.042 179.508 19.874 179.639 19.734C179.779 19.594 179.947 19.524 180.143 19.524ZM177.287 25.852C177.726 25.852 178.113 25.74 178.449 25.516C178.785 25.292 179.046 24.9887 179.233 24.606C179.42 24.214 179.513 23.78 179.513 23.304C179.513 22.8187 179.42 22.3847 179.233 22.002C179.046 21.6193 178.785 21.316 178.449 21.092C178.113 20.868 177.726 20.756 177.287 20.756C176.858 20.756 176.475 20.868 176.139 21.092C175.812 21.316 175.551 21.6193 175.355 22.002C175.168 22.3847 175.075 22.8187 175.075 23.304C175.075 23.78 175.168 24.214 175.355 24.606C175.551 24.9887 175.812 25.292 176.139 25.516C176.475 25.74 176.858 25.852 177.287 25.852ZM186.598 19.468C187.261 19.468 187.774 19.608 188.138 19.888C188.502 20.1587 188.754 20.5273 188.894 20.994C189.044 21.4513 189.118 21.9647 189.118 22.534V26.286C189.118 26.4913 189.048 26.664 188.908 26.804C188.778 26.9347 188.614 27 188.418 27C188.213 27 188.045 26.9347 187.914 26.804C187.784 26.664 187.718 26.4913 187.718 26.286V22.548C187.718 22.212 187.672 21.9133 187.578 21.652C187.485 21.3813 187.322 21.1667 187.088 21.008C186.864 20.84 186.547 20.756 186.136 20.756C185.754 20.756 185.418 20.84 185.128 21.008C184.839 21.1667 184.61 21.3813 184.442 21.652C184.284 21.9133 184.204 22.212 184.204 22.548V26.286C184.204 26.4913 184.134 26.664 183.994 26.804C183.864 26.9347 183.7 27 183.504 27C183.299 27 183.131 26.9347 183 26.804C182.87 26.664 182.804 26.4913 182.804 26.286V20.35C182.804 20.1447 182.87 19.9767 183 19.846C183.131 19.706 183.299 19.636 183.504 19.636C183.7 19.636 183.864 19.706 183.994 19.846C184.134 19.9767 184.204 20.1447 184.204 20.35V21.134L183.952 21.274C184.018 21.0687 184.13 20.8633 184.288 20.658C184.456 20.4433 184.657 20.2473 184.89 20.07C185.124 19.8833 185.385 19.7387 185.674 19.636C185.964 19.524 186.272 19.468 186.598 19.468ZM190.628 25.852C190.544 25.7213 190.507 25.572 190.516 25.404C190.525 25.2267 190.623 25.0773 190.81 24.956C190.941 24.872 191.076 24.8393 191.216 24.858C191.365 24.8673 191.505 24.9373 191.636 25.068C191.897 25.3573 192.187 25.586 192.504 25.754C192.831 25.922 193.223 26.006 193.68 26.006C193.867 25.9967 194.058 25.9687 194.254 25.922C194.45 25.866 194.618 25.7727 194.758 25.642C194.898 25.502 194.968 25.3013 194.968 25.04C194.968 24.8067 194.893 24.62 194.744 24.48C194.595 24.34 194.399 24.228 194.156 24.144C193.913 24.0507 193.652 23.9667 193.372 23.892C193.073 23.808 192.77 23.7147 192.462 23.612C192.163 23.5093 191.893 23.3787 191.65 23.22C191.407 23.052 191.207 22.8373 191.048 22.576C190.899 22.3147 190.824 21.9927 190.824 21.61C190.824 21.1713 190.945 20.7933 191.188 20.476C191.44 20.1587 191.762 19.9113 192.154 19.734C192.555 19.5567 192.989 19.468 193.456 19.468C193.727 19.468 194.011 19.5053 194.31 19.58C194.609 19.6453 194.898 19.7527 195.178 19.902C195.458 20.0513 195.701 20.2473 195.906 20.49C195.999 20.6113 196.051 20.756 196.06 20.924C196.079 21.092 196.004 21.2413 195.836 21.372C195.724 21.4653 195.589 21.5073 195.43 21.498C195.271 21.4887 195.141 21.4373 195.038 21.344C194.861 21.12 194.632 20.9473 194.352 20.826C194.072 20.6953 193.755 20.63 193.4 20.63C193.223 20.63 193.036 20.658 192.84 20.714C192.653 20.7607 192.495 20.8493 192.364 20.98C192.233 21.1107 192.168 21.302 192.168 21.554C192.168 21.7873 192.243 21.974 192.392 22.114C192.551 22.254 192.756 22.3707 193.008 22.464C193.26 22.5573 193.535 22.6413 193.834 22.716C194.123 22.7907 194.408 22.8793 194.688 22.982C194.977 23.0847 195.234 23.22 195.458 23.388C195.691 23.5467 195.878 23.7567 196.018 24.018C196.167 24.27 196.242 24.592 196.242 24.984C196.242 25.4413 196.107 25.8333 195.836 26.16C195.575 26.4773 195.239 26.72 194.828 26.888C194.427 27.056 194.002 27.14 193.554 27.14C193.022 27.14 192.49 27.0467 191.958 26.86C191.435 26.664 190.992 26.328 190.628 25.852ZM201.178 16.654C201.355 16.654 201.537 16.6773 201.724 16.724C201.91 16.7707 202.064 16.85 202.186 16.962C202.316 17.0647 202.382 17.2093 202.382 17.396C202.382 17.5827 202.326 17.7367 202.214 17.858C202.102 17.97 201.971 18.026 201.822 18.026C201.728 18.026 201.602 18.0073 201.444 17.97C201.285 17.9233 201.126 17.9 200.968 17.9C200.753 17.9 200.58 17.9513 200.45 18.054C200.319 18.1473 200.226 18.2687 200.17 18.418C200.114 18.558 200.086 18.698 200.086 18.838V26.286C200.086 26.4913 200.016 26.664 199.876 26.804C199.745 26.9347 199.582 27 199.386 27C199.18 27 199.012 26.9347 198.882 26.804C198.751 26.664 198.686 26.4913 198.686 26.286V18.852C198.686 18.208 198.896 17.6807 199.316 17.27C199.745 16.8593 200.366 16.654 201.178 16.654ZM201.458 19.762C201.644 19.762 201.798 19.8227 201.92 19.944C202.041 20.0653 202.102 20.2193 202.102 20.406C202.102 20.5927 202.041 20.7467 201.92 20.868C201.798 20.9893 201.644 21.05 201.458 21.05H197.832C197.654 21.05 197.5 20.9893 197.37 20.868C197.248 20.7467 197.188 20.5927 197.188 20.406C197.188 20.2193 197.248 20.0653 197.37 19.944C197.5 19.8227 197.654 19.762 197.832 19.762H201.458ZM210.108 23.318C210.108 24.0647 209.945 24.7273 209.618 25.306C209.292 25.8753 208.848 26.3233 208.288 26.65C207.728 26.9767 207.098 27.14 206.398 27.14C205.698 27.14 205.068 26.9767 204.508 26.65C203.948 26.3233 203.5 25.8753 203.164 25.306C202.838 24.7273 202.674 24.0647 202.674 23.318C202.674 22.562 202.838 21.8993 203.164 21.33C203.5 20.7513 203.948 20.2987 204.508 19.972C205.068 19.636 205.698 19.468 206.398 19.468C207.098 19.468 207.728 19.636 208.288 19.972C208.848 20.2987 209.292 20.7513 209.618 21.33C209.945 21.8993 210.108 22.562 210.108 23.318ZM208.708 23.318C208.708 22.8047 208.606 22.3613 208.4 21.988C208.195 21.6053 207.915 21.3067 207.56 21.092C207.215 20.868 206.828 20.756 206.398 20.756C205.969 20.756 205.577 20.868 205.222 21.092C204.868 21.3067 204.588 21.6053 204.382 21.988C204.177 22.3613 204.074 22.8047 204.074 23.318C204.074 23.8127 204.177 24.2513 204.382 24.634C204.588 25.0167 204.868 25.3153 205.222 25.53C205.577 25.7447 205.969 25.852 206.398 25.852C206.828 25.852 207.215 25.7447 207.56 25.53C207.915 25.3153 208.195 25.0167 208.4 24.634C208.606 24.2513 208.708 23.8127 208.708 23.318ZM212.393 27C212.188 27 212.02 26.9347 211.889 26.804C211.758 26.664 211.693 26.4913 211.693 26.286V20.35C211.693 20.1447 211.758 19.9767 211.889 19.846C212.02 19.706 212.188 19.636 212.393 19.636C212.589 19.636 212.752 19.706 212.883 19.846C213.023 19.9767 213.093 20.1447 213.093 20.35V21.918L212.953 21.316C213.028 21.0547 213.14 20.812 213.289 20.588C213.448 20.364 213.634 20.168 213.849 20C214.064 19.832 214.302 19.7013 214.563 19.608C214.834 19.5147 215.114 19.468 215.403 19.468C215.646 19.468 215.856 19.5333 216.033 19.664C216.21 19.7947 216.299 19.958 216.299 20.154C216.299 20.406 216.234 20.5927 216.103 20.714C215.972 20.826 215.828 20.882 215.669 20.882C215.529 20.882 215.394 20.854 215.263 20.798C215.132 20.7327 214.978 20.7 214.801 20.7C214.605 20.7 214.404 20.7513 214.199 20.854C213.994 20.9567 213.807 21.1107 213.639 21.316C213.471 21.512 213.336 21.7453 213.233 22.016C213.14 22.2867 213.093 22.59 213.093 22.926V26.286C213.093 26.4913 213.023 26.664 212.883 26.804C212.752 26.9347 212.589 27 212.393 27ZM221.24 19.51C221.931 19.51 222.463 19.6827 222.836 20.028C223.21 20.364 223.457 20.8213 223.578 21.4L223.354 21.33L223.452 21.106C223.574 20.8633 223.756 20.6207 223.998 20.378C224.25 20.126 224.549 19.9207 224.894 19.762C225.24 19.594 225.608 19.51 226 19.51C226.644 19.51 227.144 19.65 227.498 19.93C227.853 20.2007 228.1 20.5693 228.24 21.036C228.38 21.4933 228.45 22.0067 228.45 22.576V26.286C228.45 26.4913 228.385 26.664 228.254 26.804C228.124 26.9347 227.956 27 227.75 27C227.554 27 227.386 26.9347 227.246 26.804C227.116 26.664 227.05 26.4913 227.05 26.286V22.59C227.05 22.2633 227.004 21.9647 226.91 21.694C226.826 21.4233 226.672 21.2087 226.448 21.05C226.234 20.882 225.935 20.798 225.552 20.798C225.188 20.798 224.862 20.882 224.572 21.05C224.292 21.2087 224.073 21.4233 223.914 21.694C223.756 21.9647 223.676 22.2633 223.676 22.59V26.286C223.676 26.4913 223.611 26.664 223.48 26.804C223.35 26.9347 223.182 27 222.976 27C222.771 27 222.603 26.9347 222.472 26.804C222.342 26.664 222.276 26.4913 222.276 26.286V22.576C222.276 22.2493 222.23 21.9507 222.136 21.68C222.052 21.4093 221.903 21.1947 221.688 21.036C221.474 20.8773 221.175 20.798 220.792 20.798C220.428 20.798 220.106 20.8773 219.826 21.036C219.546 21.1947 219.327 21.4093 219.168 21.68C219.019 21.9507 218.944 22.2493 218.944 22.576V26.286C218.944 26.4913 218.874 26.664 218.734 26.804C218.604 26.9347 218.44 27 218.244 27C218.039 27 217.871 26.9347 217.74 26.804C217.61 26.664 217.544 26.4913 217.544 26.286V20.35C217.544 20.1447 217.61 19.9767 217.74 19.846C217.871 19.706 218.039 19.636 218.244 19.636C218.44 19.636 218.604 19.706 218.734 19.846C218.874 19.9767 218.944 20.1447 218.944 20.35V21.176L218.678 21.33C218.744 21.1247 218.851 20.9147 219 20.7C219.15 20.4853 219.336 20.2893 219.56 20.112C219.794 19.9347 220.05 19.79 220.33 19.678C220.61 19.566 220.914 19.51 221.24 19.51ZM233.84 27.14C233.065 27.14 232.393 26.9813 231.824 26.664C231.254 26.3373 230.811 25.894 230.494 25.334C230.186 24.7647 230.032 24.116 230.032 23.388C230.032 22.5667 230.195 21.8667 230.522 21.288C230.858 20.7 231.292 20.252 231.824 19.944C232.356 19.6267 232.92 19.468 233.518 19.468C233.975 19.468 234.409 19.5613 234.82 19.748C235.23 19.9253 235.594 20.1773 235.912 20.504C236.238 20.8213 236.495 21.1993 236.682 21.638C236.868 22.0673 236.966 22.5387 236.976 23.052C236.966 23.2387 236.892 23.3927 236.752 23.514C236.612 23.6353 236.448 23.696 236.262 23.696H230.816L230.48 22.506H235.744L235.478 22.758V22.408C235.459 22.0813 235.352 21.7967 235.156 21.554C234.96 21.302 234.717 21.1107 234.428 20.98C234.138 20.84 233.835 20.77 233.518 20.77C233.238 20.77 232.967 20.8167 232.706 20.91C232.454 20.994 232.225 21.134 232.02 21.33C231.824 21.526 231.665 21.7873 231.544 22.114C231.432 22.4313 231.376 22.828 231.376 23.304C231.376 23.8173 231.483 24.2653 231.698 24.648C231.912 25.0307 232.202 25.3293 232.566 25.544C232.93 25.7493 233.331 25.852 233.77 25.852C234.115 25.852 234.4 25.8193 234.624 25.754C234.848 25.6793 235.034 25.5907 235.184 25.488C235.333 25.3853 235.464 25.2873 235.576 25.194C235.716 25.11 235.856 25.068 235.996 25.068C236.164 25.068 236.304 25.1287 236.416 25.25C236.528 25.362 236.584 25.4973 236.584 25.656C236.584 25.8613 236.481 26.048 236.276 26.216C236.024 26.4587 235.674 26.6733 235.226 26.86C234.787 27.0467 234.325 27.14 233.84 27.14ZM239.258 27C239.053 27 238.885 26.9347 238.754 26.804C238.623 26.664 238.558 26.4913 238.558 26.286V20.35C238.558 20.1447 238.623 19.9767 238.754 19.846C238.885 19.706 239.053 19.636 239.258 19.636C239.454 19.636 239.617 19.706 239.748 19.846C239.888 19.9767 239.958 20.1447 239.958 20.35V21.918L239.818 21.316C239.893 21.0547 240.005 20.812 240.154 20.588C240.313 20.364 240.499 20.168 240.714 20C240.929 19.832 241.167 19.7013 241.428 19.608C241.699 19.5147 241.979 19.468 242.268 19.468C242.511 19.468 242.721 19.5333 242.898 19.664C243.075 19.7947 243.164 19.958 243.164 20.154C243.164 20.406 243.099 20.5927 242.968 20.714C242.837 20.826 242.693 20.882 242.534 20.882C242.394 20.882 242.259 20.854 242.128 20.798C241.997 20.7327 241.843 20.7 241.666 20.7C241.47 20.7 241.269 20.7513 241.064 20.854C240.859 20.9567 240.672 21.1107 240.504 21.316C240.336 21.512 240.201 21.7453 240.098 22.016C240.005 22.2867 239.958 22.59 239.958 22.926V26.286C239.958 26.4913 239.888 26.664 239.748 26.804C239.617 26.9347 239.454 27 239.258 27ZM243.976 25.852C243.892 25.7213 243.854 25.572 243.864 25.404C243.873 25.2267 243.971 25.0773 244.158 24.956C244.288 24.872 244.424 24.8393 244.564 24.858C244.713 24.8673 244.853 24.9373 244.984 25.068C245.245 25.3573 245.534 25.586 245.852 25.754C246.178 25.922 246.57 26.006 247.028 26.006C247.214 25.9967 247.406 25.9687 247.602 25.922C247.798 25.866 247.966 25.7727 248.106 25.642C248.246 25.502 248.316 25.3013 248.316 25.04C248.316 24.8067 248.241 24.62 248.092 24.48C247.942 24.34 247.746 24.228 247.504 24.144C247.261 24.0507 247 23.9667 246.72 23.892C246.421 23.808 246.118 23.7147 245.81 23.612C245.511 23.5093 245.24 23.3787 244.998 23.22C244.755 23.052 244.554 22.8373 244.396 22.576C244.246 22.3147 244.172 21.9927 244.172 21.61C244.172 21.1713 244.293 20.7933 244.536 20.476C244.788 20.1587 245.11 19.9113 245.502 19.734C245.903 19.5567 246.337 19.468 246.804 19.468C247.074 19.468 247.359 19.5053 247.658 19.58C247.956 19.6453 248.246 19.7527 248.526 19.902C248.806 20.0513 249.048 20.2473 249.254 20.49C249.347 20.6113 249.398 20.756 249.408 20.924C249.426 21.092 249.352 21.2413 249.184 21.372C249.072 21.4653 248.936 21.5073 248.778 21.498C248.619 21.4887 248.488 21.4373 248.386 21.344C248.208 21.12 247.98 20.9473 247.7 20.826C247.42 20.6953 247.102 20.63 246.748 20.63C246.57 20.63 246.384 20.658 246.188 20.714C246.001 20.7607 245.842 20.8493 245.712 20.98C245.581 21.1107 245.516 21.302 245.516 21.554C245.516 21.7873 245.59 21.974 245.74 22.114C245.898 22.254 246.104 22.3707 246.356 22.464C246.608 22.5573 246.883 22.6413 247.182 22.716C247.471 22.7907 247.756 22.8793 248.036 22.982C248.325 23.0847 248.582 23.22 248.806 23.388C249.039 23.5467 249.226 23.7567 249.366 24.018C249.515 24.27 249.59 24.592 249.59 24.984C249.59 25.4413 249.454 25.8333 249.184 26.16C248.922 26.4773 248.586 26.72 248.176 26.888C247.774 27.056 247.35 27.14 246.902 27.14C246.37 27.14 245.838 27.0467 245.306 26.86C244.783 26.664 244.34 26.328 243.976 25.852Z" fill="white"/>
<defs>
<linearGradient id="paint0_linear_1428_3508" x1="0" y1="22" x2="281" y2="22" gradientUnits="userSpaceOnUse">
<stop stop-color="#2B3631"/>
<stop offset="1" stop-color="#496A56"/>
</linearGradient>
<clipPath id="clip0_1428_3508">
<rect width="26" height="24" fill="white" transform="translate(30 10)"/>
</clipPath>
</defs>
</svg>
