<svg width="141" height="46" viewBox="0 0 141 46" fill="none" xmlns="http://www.w3.org/2000/svg">
<rect width="141" height="46" rx="23" fill="url(#paint0_linear_1428_3428)" fill-opacity="0.76"/>
<g clip-path="url(#clip0_1428_3428)">
<path d="M53.7551 29.8671C52.3611 29.8292 51.2965 29.959 50.3863 30.3427C50.1277 30.4517 49.715 30.4548 49.6727 30.7788C49.8149 30.9277 49.837 31.1503 49.95 31.3335C50.1673 31.6849 50.5342 32.1566 50.8616 32.4036C51.2195 32.6737 51.5882 32.9624 51.9717 33.1962C52.6538 33.612 53.4153 33.8496 54.072 34.2662C54.4591 34.512 54.8437 34.8214 55.2213 35.0984C55.4081 35.2355 55.5335 35.4486 55.7762 35.5345V35.4951C55.6486 35.3326 55.6157 35.1096 55.4987 34.94L54.9834 34.4247C54.4797 33.756 53.84 33.1685 53.1602 32.6808C52.618 32.2916 51.4048 31.766 51.1787 31.1353L51.1391 31.0956C51.5234 31.0522 51.9733 30.9132 52.3282 30.818C52.9241 30.6583 53.4567 30.6995 54.072 30.5407L54.9042 30.3028V30.1444C54.5932 29.8253 54.3714 29.4028 54.0324 29.114C53.1447 28.3583 52.1762 27.6033 51.1789 26.9736C50.6256 26.6247 49.9421 26.3978 49.3556 26.1018C49.1584 26.0021 48.8119 25.9503 48.6817 25.7845C48.3735 25.3921 48.2059 24.8944 47.9685 24.4372C47.471 23.4791 46.9825 22.4328 46.5417 21.4247C46.2411 20.7373 46.0447 20.0597 45.6697 19.443C43.87 16.484 41.933 14.6984 38.9323 12.943C38.2936 12.5696 37.5248 12.4224 36.7123 12.2294C36.2766 12.2032 35.8405 12.1766 35.4046 12.15C35.1383 12.0391 34.8616 11.7135 34.612 11.5554C33.6179 10.9274 31.0679 9.56134 30.3318 11.3574C29.8668 12.491 31.0266 13.5968 31.4412 14.1715C31.7325 14.5741 32.1052 15.026 32.3132 15.4792C32.4501 15.7772 32.4737 16.076 32.5909 16.391C32.8787 17.1674 33.1296 18.012 33.5023 18.7292C33.6906 19.0924 33.8982 19.4747 34.1365 19.7993C34.2823 19.9985 34.5328 20.0863 34.5722 20.3938C34.3276 20.7363 34.3136 21.268 34.1761 21.7019C33.5566 23.655 33.7904 26.0827 34.6914 27.5282C34.9677 27.9722 35.6191 28.9238 36.5145 28.5586C37.2977 28.2397 37.1228 27.2509 37.3469 26.3787C37.3975 26.181 37.3664 26.0356 37.4657 25.9032V25.9428L38.1793 27.3695C38.7074 28.22 39.6442 29.1087 40.4384 29.7083C40.8502 30.0193 41.1744 30.5568 41.7068 30.7388V30.6989H41.6671C41.564 30.5383 41.4025 30.4716 41.2708 30.3425C40.9607 30.0384 40.6158 29.6604 40.3594 29.312C39.6371 28.3315 38.9989 27.2584 38.4173 26.1414C38.1395 25.6078 37.898 25.0196 37.664 24.4766C37.5738 24.2674 37.575 23.9507 37.3869 23.8425C37.1303 24.2402 36.7527 24.5619 36.5545 25.0315C36.2374 25.7823 36.1966 26.698 36.079 27.6474C36.0095 27.6722 36.0404 27.6551 35.9995 27.6868C35.4475 27.5538 35.2537 26.9856 35.0483 26.4979C34.5295 25.2649 34.4331 23.28 34.8897 21.8608C35.0079 21.4933 35.5417 20.3371 35.3256 19.9977C35.2224 19.6593 34.882 19.4635 34.6916 19.2049C34.4558 18.8852 34.2206 18.4643 34.0571 18.095C33.6325 17.134 33.4343 16.0548 32.9872 15.0831C32.7733 14.6185 32.412 14.1483 32.1152 13.7356C31.7867 13.2779 31.4187 12.9409 31.164 12.3878C31.0734 12.1912 30.9505 11.8764 31.0845 11.6743C31.1272 11.538 31.1877 11.4811 31.3224 11.4366C31.5523 11.2593 32.1926 11.4955 32.4319 11.5948C33.0674 11.8589 33.598 12.1104 34.1365 12.467C34.3947 12.6385 34.6563 12.9698 34.9687 13.0616H35.3254C35.8834 13.1898 36.5084 13.1012 37.0298 13.2596C37.9512 13.5395 38.7769 13.9753 39.5266 14.4487C41.811 15.8913 43.6789 17.9445 44.9566 20.394C45.1621 20.7885 45.2511 21.1647 45.4321 21.5831C45.7973 22.4267 46.2574 23.2946 46.6208 24.1197C46.9835 24.9428 47.337 25.7734 47.8497 26.4583C48.1192 26.8182 49.16 27.0114 49.6333 27.2115C49.9648 27.3514 50.5082 27.4977 50.8224 27.6868C51.4222 28.0488 52.0036 28.4796 52.5664 28.8761C52.8473 29.0741 53.712 29.509 53.7551 29.8671ZM36.0388 14.7666C35.7481 14.7611 35.5425 14.7983 35.3252 14.8456V14.8853H35.3648C35.5035 15.17 35.7483 15.3537 35.9195 15.5988C36.0515 15.8765 36.1838 16.1538 36.316 16.431L36.3554 16.3918C36.601 16.2186 36.7133 15.9421 36.7119 15.5196C36.6136 15.4162 36.5992 15.2866 36.5139 15.1631C36.4009 14.9984 36.1818 14.9048 36.0388 14.7666Z" fill="white"/>
</g>
<path d="M65.862 18.186C65.974 18.186 66.0907 18.214 66.212 18.27C66.3333 18.326 66.4267 18.4053 66.492 18.508L70.048 23.926L69.446 23.898L73.072 18.508C73.2213 18.2933 73.4127 18.186 73.646 18.186C73.8327 18.186 73.996 18.256 74.136 18.396C74.2853 18.5267 74.36 18.6947 74.36 18.9V27.286C74.36 27.4913 74.2947 27.664 74.164 27.804C74.0333 27.9347 73.8607 28 73.646 28C73.422 28 73.24 27.9347 73.1 27.804C72.9693 27.664 72.904 27.4913 72.904 27.286V20.188L73.352 20.286L70.272 24.976C70.2067 25.06 70.1227 25.1347 70.02 25.2C69.9173 25.256 69.81 25.2793 69.698 25.27C69.5953 25.2793 69.488 25.256 69.376 25.2C69.2733 25.1347 69.1893 25.06 69.124 24.976L66.156 20.356L66.492 19.796V27.286C66.492 27.4913 66.4267 27.664 66.296 27.804C66.1747 27.9347 66.0113 28 65.806 28C65.61 28 65.4467 27.9347 65.316 27.804C65.1947 27.664 65.134 27.4913 65.134 27.286V18.9C65.134 18.704 65.204 18.536 65.344 18.396C65.4933 18.256 65.666 18.186 65.862 18.186ZM81.9657 20.58C82.1711 20.58 82.3391 20.65 82.4697 20.79C82.6004 20.9207 82.6657 21.0887 82.6657 21.294V27.314C82.6657 28.1353 82.5071 28.8027 82.1897 29.316C81.8817 29.8293 81.4617 30.2027 80.9297 30.436C80.4071 30.6787 79.8144 30.8 79.1517 30.8C78.8157 30.8 78.4797 30.7673 78.1437 30.702C77.8077 30.646 77.5324 30.562 77.3177 30.45C77.0937 30.3473 76.9351 30.2213 76.8417 30.072C76.7484 29.9227 76.7344 29.7593 76.7997 29.582C76.8651 29.358 76.9771 29.204 77.1357 29.12C77.2944 29.0453 77.4577 29.0407 77.6257 29.106C77.7844 29.1713 77.9944 29.2553 78.2557 29.358C78.5171 29.4607 78.8157 29.512 79.1517 29.512C79.6091 29.512 79.9964 29.4373 80.3137 29.288C80.6311 29.1387 80.8691 28.9053 81.0277 28.588C81.1957 28.2707 81.2797 27.86 81.2797 27.356V26.39L81.5037 26.726C81.3544 27.034 81.1584 27.2907 80.9157 27.496C80.6731 27.7013 80.3837 27.86 80.0477 27.972C79.7211 28.084 79.3571 28.14 78.9557 28.14C78.4424 28.14 77.9991 28.028 77.6257 27.804C77.2617 27.5707 76.9817 27.2533 76.7857 26.852C76.5897 26.4413 76.4917 25.9747 76.4917 25.452V21.294C76.4917 21.0887 76.5571 20.9207 76.6877 20.79C76.8184 20.65 76.9864 20.58 77.1917 20.58C77.3877 20.58 77.5511 20.65 77.6817 20.79C77.8217 20.9207 77.8917 21.0887 77.8917 21.294V25.074C77.8917 25.69 78.0271 26.1427 78.2977 26.432C78.5684 26.712 78.9697 26.852 79.5017 26.852C79.8564 26.852 80.1644 26.7773 80.4257 26.628C80.6871 26.4787 80.8924 26.2733 81.0417 26.012C81.1911 25.7413 81.2657 25.4287 81.2657 25.074V21.294C81.2657 21.0887 81.3311 20.9207 81.4617 20.79C81.6017 20.65 81.7697 20.58 81.9657 20.58ZM87.7905 28.14C87.1185 28.14 86.5212 28.0467 85.9985 27.86C85.4758 27.6733 84.9765 27.3653 84.5005 26.936C84.3978 26.8613 84.3185 26.7727 84.2625 26.67C84.2158 26.558 84.1925 26.446 84.1925 26.334C84.1925 26.1567 84.2578 25.998 84.3885 25.858C84.5192 25.718 84.6825 25.648 84.8785 25.648C85.0278 25.648 85.1678 25.6993 85.2985 25.802C85.6532 26.1287 86.0218 26.376 86.4045 26.544C86.7965 26.712 87.2538 26.796 87.7765 26.796C88.1498 26.796 88.4905 26.7353 88.7985 26.614C89.1158 26.4927 89.3678 26.3293 89.5545 26.124C89.7412 25.9187 89.8345 25.6807 89.8345 25.41C89.8345 25.074 89.7365 24.7987 89.5405 24.584C89.3538 24.36 89.0785 24.178 88.7145 24.038C88.3598 23.8887 87.9305 23.7627 87.4265 23.66C86.9598 23.576 86.5398 23.4593 86.1665 23.31C85.8025 23.1607 85.4898 22.974 85.2285 22.75C84.9672 22.5167 84.7665 22.2413 84.6265 21.924C84.4865 21.6067 84.4165 21.238 84.4165 20.818C84.4165 20.2487 84.5658 19.7587 84.8645 19.348C85.1632 18.9373 85.5692 18.62 86.0825 18.396C86.5958 18.172 87.1745 18.06 87.8185 18.06C88.4065 18.06 88.9572 18.1533 89.4705 18.34C89.9838 18.5173 90.3992 18.76 90.7165 19.068C90.9405 19.264 91.0525 19.474 91.0525 19.698C91.0525 19.866 90.9825 20.0247 90.8425 20.174C90.7118 20.314 90.5578 20.384 90.3805 20.384C90.2498 20.384 90.1378 20.3467 90.0445 20.272C89.8952 20.1133 89.6945 19.9733 89.4425 19.852C89.1905 19.7213 88.9198 19.614 88.6305 19.53C88.3505 19.446 88.0798 19.404 87.8185 19.404C87.3985 19.404 87.0392 19.4647 86.7405 19.586C86.4418 19.698 86.2132 19.8567 86.0545 20.062C85.8958 20.258 85.8165 20.4913 85.8165 20.762C85.8165 21.0793 85.9052 21.3407 86.0825 21.546C86.2692 21.7513 86.5258 21.9193 86.8525 22.05C87.1792 22.1713 87.5525 22.2833 87.9725 22.386C88.4858 22.498 88.9432 22.624 89.3445 22.764C89.7552 22.904 90.1005 23.086 90.3805 23.31C90.6605 23.5247 90.8752 23.7953 91.0245 24.122C91.1738 24.4487 91.2485 24.8547 91.2485 25.34C91.2485 25.9 91.0898 26.39 90.7725 26.81C90.4552 27.23 90.0352 27.5567 89.5125 27.79C88.9992 28.0233 88.4252 28.14 87.7905 28.14ZM102.154 28.518C102.322 28.518 102.471 28.5833 102.602 28.714C102.742 28.854 102.812 29.0127 102.812 29.19C102.812 29.386 102.719 29.5727 102.532 29.75C102.355 29.9273 102.121 30.086 101.832 30.226C101.552 30.366 101.253 30.4733 100.936 30.548C100.628 30.632 100.343 30.674 100.082 30.674C99.5126 30.674 99.0506 30.618 98.6959 30.506C98.3413 30.394 98.0426 30.268 97.7999 30.128C97.5573 29.988 97.3193 29.862 97.0859 29.75C96.8619 29.638 96.5913 29.582 96.2739 29.582C96.0966 29.582 95.9519 29.61 95.8399 29.666C95.7279 29.722 95.6113 29.778 95.4899 29.834C95.3686 29.8993 95.2146 29.932 95.0279 29.932C94.8319 29.932 94.6686 29.8573 94.5379 29.708C94.4073 29.5587 94.3419 29.3953 94.3419 29.218C94.3419 28.9193 94.4773 28.7187 94.7479 28.616L97.4779 27.608L98.7519 27.832L96.1899 28.756L96.7919 28.378C97.1373 28.378 97.4406 28.4293 97.7019 28.532C97.9726 28.6347 98.2293 28.7513 98.4719 28.882C98.7239 29.022 98.9806 29.1433 99.2419 29.246C99.5033 29.3487 99.8066 29.4 100.152 29.4C100.441 29.4 100.684 29.3533 100.88 29.26C101.076 29.1667 101.239 29.0733 101.37 28.98C101.529 28.868 101.664 28.7607 101.776 28.658C101.897 28.5647 102.023 28.518 102.154 28.518ZM101.902 23.1C101.902 23.8093 101.785 24.472 101.552 25.088C101.319 25.6947 100.987 26.2267 100.558 26.684C100.138 27.1413 99.6386 27.5007 99.0599 27.762C98.4813 28.014 97.8466 28.14 97.1559 28.14C96.4746 28.14 95.8446 28.014 95.2659 27.762C94.6873 27.5007 94.1833 27.1413 93.7539 26.684C93.3339 26.2267 93.0073 25.6947 92.7739 25.088C92.5499 24.472 92.4379 23.8093 92.4379 23.1C92.4379 22.3907 92.5499 21.7327 92.7739 21.126C93.0073 20.51 93.3339 19.9733 93.7539 19.516C94.1833 19.0587 94.6873 18.704 95.2659 18.452C95.8446 18.1907 96.4746 18.06 97.1559 18.06C97.8466 18.06 98.4813 18.1907 99.0599 18.452C99.6386 18.704 100.138 19.0587 100.558 19.516C100.987 19.9733 101.319 20.51 101.552 21.126C101.785 21.7327 101.902 22.3907 101.902 23.1ZM100.39 23.1C100.39 22.4093 100.25 21.7887 99.9699 21.238C99.6993 20.6873 99.3213 20.2533 98.8359 19.936C98.3506 19.6187 97.7906 19.46 97.1559 19.46C96.5306 19.46 95.9753 19.6187 95.4899 19.936C95.0046 20.2533 94.6266 20.6873 94.3559 21.238C94.0853 21.7793 93.9499 22.4 93.9499 23.1C93.9499 23.7907 94.0853 24.4113 94.3559 24.962C94.6266 25.5127 95.0046 25.9467 95.4899 26.264C95.9753 26.5813 96.5306 26.74 97.1559 26.74C97.7906 26.74 98.3506 26.5813 98.8359 26.264C99.3213 25.9467 99.6993 25.5127 99.9699 24.962C100.25 24.4113 100.39 23.7907 100.39 23.1ZM109.052 26.628C109.248 26.628 109.411 26.6933 109.542 26.824C109.682 26.9547 109.752 27.118 109.752 27.314C109.752 27.51 109.682 27.6733 109.542 27.804C109.411 27.9347 109.248 28 109.052 28H104.348C104.143 28 103.97 27.9347 103.83 27.804C103.699 27.664 103.634 27.4913 103.634 27.286V18.914C103.634 18.7087 103.704 18.5407 103.844 18.41C103.984 18.27 104.166 18.2 104.39 18.2C104.577 18.2 104.74 18.27 104.88 18.41C105.029 18.5407 105.104 18.7087 105.104 18.914V26.866L104.81 26.628H109.052Z" fill="white"/>
<defs>
<linearGradient id="paint0_linear_1428_3428" x1="0" y1="23" x2="141" y2="23" gradientUnits="userSpaceOnUse">
<stop stop-color="#2B3631"/>
<stop offset="1" stop-color="#496A56"/>
</linearGradient>
<clipPath id="clip0_1428_3428">
<rect width="26" height="26" fill="white" transform="translate(30 10)"/>
</clipPath>
</defs>
</svg>
