<svg width="142" height="46" viewBox="0 0 142 46" fill="none" xmlns="http://www.w3.org/2000/svg">
<rect width="142" height="46" rx="23" fill="url(#paint0_linear_1430_3420)" fill-opacity="0.76"/>
<path d="M41.7728 16.4812L38.0873 14.6211L34.041 16.6399L37.8273 18.5406L41.7728 16.4812Z" fill="white"/>
<path d="M43.4632 17.3359L47.3274 19.2876L43.318 21.3004L39.5264 19.3964L43.4632 17.3359Z" fill="white"/>
<path d="M48.6246 14.6484L52.595 16.6396L49.0433 18.4222L45.1709 16.469L48.6246 14.6484Z" fill="white"/>
<path d="M46.9156 13.7929L43.3411 12L39.8057 13.7647L43.489 15.6221L46.9156 13.7929Z" fill="white"/>
<path d="M44.1211 29.1863V34.064L48.4506 31.9028L48.4468 27.0234L44.1211 29.1863Z" fill="white"/>
<path d="M48.4447 25.3162L48.4398 20.4883L44.1211 22.6349V27.4649L48.4447 25.3162Z" fill="white"/>
<path d="M53.6436 24.4141V29.3102L49.95 31.1529L49.9473 26.279L53.6436 24.4141Z" fill="white"/>
<path d="M53.643 22.7004V17.9023L49.9424 19.7418L49.9456 24.5795L53.643 22.7004Z" fill="white"/>
<path d="M42.5929 22.6367L39.6766 21.1699V27.5068C39.6766 27.5068 36.1092 19.917 35.7793 19.2356C35.7365 19.1473 35.5621 19.0509 35.5171 19.027C34.8742 18.6912 33 17.7422 33 17.7422V28.9417L35.593 30.3316V24.4751C35.593 24.4751 39.1219 31.2568 39.1582 31.331C39.1945 31.4052 39.5471 32.1191 39.9263 32.3704C40.4295 32.7052 42.5907 34.0041 42.5907 34.0041L42.5929 22.6367Z" fill="white"/>
<path d="M72.484 18.2C72.6707 18.2 72.82 18.2653 72.932 18.396C73.0533 18.5173 73.114 18.6713 73.114 18.858V27.286C73.114 27.4913 73.044 27.664 72.904 27.804C72.7733 27.9347 72.6053 28 72.4 28C72.3067 28 72.204 27.9813 72.092 27.944C71.9893 27.9067 71.91 27.8553 71.854 27.79L66.1 20.328L66.422 20.146V27.356C66.422 27.5333 66.3613 27.6873 66.24 27.818C66.1187 27.9393 65.9647 28 65.778 28C65.582 28 65.4233 27.9393 65.302 27.818C65.19 27.6873 65.134 27.5333 65.134 27.356V18.914C65.134 18.6993 65.204 18.5267 65.344 18.396C65.484 18.2653 65.652 18.2 65.848 18.2C65.9507 18.2 66.058 18.2233 66.17 18.27C66.2913 18.3073 66.38 18.368 66.436 18.452L72.05 25.76L71.84 25.956V18.858C71.84 18.6713 71.9007 18.5173 72.022 18.396C72.1433 18.2653 72.2973 18.2 72.484 18.2ZM80.7356 20.636C80.9316 20.636 81.0949 20.706 81.2256 20.846C81.3656 20.9767 81.4356 21.1447 81.4356 21.35V25.032C81.4356 26.0027 81.1649 26.7633 80.6236 27.314C80.0822 27.8553 79.3169 28.126 78.3276 28.126C77.3476 28.126 76.5869 27.8553 76.0456 27.314C75.5136 26.7633 75.2476 26.0027 75.2476 25.032V21.35C75.2476 21.1447 75.3129 20.9767 75.4436 20.846C75.5742 20.706 75.7422 20.636 75.9476 20.636C76.1436 20.636 76.3069 20.706 76.4376 20.846C76.5776 20.9767 76.6476 21.1447 76.6476 21.35V25.032C76.6476 25.6387 76.7876 26.0913 77.0676 26.39C77.3569 26.6887 77.7769 26.838 78.3276 26.838C78.8876 26.838 79.3122 26.6887 79.6016 26.39C79.8909 26.0913 80.0356 25.6387 80.0356 25.032V21.35C80.0356 21.1447 80.1009 20.9767 80.2316 20.846C80.3622 20.706 80.5302 20.636 80.7356 20.636ZM87.0783 20.51C87.769 20.51 88.301 20.6827 88.6743 21.028C89.0477 21.364 89.295 21.8213 89.4163 22.4L89.1923 22.33L89.2903 22.106C89.4117 21.8633 89.5937 21.6207 89.8363 21.378C90.0883 21.126 90.387 20.9207 90.7323 20.762C91.0777 20.594 91.4463 20.51 91.8383 20.51C92.4823 20.51 92.9817 20.65 93.3363 20.93C93.691 21.2007 93.9383 21.5693 94.0783 22.036C94.2183 22.4933 94.2883 23.0067 94.2883 23.576V27.286C94.2883 27.4913 94.223 27.664 94.0923 27.804C93.9617 27.9347 93.7937 28 93.5883 28C93.3923 28 93.2243 27.9347 93.0843 27.804C92.9537 27.664 92.8883 27.4913 92.8883 27.286V23.59C92.8883 23.2633 92.8417 22.9647 92.7483 22.694C92.6643 22.4233 92.5103 22.2087 92.2863 22.05C92.0717 21.882 91.773 21.798 91.3903 21.798C91.0263 21.798 90.6997 21.882 90.4103 22.05C90.1303 22.2087 89.911 22.4233 89.7523 22.694C89.5937 22.9647 89.5143 23.2633 89.5143 23.59V27.286C89.5143 27.4913 89.449 27.664 89.3183 27.804C89.1877 27.9347 89.0197 28 88.8143 28C88.609 28 88.441 27.9347 88.3103 27.804C88.1797 27.664 88.1143 27.4913 88.1143 27.286V23.576C88.1143 23.2493 88.0677 22.9507 87.9743 22.68C87.8903 22.4093 87.741 22.1947 87.5263 22.036C87.3117 21.8773 87.013 21.798 86.6303 21.798C86.2663 21.798 85.9443 21.8773 85.6643 22.036C85.3843 22.1947 85.165 22.4093 85.0063 22.68C84.857 22.9507 84.7823 23.2493 84.7823 23.576V27.286C84.7823 27.4913 84.7123 27.664 84.5723 27.804C84.4417 27.9347 84.2783 28 84.0823 28C83.877 28 83.709 27.9347 83.5783 27.804C83.4477 27.664 83.3823 27.4913 83.3823 27.286V21.35C83.3823 21.1447 83.4477 20.9767 83.5783 20.846C83.709 20.706 83.877 20.636 84.0823 20.636C84.2783 20.636 84.4417 20.706 84.5723 20.846C84.7123 20.9767 84.7823 21.1447 84.7823 21.35V22.176L84.5163 22.33C84.5817 22.1247 84.689 21.9147 84.8383 21.7C84.9877 21.4853 85.1743 21.2893 85.3983 21.112C85.6317 20.9347 85.8883 20.79 86.1683 20.678C86.4483 20.566 86.7517 20.51 87.0783 20.51ZM100.35 18.2C100.844 18.2 101.302 18.3353 101.722 18.606C102.142 18.8673 102.478 19.2267 102.73 19.684C102.982 20.1413 103.108 20.6547 103.108 21.224C103.108 21.7933 102.982 22.3113 102.73 22.778C102.478 23.2353 102.142 23.604 101.722 23.884C101.302 24.1547 100.844 24.29 100.35 24.29H97.6476L97.7596 24.066V27.286C97.7596 27.4913 97.6942 27.664 97.5636 27.804C97.4422 27.9347 97.2789 28 97.0736 28C96.8776 28 96.7142 27.9347 96.5836 27.804C96.4622 27.664 96.4016 27.4913 96.4016 27.286V18.914C96.4016 18.7087 96.4716 18.5407 96.6116 18.41C96.7516 18.27 96.9196 18.2 97.1156 18.2H100.35ZM100.35 22.946C100.592 22.946 100.812 22.8667 101.008 22.708C101.213 22.5493 101.376 22.3393 101.498 22.078C101.628 21.8167 101.694 21.532 101.694 21.224C101.694 20.916 101.628 20.636 101.498 20.384C101.376 20.132 101.213 19.9313 101.008 19.782C100.812 19.6233 100.592 19.544 100.35 19.544H97.6196L97.7596 19.334V23.128L97.6336 22.946H100.35ZM110.267 20.58C110.472 20.58 110.64 20.65 110.771 20.79C110.901 20.9207 110.967 21.0887 110.967 21.294V27.314C110.967 28.1353 110.808 28.8027 110.491 29.316C110.183 29.8293 109.763 30.2027 109.231 30.436C108.708 30.6787 108.115 30.8 107.453 30.8C107.117 30.8 106.781 30.7673 106.445 30.702C106.109 30.646 105.833 30.562 105.619 30.45C105.395 30.3473 105.236 30.2213 105.143 30.072C105.049 29.9227 105.035 29.7593 105.101 29.582C105.166 29.358 105.278 29.204 105.437 29.12C105.595 29.0453 105.759 29.0407 105.927 29.106C106.085 29.1713 106.295 29.2553 106.557 29.358C106.818 29.4607 107.117 29.512 107.453 29.512C107.91 29.512 108.297 29.4373 108.615 29.288C108.932 29.1387 109.17 28.9053 109.329 28.588C109.497 28.2707 109.581 27.86 109.581 27.356V26.39L109.805 26.726C109.655 27.034 109.459 27.2907 109.217 27.496C108.974 27.7013 108.685 27.86 108.349 27.972C108.022 28.084 107.658 28.14 107.257 28.14C106.743 28.14 106.3 28.028 105.927 27.804C105.563 27.5707 105.283 27.2533 105.087 26.852C104.891 26.4413 104.793 25.9747 104.793 25.452V21.294C104.793 21.0887 104.858 20.9207 104.989 20.79C105.119 20.65 105.287 20.58 105.493 20.58C105.689 20.58 105.852 20.65 105.983 20.79C106.123 20.9207 106.193 21.0887 106.193 21.294V25.074C106.193 25.69 106.328 26.1427 106.599 26.432C106.869 26.712 107.271 26.852 107.803 26.852C108.157 26.852 108.465 26.7773 108.727 26.628C108.988 26.4787 109.193 26.2733 109.343 26.012C109.492 25.7413 109.567 25.4287 109.567 25.074V21.294C109.567 21.0887 109.632 20.9207 109.763 20.79C109.903 20.65 110.071 20.58 110.267 20.58Z" fill="white"/>
<defs>
<linearGradient id="paint0_linear_1430_3420" x1="0" y1="23" x2="142" y2="23" gradientUnits="userSpaceOnUse">
<stop stop-color="#2B3631"/>
<stop offset="1" stop-color="#496A56"/>
</linearGradient>
</defs>
</svg>
