<svg width="149" height="46" viewBox="0 0 149 46" fill="none" xmlns="http://www.w3.org/2000/svg">
<rect width="149" height="46" rx="23" fill="url(#paint0_linear_1428_3614)" fill-opacity="0.76"/>
<path d="M52.9269 23.5273C54.7559 24.5992 55.985 26.5797 55.9888 28.8474C55.9953 32.2609 53.2229 35.0332 49.7976 35.0386C46.3723 35.0451 43.5903 32.2822 43.584 28.8687C43.5799 26.601 44.8019 24.6167 46.6276 23.5375L48.4098 26.5393C48.4543 26.6144 48.4289 26.7113 48.3566 26.7607C47.6822 27.2177 47.2402 27.9888 47.2419 28.8624C47.2443 30.263 48.3861 31.3968 49.7911 31.3936C51.1965 31.3911 52.3334 30.254 52.331 28.8537C52.3295 27.9802 51.8851 27.2104 51.2091 26.7558C51.137 26.7067 51.1108 26.6098 51.1551 26.5344L52.9269 23.5273Z" fill="white"/>
<path d="M39.2372 23.4925C38.3117 22.9759 37.2692 22.7055 36.2093 22.707C32.7831 22.707 30.0068 25.4746 30.0068 28.8881C30.0068 32.3014 32.7831 35.0692 36.2093 35.0692C39.6514 35.0692 42.496 32.157 42.4094 28.7293H38.9181C38.8261 28.7293 38.754 28.8071 38.7532 28.8983C38.7445 30.2639 37.6011 31.4239 36.2093 31.4239C34.8032 31.4239 33.6647 30.2885 33.6647 28.8879C33.6647 27.4876 34.8032 26.3521 36.2093 26.3521C36.5767 26.3521 36.9267 26.4299 37.2424 26.5703C37.3201 26.6044 37.4122 26.5784 37.455 26.5061L39.2372 23.4925Z" fill="white"/>
<path d="M39.7389 22.5222C37.9124 21.4471 36.6865 19.4644 36.6865 17.1967C36.6865 13.7832 39.4636 11.0156 42.8889 11.0156C46.3142 11.0156 49.0914 13.7832 49.0914 17.1967C49.0914 19.4644 47.8655 21.4471 46.039 22.5222L44.2615 19.5184C44.217 19.4433 44.2424 19.3464 44.3155 19.297C44.9899 18.8408 45.4333 18.0704 45.4333 17.1967C45.4333 15.7964 44.294 14.6609 42.8887 14.6609C41.4835 14.6609 40.3442 15.7964 40.3442 17.1969C40.3442 18.0704 40.7876 18.8408 41.4622 19.2972C41.5353 19.3464 41.5605 19.4431 41.516 19.5186L39.7389 22.5222Z" fill="white"/>
<path d="M74.066 23.1C74.066 23.8093 73.9493 24.472 73.716 25.088C73.4827 25.6947 73.1513 26.2267 72.722 26.684C72.302 27.1413 71.8027 27.5007 71.224 27.762C70.6453 28.014 70.0107 28.14 69.32 28.14C68.6387 28.14 68.0087 28.014 67.43 27.762C66.8513 27.5007 66.3473 27.1413 65.918 26.684C65.498 26.2267 65.1713 25.6947 64.938 25.088C64.714 24.472 64.602 23.8093 64.602 23.1C64.602 22.3907 64.714 21.7327 64.938 21.126C65.1713 20.51 65.498 19.9733 65.918 19.516C66.3473 19.0587 66.8513 18.704 67.43 18.452C68.0087 18.1907 68.6387 18.06 69.32 18.06C70.0107 18.06 70.6453 18.1907 71.224 18.452C71.8027 18.704 72.302 19.0587 72.722 19.516C73.1513 19.9733 73.4827 20.51 73.716 21.126C73.9493 21.7327 74.066 22.3907 74.066 23.1ZM72.554 23.1C72.554 22.4093 72.414 21.7887 72.134 21.238C71.8633 20.6873 71.4853 20.2533 71 19.936C70.5147 19.6187 69.9547 19.46 69.32 19.46C68.6947 19.46 68.1393 19.6187 67.654 19.936C67.1687 20.2533 66.7907 20.6873 66.52 21.238C66.2493 21.7793 66.114 22.4 66.114 23.1C66.114 23.7907 66.2493 24.4113 66.52 24.962C66.7907 25.5127 67.1687 25.9467 67.654 26.264C68.1393 26.5813 68.6947 26.74 69.32 26.74C69.9547 26.74 70.5147 26.5813 71 26.264C71.4853 25.9467 71.8633 25.5127 72.134 24.962C72.414 24.4113 72.554 23.7907 72.554 23.1ZM79.3404 20.51C79.9937 20.51 80.5724 20.6733 81.0764 21C81.5897 21.3267 81.9957 21.7747 82.2944 22.344C82.5931 22.904 82.7424 23.5573 82.7424 24.304C82.7424 25.0507 82.5931 25.7133 82.2944 26.292C81.9957 26.8613 81.5944 27.3093 81.0904 27.636C80.5864 27.9627 80.0171 28.126 79.3824 28.126C79.0277 28.126 78.6917 28.07 78.3744 27.958C78.0571 27.846 77.7771 27.7013 77.5344 27.524C77.2917 27.3373 77.0911 27.1413 76.9324 26.936C76.7831 26.7307 76.6897 26.5393 76.6524 26.362L77.0304 26.18V30.086C77.0304 30.2913 76.9604 30.4593 76.8204 30.59C76.6897 30.73 76.5264 30.8 76.3304 30.8C76.1251 30.8 75.9571 30.73 75.8264 30.59C75.6957 30.4593 75.6304 30.2913 75.6304 30.086V21.322C75.6304 21.126 75.6957 20.958 75.8264 20.818C75.9571 20.678 76.1251 20.608 76.3304 20.608C76.5264 20.608 76.6897 20.678 76.8204 20.818C76.9604 20.958 77.0304 21.126 77.0304 21.322V22.288L76.8064 22.162C76.8344 21.9847 76.9231 21.8027 77.0724 21.616C77.2217 21.42 77.4084 21.238 77.6324 21.07C77.8657 20.902 78.1271 20.7667 78.4164 20.664C78.7151 20.5613 79.0231 20.51 79.3404 20.51ZM79.1864 21.798C78.7384 21.798 78.3464 21.91 78.0104 22.134C77.6837 22.3487 77.4271 22.6427 77.2404 23.016C77.0537 23.3893 76.9604 23.8187 76.9604 24.304C76.9604 24.78 77.0537 25.214 77.2404 25.606C77.4271 25.9887 77.6837 26.292 78.0104 26.516C78.3464 26.7307 78.7384 26.838 79.1864 26.838C79.6251 26.838 80.0077 26.7307 80.3344 26.516C80.6611 26.292 80.9177 25.9887 81.1044 25.606C81.3004 25.214 81.3984 24.78 81.3984 24.304C81.3984 23.828 81.3004 23.4033 81.1044 23.03C80.9177 22.6473 80.6611 22.3487 80.3344 22.134C80.0077 21.91 79.6251 21.798 79.1864 21.798ZM87.7557 28.14C86.981 28.14 86.309 27.9813 85.7397 27.664C85.1704 27.3373 84.727 26.894 84.4097 26.334C84.1017 25.7647 83.9477 25.116 83.9477 24.388C83.9477 23.5667 84.111 22.8667 84.4377 22.288C84.7737 21.7 85.2077 21.252 85.7397 20.944C86.2717 20.6267 86.8364 20.468 87.4337 20.468C87.891 20.468 88.325 20.5613 88.7357 20.748C89.1464 20.9253 89.5104 21.1773 89.8277 21.504C90.1544 21.8213 90.411 22.1993 90.5977 22.638C90.7844 23.0673 90.8824 23.5387 90.8917 24.052C90.8824 24.2387 90.8077 24.3927 90.6677 24.514C90.5277 24.6353 90.3644 24.696 90.1777 24.696H84.7317L84.3957 23.506H89.6597L89.3937 23.758V23.408C89.375 23.0813 89.2677 22.7967 89.0717 22.554C88.8757 22.302 88.633 22.1107 88.3437 21.98C88.0544 21.84 87.751 21.77 87.4337 21.77C87.1537 21.77 86.883 21.8167 86.6217 21.91C86.3697 21.994 86.141 22.134 85.9357 22.33C85.7397 22.526 85.581 22.7873 85.4597 23.114C85.3477 23.4313 85.2917 23.828 85.2917 24.304C85.2917 24.8173 85.399 25.2653 85.6137 25.648C85.8284 26.0307 86.1177 26.3293 86.4817 26.544C86.8457 26.7493 87.247 26.852 87.6857 26.852C88.031 26.852 88.3157 26.8193 88.5397 26.754C88.7637 26.6793 88.9504 26.5907 89.0997 26.488C89.249 26.3853 89.3797 26.2873 89.4917 26.194C89.6317 26.11 89.7717 26.068 89.9117 26.068C90.0797 26.068 90.2197 26.1287 90.3317 26.25C90.4437 26.362 90.4997 26.4973 90.4997 26.656C90.4997 26.8613 90.397 27.048 90.1917 27.216C89.9397 27.4587 89.5897 27.6733 89.1417 27.86C88.703 28.0467 88.241 28.14 87.7557 28.14ZM96.2681 20.468C96.9308 20.468 97.4441 20.608 97.8081 20.888C98.1721 21.1587 98.4241 21.5273 98.5641 21.994C98.7135 22.4513 98.7881 22.9647 98.7881 23.534V27.286C98.7881 27.4913 98.7181 27.664 98.5781 27.804C98.4475 27.9347 98.2841 28 98.0881 28C97.8828 28 97.7148 27.9347 97.5841 27.804C97.4535 27.664 97.3881 27.4913 97.3881 27.286V23.548C97.3881 23.212 97.3415 22.9133 97.2481 22.652C97.1548 22.3813 96.9915 22.1667 96.7581 22.008C96.5341 21.84 96.2168 21.756 95.8061 21.756C95.4235 21.756 95.0875 21.84 94.7981 22.008C94.5088 22.1667 94.2801 22.3813 94.1121 22.652C93.9535 22.9133 93.8741 23.212 93.8741 23.548V27.286C93.8741 27.4913 93.8041 27.664 93.6641 27.804C93.5335 27.9347 93.3701 28 93.1741 28C92.9688 28 92.8008 27.9347 92.6701 27.804C92.5395 27.664 92.4741 27.4913 92.4741 27.286V21.35C92.4741 21.1447 92.5395 20.9767 92.6701 20.846C92.8008 20.706 92.9688 20.636 93.1741 20.636C93.3701 20.636 93.5335 20.706 93.6641 20.846C93.8041 20.9767 93.8741 21.1447 93.8741 21.35V22.134L93.6221 22.274C93.6875 22.0687 93.7995 21.8633 93.9581 21.658C94.1261 21.4433 94.3268 21.2473 94.5601 21.07C94.7935 20.8833 95.0548 20.7387 95.3441 20.636C95.6335 20.524 95.9415 20.468 96.2681 20.468ZM107.844 18.76C108.049 18.8627 108.166 19.0213 108.194 19.236C108.231 19.4507 108.18 19.6467 108.04 19.824C107.937 19.964 107.802 20.0433 107.634 20.062C107.475 20.0807 107.317 20.048 107.158 19.964C106.887 19.824 106.603 19.712 106.304 19.628C106.005 19.544 105.688 19.502 105.352 19.502C104.82 19.502 104.339 19.5907 103.91 19.768C103.49 19.936 103.126 20.1833 102.818 20.51C102.51 20.8273 102.272 21.2053 102.104 21.644C101.945 22.0827 101.866 22.568 101.866 23.1C101.866 23.688 101.955 24.2107 102.132 24.668C102.309 25.116 102.552 25.4987 102.86 25.816C103.177 26.124 103.546 26.3573 103.966 26.516C104.395 26.6653 104.857 26.74 105.352 26.74C105.669 26.74 105.977 26.7027 106.276 26.628C106.584 26.5533 106.873 26.4413 107.144 26.292C107.312 26.208 107.475 26.18 107.634 26.208C107.802 26.2267 107.937 26.306 108.04 26.446C108.199 26.642 108.255 26.8427 108.208 27.048C108.171 27.244 108.054 27.3933 107.858 27.496C107.625 27.6267 107.368 27.7387 107.088 27.832C106.808 27.9253 106.523 28 106.234 28.056C105.945 28.112 105.651 28.14 105.352 28.14C104.68 28.14 104.045 28.028 103.448 27.804C102.851 27.58 102.319 27.2533 101.852 26.824C101.385 26.3947 101.017 25.8673 100.746 25.242C100.485 24.6167 100.354 23.9027 100.354 23.1C100.354 22.3813 100.475 21.7187 100.718 21.112C100.97 20.496 101.32 19.9687 101.768 19.53C102.225 19.082 102.757 18.7367 103.364 18.494C103.971 18.242 104.633 18.116 105.352 18.116C105.8 18.116 106.234 18.172 106.654 18.284C107.083 18.396 107.48 18.5547 107.844 18.76ZM116.926 18.172C117.122 18.172 117.29 18.2373 117.43 18.368C117.57 18.4987 117.64 18.6573 117.64 18.844C117.64 18.9467 117.617 19.054 117.57 19.166L114.028 27.538C113.954 27.6967 113.851 27.8133 113.72 27.888C113.599 27.9627 113.473 28 113.342 28C113.212 27.9907 113.086 27.9487 112.964 27.874C112.852 27.7993 112.764 27.692 112.698 27.552L109.156 19.166C109.138 19.1193 109.124 19.0727 109.114 19.026C109.105 18.97 109.1 18.914 109.1 18.858C109.1 18.6433 109.18 18.4753 109.338 18.354C109.497 18.2327 109.651 18.172 109.8 18.172C110.099 18.172 110.318 18.326 110.458 18.634L113.664 26.236H113.258L116.282 18.62C116.413 18.3213 116.628 18.172 116.926 18.172Z" fill="white"/>
<defs>
<linearGradient id="paint0_linear_1428_3614" x1="0" y1="23" x2="149" y2="23" gradientUnits="userSpaceOnUse">
<stop stop-color="#2B3631"/>
<stop offset="1" stop-color="#496A56"/>
</linearGradient>
</defs>
</svg>
