<svg width="144" height="46" viewBox="0 0 144 46" fill="none" xmlns="http://www.w3.org/2000/svg">
<rect width="144" height="46" rx="23" fill="url(#paint0_linear_1430_3476)" fill-opacity="0.76"/>
<path d="M42.4583 12.1641H39.75V17.5807H42.4583V12.1641Z" fill="white"/>
<path d="M42.4583 23.5391H39.75V28.9557H42.4583V23.5391Z" fill="white"/>
<path d="M42.4583 19.207H39.75V21.9154H42.4583V19.207Z" fill="white"/>
<path d="M38.1253 17.0391H35.417V34.9141H38.1253V17.0391Z" fill="white"/>
<path d="M46.7923 27.875H44.084V33.2917H46.7923V27.875Z" fill="white"/>
<path d="M46.7923 16.5H44.084V21.9167H46.7923V16.5Z" fill="white"/>
<path d="M46.7923 23.5391H44.084V26.2474H46.7923V23.5391Z" fill="white"/>
<path d="M51.1253 11.082H48.417V28.957H51.1253V11.082Z" fill="white"/>
<path d="M69.082 18.2C69.5767 18.2 70.034 18.3353 70.454 18.606C70.874 18.8673 71.21 19.2267 71.462 19.684C71.714 20.1413 71.84 20.6547 71.84 21.224C71.84 21.7933 71.714 22.3113 71.462 22.778C71.21 23.2353 70.874 23.604 70.454 23.884C70.034 24.1547 69.5767 24.29 69.082 24.29H66.38L66.492 24.066V27.286C66.492 27.4913 66.4267 27.664 66.296 27.804C66.1747 27.9347 66.0113 28 65.806 28C65.61 28 65.4467 27.9347 65.316 27.804C65.1947 27.664 65.134 27.4913 65.134 27.286V18.914C65.134 18.7087 65.204 18.5407 65.344 18.41C65.484 18.27 65.652 18.2 65.848 18.2H69.082ZM69.082 22.946C69.3247 22.946 69.544 22.8667 69.74 22.708C69.9453 22.5493 70.1087 22.3393 70.23 22.078C70.3607 21.8167 70.426 21.532 70.426 21.224C70.426 20.916 70.3607 20.636 70.23 20.384C70.1087 20.132 69.9453 19.9313 69.74 19.782C69.544 19.6233 69.3247 19.544 69.082 19.544H66.352L66.492 19.334V23.128L66.366 22.946H69.082ZM79.3538 20.524C79.5592 20.524 79.7272 20.594 79.8578 20.734C79.9885 20.8647 80.0538 21.0327 80.0538 21.238V27.286C80.0538 27.4913 79.9885 27.664 79.8578 27.804C79.7272 27.9347 79.5592 28 79.3538 28C79.1578 28 78.9898 27.9347 78.8498 27.804C78.7192 27.664 78.6538 27.4913 78.6538 27.286V26.278L78.9478 26.32C78.9478 26.488 78.8778 26.6747 78.7378 26.88C78.6072 27.0853 78.4252 27.286 78.1918 27.482C77.9585 27.6687 77.6832 27.8273 77.3658 27.958C77.0485 28.0793 76.7078 28.14 76.3438 28.14C75.6998 28.14 75.1212 27.9767 74.6078 27.65C74.0945 27.314 73.6885 26.8567 73.3898 26.278C73.0912 25.6993 72.9418 25.0413 72.9418 24.304C72.9418 23.548 73.0912 22.8853 73.3898 22.316C73.6885 21.7373 74.0898 21.2847 74.5938 20.958C75.1072 20.6313 75.6765 20.468 76.3018 20.468C76.7032 20.468 77.0718 20.5333 77.4078 20.664C77.7532 20.7947 78.0518 20.9627 78.3038 21.168C78.5558 21.3733 78.7472 21.5927 78.8778 21.826C79.0178 22.05 79.0878 22.2647 79.0878 22.47L78.6538 22.512V21.238C78.6538 21.042 78.7192 20.874 78.8498 20.734C78.9898 20.594 79.1578 20.524 79.3538 20.524ZM76.4978 26.852C76.9365 26.852 77.3238 26.74 77.6598 26.516C77.9958 26.292 78.2572 25.9887 78.4438 25.606C78.6305 25.214 78.7238 24.78 78.7238 24.304C78.7238 23.8187 78.6305 23.3847 78.4438 23.002C78.2572 22.6193 77.9958 22.316 77.6598 22.092C77.3238 21.868 76.9365 21.756 76.4978 21.756C76.0685 21.756 75.6858 21.868 75.3498 22.092C75.0232 22.316 74.7618 22.6193 74.5658 23.002C74.3792 23.3847 74.2858 23.8187 74.2858 24.304C74.2858 24.78 74.3792 25.214 74.5658 25.606C74.7618 25.9887 75.0232 26.292 75.3498 26.516C75.6858 26.74 76.0685 26.852 76.4978 26.852ZM85.8092 20.468C86.4718 20.468 86.9852 20.608 87.3492 20.888C87.7132 21.1587 87.9652 21.5273 88.1052 21.994C88.2545 22.4513 88.3292 22.9647 88.3292 23.534V27.286C88.3292 27.4913 88.2592 27.664 88.1192 27.804C87.9885 27.9347 87.8252 28 87.6292 28C87.4238 28 87.2558 27.9347 87.1252 27.804C86.9945 27.664 86.9292 27.4913 86.9292 27.286V23.548C86.9292 23.212 86.8825 22.9133 86.7892 22.652C86.6958 22.3813 86.5325 22.1667 86.2992 22.008C86.0752 21.84 85.7578 21.756 85.3472 21.756C84.9645 21.756 84.6285 21.84 84.3392 22.008C84.0498 22.1667 83.8212 22.3813 83.6532 22.652C83.4945 22.9133 83.4152 23.212 83.4152 23.548V27.286C83.4152 27.4913 83.3452 27.664 83.2052 27.804C83.0745 27.9347 82.9112 28 82.7152 28C82.5098 28 82.3418 27.9347 82.2112 27.804C82.0805 27.664 82.0152 27.4913 82.0152 27.286V21.35C82.0152 21.1447 82.0805 20.9767 82.2112 20.846C82.3418 20.706 82.5098 20.636 82.7152 20.636C82.9112 20.636 83.0745 20.706 83.2052 20.846C83.3452 20.9767 83.4152 21.1447 83.4152 21.35V22.134L83.1632 22.274C83.2285 22.0687 83.3405 21.8633 83.4992 21.658C83.6672 21.4433 83.8678 21.2473 84.1012 21.07C84.3345 20.8833 84.5958 20.7387 84.8852 20.636C85.1745 20.524 85.4825 20.468 85.8092 20.468ZM96.307 17.64C96.5123 17.64 96.6803 17.7053 96.811 17.836C96.9416 17.9667 97.007 18.1393 97.007 18.354V27.286C97.007 27.4913 96.9416 27.664 96.811 27.804C96.6803 27.9347 96.5123 28 96.307 28C96.111 28 95.943 27.9347 95.803 27.804C95.6723 27.664 95.607 27.4913 95.607 27.286V26.278L95.901 26.292C95.901 26.46 95.831 26.6513 95.691 26.866C95.5603 27.0713 95.3783 27.272 95.145 27.468C94.9116 27.664 94.6363 27.8273 94.319 27.958C94.0016 28.0793 93.661 28.14 93.297 28.14C92.653 28.14 92.0743 27.9767 91.561 27.65C91.0476 27.314 90.6416 26.8613 90.343 26.292C90.0443 25.7133 89.895 25.0507 89.895 24.304C89.895 23.5573 90.0443 22.8993 90.343 22.33C90.6416 21.7513 91.043 21.2987 91.547 20.972C92.0603 20.636 92.6296 20.468 93.255 20.468C93.647 20.468 94.011 20.5333 94.347 20.664C94.6923 20.7947 94.991 20.9627 95.243 21.168C95.495 21.3733 95.691 21.5927 95.831 21.826C95.971 22.05 96.041 22.2647 96.041 22.47L95.607 22.512V18.354C95.607 18.1487 95.6723 17.9807 95.803 17.85C95.943 17.71 96.111 17.64 96.307 17.64ZM93.451 26.852C93.899 26.852 94.2863 26.74 94.613 26.516C94.949 26.292 95.2103 25.9887 95.397 25.606C95.5836 25.2233 95.677 24.7893 95.677 24.304C95.677 23.8187 95.5836 23.3847 95.397 23.002C95.2103 22.6193 94.949 22.316 94.613 22.092C94.277 21.868 93.8896 21.756 93.451 21.756C93.0216 21.756 92.639 21.868 92.303 22.092C91.9763 22.316 91.715 22.6193 91.519 23.002C91.3323 23.3847 91.239 23.8187 91.239 24.304C91.239 24.7893 91.3323 25.2233 91.519 25.606C91.715 25.9887 91.9763 26.292 92.303 26.516C92.639 26.74 93.0216 26.852 93.451 26.852ZM105.002 20.524C105.208 20.524 105.376 20.594 105.506 20.734C105.637 20.8647 105.702 21.0327 105.702 21.238V27.286C105.702 27.4913 105.637 27.664 105.506 27.804C105.376 27.9347 105.208 28 105.002 28C104.806 28 104.638 27.9347 104.498 27.804C104.368 27.664 104.302 27.4913 104.302 27.286V26.278L104.596 26.32C104.596 26.488 104.526 26.6747 104.386 26.88C104.256 27.0853 104.074 27.286 103.84 27.482C103.607 27.6687 103.332 27.8273 103.014 27.958C102.697 28.0793 102.356 28.14 101.992 28.14C101.348 28.14 100.77 27.9767 100.256 27.65C99.7429 27.314 99.3369 26.8567 99.0383 26.278C98.7396 25.6993 98.5903 25.0413 98.5903 24.304C98.5903 23.548 98.7396 22.8853 99.0383 22.316C99.3369 21.7373 99.7383 21.2847 100.242 20.958C100.756 20.6313 101.325 20.468 101.95 20.468C102.352 20.468 102.72 20.5333 103.056 20.664C103.402 20.7947 103.7 20.9627 103.952 21.168C104.204 21.3733 104.396 21.5927 104.526 21.826C104.666 22.05 104.736 22.2647 104.736 22.47L104.302 22.512V21.238C104.302 21.042 104.368 20.874 104.498 20.734C104.638 20.594 104.806 20.524 105.002 20.524ZM102.146 26.852C102.585 26.852 102.972 26.74 103.308 26.516C103.644 26.292 103.906 25.9887 104.092 25.606C104.279 25.214 104.372 24.78 104.372 24.304C104.372 23.8187 104.279 23.3847 104.092 23.002C103.906 22.6193 103.644 22.316 103.308 22.092C102.972 21.868 102.585 21.756 102.146 21.756C101.717 21.756 101.334 21.868 100.998 22.092C100.672 22.316 100.41 22.6193 100.214 23.002C100.028 23.3847 99.9343 23.8187 99.9343 24.304C99.9343 24.78 100.028 25.214 100.214 25.606C100.41 25.9887 100.672 26.292 100.998 26.516C101.334 26.74 101.717 26.852 102.146 26.852ZM107.23 26.852C107.146 26.7213 107.108 26.572 107.118 26.404C107.127 26.2267 107.225 26.0773 107.412 25.956C107.542 25.872 107.678 25.8393 107.818 25.858C107.967 25.8673 108.107 25.9373 108.238 26.068C108.499 26.3573 108.788 26.586 109.106 26.754C109.432 26.922 109.824 27.006 110.282 27.006C110.468 26.9967 110.66 26.9687 110.856 26.922C111.052 26.866 111.22 26.7727 111.36 26.642C111.5 26.502 111.57 26.3013 111.57 26.04C111.57 25.8067 111.495 25.62 111.346 25.48C111.196 25.34 111 25.228 110.758 25.144C110.515 25.0507 110.254 24.9667 109.974 24.892C109.675 24.808 109.372 24.7147 109.064 24.612C108.765 24.5093 108.494 24.3787 108.252 24.22C108.009 24.052 107.808 23.8373 107.65 23.576C107.5 23.3147 107.426 22.9927 107.426 22.61C107.426 22.1713 107.547 21.7933 107.79 21.476C108.042 21.1587 108.364 20.9113 108.756 20.734C109.157 20.5567 109.591 20.468 110.058 20.468C110.328 20.468 110.613 20.5053 110.912 20.58C111.21 20.6453 111.5 20.7527 111.78 20.902C112.06 21.0513 112.302 21.2473 112.508 21.49C112.601 21.6113 112.652 21.756 112.662 21.924C112.68 22.092 112.606 22.2413 112.438 22.372C112.326 22.4653 112.19 22.5073 112.032 22.498C111.873 22.4887 111.742 22.4373 111.64 22.344C111.462 22.12 111.234 21.9473 110.954 21.826C110.674 21.6953 110.356 21.63 110.002 21.63C109.824 21.63 109.638 21.658 109.442 21.714C109.255 21.7607 109.096 21.8493 108.966 21.98C108.835 22.1107 108.77 22.302 108.77 22.554C108.77 22.7873 108.844 22.974 108.994 23.114C109.152 23.254 109.358 23.3707 109.61 23.464C109.862 23.5573 110.137 23.6413 110.436 23.716C110.725 23.7907 111.01 23.8793 111.29 23.982C111.579 24.0847 111.836 24.22 112.06 24.388C112.293 24.5467 112.48 24.7567 112.62 25.018C112.769 25.27 112.844 25.592 112.844 25.984C112.844 26.4413 112.708 26.8333 112.438 27.16C112.176 27.4773 111.84 27.72 111.43 27.888C111.028 28.056 110.604 28.14 110.156 28.14C109.624 28.14 109.092 28.0467 108.56 27.86C108.037 27.664 107.594 27.328 107.23 26.852Z" fill="white"/>
<defs>
<linearGradient id="paint0_linear_1430_3476" x1="0" y1="23" x2="144" y2="23" gradientUnits="userSpaceOnUse">
<stop stop-color="#2B3631"/>
<stop offset="1" stop-color="#496A56"/>
</linearGradient>
</defs>
</svg>
