<svg width="173" height="46" viewBox="0 0 173 46" fill="none" xmlns="http://www.w3.org/2000/svg">
<rect width="173" height="46" rx="23" fill="url(#paint0_linear_1428_3442)" fill-opacity="0.76"/>
<g clip-path="url(#clip0_1428_3442)">
<path d="M49.0546 28.712C49.2141 27.385 49.1663 27.1902 50.1548 27.4053L50.4056 27.4272C51.1657 27.4618 52.16 27.305 52.7442 27.0336C54.0017 26.45 54.7472 25.476 53.5075 25.7318C50.6792 26.3153 50.4848 25.3576 50.4848 25.3576C53.4714 20.9264 54.7198 15.3013 53.642 13.9243C50.7028 10.1687 45.6151 11.9446 45.53 11.9906L45.5028 11.9956C44.944 11.8796 44.3186 11.8104 43.616 11.799C42.3361 11.7779 41.3649 12.1346 40.6282 12.6932C40.6282 12.6932 31.552 8.95384 31.9743 17.3957C32.064 19.1915 34.5483 30.9844 37.5114 27.4224C38.5945 26.1199 39.641 25.0186 39.641 25.0186C40.1606 25.3637 40.783 25.54 41.4354 25.4766L41.486 25.4336C41.4701 25.5953 41.477 25.7535 41.5061 25.9408C40.743 26.7937 40.9672 26.9434 39.4411 27.2574C37.897 27.5755 38.8041 28.142 39.3962 28.2901C40.1143 28.4697 41.7752 28.724 42.8977 27.153L42.853 27.3322C43.1524 27.5719 43.1323 29.0541 43.1746 30.113C43.217 31.1721 43.2879 32.1603 43.5038 32.743C43.7198 33.3256 43.9745 34.8263 45.9801 34.3965C47.6563 34.0381 48.9378 33.5212 49.0546 28.712Z" fill="black"/>
<path d="M45.3277 35.4438C44.4407 35.4438 43.863 35.1007 43.5122 34.7694C42.9827 34.2697 42.7726 33.626 42.6471 33.2415L42.5929 33.081C42.3402 32.3989 42.2545 31.4168 42.2037 30.1522C42.196 29.9622 42.1907 29.7666 42.1848 29.5592C42.1805 29.4075 42.1752 29.2172 42.1675 29.0181C41.8479 29.1705 41.5087 29.2777 41.1596 29.3366C40.5342 29.4435 39.8618 29.4089 39.1609 29.2336C38.6663 29.1099 38.1523 28.8536 37.8594 28.4577C37.0057 29.2054 36.1914 29.104 35.7478 28.956C34.9651 28.695 34.2647 27.9615 33.6064 26.7141C33.1374 25.8254 32.6838 24.6676 32.2581 23.2725C31.5167 20.8432 31.0456 18.2844 31.0038 17.4443C30.8721 14.8148 31.58 12.9343 33.1073 11.8555C35.5166 10.1537 39.167 11.1545 40.4978 11.6089C41.392 11.07 42.444 10.8078 43.6327 10.8267C44.2711 10.837 44.879 10.8931 45.4437 10.9938C46.0328 10.8086 47.1963 10.5427 48.5282 10.5593C50.9821 10.5886 53.0156 11.5449 54.4084 13.3249C55.4025 14.5948 54.911 17.2617 54.5297 18.7384C53.993 20.8155 53.0528 23.0247 51.8978 24.9479C52.2114 24.9501 52.6658 24.9126 53.3118 24.7791C54.5862 24.5161 54.9589 25.1994 55.0601 25.5053C55.4653 26.7326 53.7038 27.66 53.1543 27.9152C52.4503 28.242 51.3025 28.441 50.3624 28.398L50.3214 28.3953L50.0744 28.3736L50.05 28.5796L50.0264 28.7809C49.9633 31.2182 49.6151 32.7617 48.8987 33.7816C48.1477 34.8509 47.1041 35.1505 46.1847 35.3475C45.8711 35.4145 45.5861 35.4438 45.3277 35.4438ZM43.461 26.5731C44.0336 27.0314 44.0838 27.8936 44.1287 29.505C44.1344 29.7061 44.1397 29.8964 44.1468 30.0742C44.1683 30.6124 44.2189 31.8728 44.4163 32.4054C44.4441 32.4808 44.4691 32.5572 44.4955 32.6382C44.7155 33.3118 44.8258 33.6496 45.7771 33.4462C46.5755 33.275 46.9861 33.1215 47.3074 32.664C47.7744 31.999 48.0356 30.6612 48.0835 28.6878L49.0551 28.7114L48.0902 28.5956L48.1187 28.3547C48.2111 27.5605 48.2777 26.9869 48.8085 26.6074C49.2344 26.3032 49.7197 26.3326 50.1063 26.4023C49.6815 26.0813 49.5641 25.705 49.5328 25.5506L49.4518 25.1514L49.6795 24.8136C50.9911 22.8677 52.0725 20.4761 52.6469 18.2519C53.2372 15.9665 53.0573 14.7529 52.8773 14.5233C50.4948 11.4791 46.3635 12.736 45.932 12.8786L45.8591 12.918L45.4935 12.9861L45.3062 12.9473C44.7899 12.84 44.2162 12.7807 43.6014 12.7708C42.6353 12.7545 41.8559 12.9828 41.2169 13.4677L40.7735 13.8039L40.259 13.592C39.1596 13.1425 35.9308 12.2388 34.227 13.4455C33.2812 14.1154 32.8504 15.428 32.9463 17.347C32.9779 17.9805 33.4084 20.3788 34.1185 22.7048C35.0998 25.9192 35.9915 26.9871 36.3638 27.1112C36.4288 27.1331 36.5974 27.0021 36.7652 26.8006C37.4648 25.962 38.1892 25.1444 38.9374 24.3489L39.5001 23.7568L40.1803 24.2087C40.4546 24.3909 40.757 24.4943 41.0676 24.5138L42.69 23.1301L42.4549 25.5286C42.4497 25.5825 42.447 25.6558 42.4681 25.7919L42.5388 26.2465L42.2321 26.5894L42.1968 26.6292L43.0881 27.0405L43.461 26.5731Z" fill="black"/>
<path d="M53.5081 25.7316C50.6796 26.3151 50.4852 25.3574 50.4852 25.3574C53.4718 20.926 54.7202 15.3007 53.6428 13.9241C50.7036 10.1687 45.6155 11.9446 45.5306 11.9908L45.5032 11.9956C44.9444 11.8796 44.319 11.8106 43.6159 11.7992C42.3361 11.7783 41.3653 12.1348 40.6286 12.6934C40.6286 12.6934 31.5521 8.95424 31.9742 17.3959C32.064 19.1919 34.5482 30.9848 37.5114 27.4228C38.5945 26.1203 39.6408 25.019 39.6408 25.019C40.1606 25.3641 40.7828 25.5404 41.435 25.477L41.4858 25.434C41.4699 25.5957 41.4772 25.7539 41.5061 25.9412C40.7427 26.7941 40.967 26.9438 39.4409 27.2578C37.8968 27.5759 38.8039 28.1424 39.3962 28.2905C40.1141 28.4701 41.7752 28.7244 42.8975 27.1534L42.8526 27.3326C43.1518 27.5723 43.3618 28.891 43.3267 30.0863C43.2913 31.2817 43.2678 32.1026 43.5036 32.7436C43.7392 33.3847 43.9741 34.8269 45.9801 34.3971C47.6563 34.0379 48.5249 33.107 48.6459 31.5543C48.7316 30.4503 48.9256 30.6137 48.938 29.6267L49.0938 29.1595C49.2734 27.6631 49.1223 27.1804 50.1551 27.4049L50.406 27.4268C51.1661 27.4614 52.1608 27.3046 52.7448 27.0332C54.0021 26.45 54.7478 25.4758 53.5081 25.7316Z" fill="white"/>
<path d="M45.4283 34.8449C43.7562 34.8449 43.2264 33.5207 43.0097 32.9792C42.6924 32.1855 42.624 29.1058 42.6947 26.5801C42.6957 26.5375 42.7052 26.4956 42.7225 26.4566C42.7399 26.4177 42.7647 26.3826 42.7957 26.3533C42.8267 26.3241 42.8631 26.3012 42.9029 26.2861C42.9428 26.271 42.9852 26.2639 43.0278 26.2653C43.0703 26.2664 43.1122 26.276 43.1511 26.2933C43.1899 26.3107 43.225 26.3355 43.2542 26.3665C43.2835 26.3974 43.3063 26.4338 43.3215 26.4735C43.3367 26.5133 43.3438 26.5556 43.3426 26.5982C43.2612 29.5112 43.3768 32.151 43.6116 32.7385C43.978 33.6543 44.5338 34.4555 46.1049 34.1189C47.5965 33.799 48.1551 33.2335 48.4039 31.7911C48.5948 30.6842 48.9724 27.5354 49.019 26.914C49.0221 26.8716 49.0335 26.8302 49.0527 26.7921C49.0718 26.7541 49.0983 26.7202 49.1306 26.6925C49.1628 26.6647 49.2003 26.6435 49.2407 26.6303C49.2812 26.617 49.3238 26.6118 49.3663 26.615C49.452 26.6215 49.5316 26.6618 49.5876 26.7269C49.6437 26.792 49.6716 26.8767 49.6653 26.9624C49.6168 27.6093 49.241 30.7521 49.0427 31.9014C48.749 33.605 47.9895 34.3777 46.2408 34.7526C45.9436 34.8162 45.6737 34.8447 45.4283 34.8449ZM36.3616 28.3772C36.2155 28.3767 36.0703 28.3526 35.9318 28.3061C34.8457 27.9437 33.8112 26.1749 32.8569 23.0482C32.1305 20.6682 31.6703 18.1839 31.6298 17.3765C31.5102 14.9829 32.1265 13.2894 33.462 12.3435C36.1041 10.4715 40.5486 12.2541 40.7365 12.3309C40.8161 12.3634 40.8796 12.4262 40.9128 12.5055C40.9461 12.5847 40.9466 12.674 40.9141 12.7536C40.8816 12.8332 40.8188 12.8966 40.7395 12.9299C40.6602 12.9632 40.571 12.9636 40.4914 12.9311C40.4485 12.9137 36.1865 11.2062 33.8354 12.8732C32.6934 13.6829 32.1691 15.1872 32.277 17.3442C32.3109 18.0245 32.7409 20.449 33.4766 22.8589C34.3285 25.6502 35.2981 27.4115 36.1368 27.6912C36.2684 27.7351 36.669 27.8685 37.2416 27.1799C37.9093 26.378 38.6021 25.5972 39.3189 24.8387C39.3789 24.7789 39.4599 24.7449 39.5446 24.7441C39.6293 24.7432 39.711 24.7756 39.7722 24.8342C39.8333 24.8928 39.8691 24.973 39.8719 25.0577C39.8746 25.1424 39.8441 25.2247 39.7869 25.2872C39.7772 25.2974 38.8024 26.3165 37.74 27.5945C37.2369 28.1996 36.7547 28.3772 36.3616 28.3772ZM50.4644 25.6461C50.4056 25.6461 50.348 25.63 50.2977 25.5997C50.2473 25.5694 50.2062 25.526 50.1786 25.4741C50.151 25.4222 50.138 25.3638 50.1411 25.3051C50.1441 25.2465 50.1631 25.1897 50.1959 25.141C53.2149 20.661 54.2746 15.248 53.3671 14.0881C52.2247 12.6285 50.6117 11.8661 48.5725 11.8221C47.0627 11.7896 45.8626 12.1751 45.6664 12.2423L45.617 12.2624C45.4198 12.3244 45.2685 12.2163 45.2114 12.09C45.1788 12.0176 45.1739 11.9358 45.1975 11.86C45.2211 11.7843 45.2716 11.7197 45.3395 11.6787C45.3489 11.6732 45.3785 11.6606 45.4267 11.6429C45.76 11.5208 46.9784 11.1552 48.4874 11.1725C50.7437 11.1964 52.6076 12.0664 53.8771 13.6888C54.4777 14.4564 54.4792 16.2248 53.881 18.5408C53.2712 20.9022 52.1237 23.4398 50.7331 25.5033C50.671 25.5962 50.5686 25.6461 50.4644 25.6461ZM50.6188 27.72C50.1032 27.72 49.6411 27.6473 49.3645 27.4816C49.0801 27.3112 49.0259 27.0796 49.0188 26.9567C48.9412 25.5937 49.6931 25.3565 50.0766 25.2482C50.0232 25.1674 49.9472 25.0723 49.8686 24.9742C49.645 24.6947 49.3387 24.312 49.1026 23.7396C49.0657 23.6502 48.9499 23.4424 48.8158 23.2017C48.0888 21.8981 46.5762 19.1853 47.5479 17.7962C47.9976 17.1533 48.8932 16.9002 50.2127 17.0414C49.8246 15.8588 47.9761 12.1595 43.59 12.0875C42.2709 12.0656 41.1891 12.4712 40.3762 13.2921C38.5562 15.1302 38.622 18.4559 38.623 18.4892C38.6241 18.5318 38.6169 18.5741 38.6016 18.6139C38.5864 18.6536 38.5635 18.6899 38.5342 18.7208C38.5049 18.7517 38.4698 18.7765 38.4309 18.7938C38.392 18.8111 38.3501 18.8206 38.3076 18.8217C38.265 18.8229 38.2227 18.8156 38.1829 18.8004C38.1432 18.7851 38.1069 18.7622 38.076 18.7329C38.0451 18.7036 38.0203 18.6685 38.003 18.6296C37.9857 18.5907 37.9762 18.5488 37.975 18.5063C37.971 18.3586 37.9031 14.8685 39.9157 12.8359C40.8576 11.8846 42.0975 11.415 43.6008 11.4396C46.4068 11.4857 48.213 12.9122 49.2339 14.1007C50.3468 15.396 50.8924 16.8248 50.9373 17.3018C50.9708 17.6564 50.7163 17.7273 50.6649 17.7379L50.5479 17.7405C49.253 17.5331 48.4222 17.6771 48.0787 18.1679C47.3395 19.2243 48.7705 21.7904 49.3815 22.8863C49.5375 23.1658 49.6501 23.3679 49.7017 23.4926C49.9023 23.9793 50.1642 24.3063 50.3744 24.5692C50.5595 24.8003 50.7197 25.0008 50.777 25.236C50.8036 25.2827 51.1812 25.8413 53.4219 25.3788C53.9835 25.263 54.3203 25.362 54.4233 25.6734C54.6258 26.2858 53.4895 27.0002 52.8605 27.2923C52.2968 27.5543 51.3971 27.72 50.6188 27.72ZM49.6649 26.9033C49.736 26.975 50.0917 27.0987 50.8282 27.067C51.4831 27.039 52.1737 26.8966 52.5881 26.7042C53.118 26.458 53.4719 26.1828 53.6551 25.9949L53.5535 26.0136C52.1209 26.3093 51.1075 26.2699 50.5416 25.8964C50.5036 25.8713 50.4669 25.8441 50.4319 25.8149C50.3705 25.8391 50.3139 25.855 50.2735 25.8663C49.9525 25.9563 49.6206 26.0495 49.6649 26.9033ZM40.4101 28.7141C40.0542 28.7141 39.6797 28.6656 39.2972 28.5699C38.9009 28.4708 38.2328 28.1724 38.243 27.6823C38.2545 27.1324 39.0543 26.9675 39.3553 26.9055C40.4428 26.6815 40.5137 26.5917 40.8535 26.16C40.9527 26.0343 41.076 25.8777 41.2441 25.69C41.4938 25.4105 41.7666 25.2689 42.055 25.2689C42.2559 25.2689 42.4206 25.337 42.5295 25.3823C42.8765 25.5261 43.1659 25.8738 43.2849 26.2896C43.3924 26.6648 43.341 27.026 43.1407 27.3065C42.4832 28.2272 41.5389 28.7141 40.4101 28.7141ZM38.9431 27.7101C39.0408 27.7857 39.2367 27.8866 39.4546 27.941C39.7859 28.0239 40.1073 28.066 40.4103 28.066C41.3337 28.066 42.0751 27.6837 42.6136 26.9297C42.7259 26.7725 42.6922 26.5728 42.6622 26.4678C42.5992 26.2478 42.4428 26.0477 42.2817 25.9809C42.1944 25.9447 42.1218 25.9171 42.0552 25.9171C42.0195 25.9171 41.9106 25.9171 41.7274 26.1221C41.6009 26.2643 41.4794 26.4107 41.363 26.5612C40.9397 27.0987 40.7457 27.2811 39.4863 27.5405C39.179 27.6035 39.0213 27.6676 38.9431 27.7101ZM41.4353 26.2151C41.3579 26.215 41.2831 26.1872 41.2245 26.1367C41.1658 26.0863 41.1271 26.0165 41.1154 25.9401C41.1073 25.8863 41.1019 25.8321 41.0991 25.7778C40.2736 25.7623 39.4772 25.4081 38.8725 24.7772C38.1079 23.9795 37.7599 22.8743 37.918 21.7451C38.0896 20.5189 38.0254 19.4364 37.9909 18.8549C37.9813 18.6932 37.9744 18.5764 37.9748 18.4955C37.9755 18.393 37.9775 18.121 38.8867 17.6601C39.21 17.4962 39.8584 17.2102 40.5667 17.1368C41.7402 17.0156 42.5137 17.5382 42.7452 18.6087C43.3703 21.4987 42.7948 22.777 42.3745 23.7106C42.2963 23.8844 42.2224 24.0486 42.1633 24.2076L42.1111 24.3478C41.8891 24.9431 41.6971 25.4574 41.756 25.8415C41.7625 25.8836 41.7606 25.9265 41.7505 25.9679C41.7403 26.0092 41.7222 26.0482 41.697 26.0825C41.6718 26.1168 41.6401 26.1458 41.6037 26.1679C41.5673 26.1899 41.5269 26.2046 41.4848 26.211L41.4353 26.2151ZM38.6251 18.5853L38.6376 18.8167C38.6734 19.4208 38.74 20.5449 38.5596 21.8351C38.4294 22.7664 38.7138 23.6754 39.3403 24.3287C39.8353 24.845 40.4867 25.13 41.1562 25.13H41.17C41.245 24.8141 41.3695 24.4806 41.5035 24.1213L41.5553 23.9819C41.6222 23.8024 41.7004 23.6285 41.7832 23.4445C42.1877 22.5458 42.6912 21.4272 42.1113 18.7458C41.9965 18.2146 41.718 17.9073 41.2604 17.8059C40.3203 17.5983 38.9194 18.3054 38.6251 18.5853ZM40.5811 18.4478C40.5649 18.5624 40.791 18.8683 41.0859 18.9091C41.3802 18.9503 41.6321 18.711 41.6482 18.5965C41.6642 18.4819 41.4383 18.3556 41.1434 18.3145C40.8487 18.2735 40.5968 18.3332 40.5811 18.4478ZM41.1535 19.0218L41.0709 19.0161C40.8881 18.9907 40.7032 18.8756 40.5767 18.7078C40.5322 18.6489 40.4597 18.5347 40.4741 18.4328C40.4946 18.2833 40.677 18.1937 40.9616 18.1937C41.0252 18.1937 41.0914 18.1984 41.158 18.2077C41.3136 18.2292 41.458 18.2741 41.5647 18.3336C41.7495 18.4368 41.7631 18.552 41.7548 18.6115C41.732 18.7767 41.4694 19.0218 41.1535 19.0218ZM40.6886 18.4669C40.6977 18.5376 40.8728 18.7708 41.1007 18.8022L41.1538 18.8059C41.3642 18.8059 41.5214 18.6404 41.5399 18.5861C41.5204 18.5492 41.3851 18.4573 41.1286 18.4216C41.0733 18.4137 41.0176 18.4097 40.9618 18.4096C40.7969 18.4096 40.7093 18.4468 40.6886 18.4669ZM49.5459 18.214C49.5619 18.3286 49.336 18.6345 49.0413 18.6755C48.7468 18.7165 48.4947 18.4775 48.4784 18.3629C48.463 18.2483 48.6889 18.1218 48.9834 18.081C49.2779 18.0397 49.5296 18.0996 49.5459 18.214ZM48.9733 18.734C48.6897 18.734 48.4449 18.5134 48.4248 18.3702C48.4015 18.1984 48.6844 18.0677 48.9757 18.0273C49.0399 18.0184 49.1035 18.0139 49.1646 18.0139C49.4161 18.0139 49.5826 18.0877 49.5993 18.2067C49.61 18.2837 49.5509 18.4025 49.4492 18.5097C49.3819 18.5802 49.2408 18.7023 49.0484 18.7289L48.9733 18.734ZM49.1648 18.122C49.1087 18.122 49.0502 18.1262 48.9909 18.1344C48.6982 18.1752 48.5235 18.2926 48.5321 18.3556C48.5418 18.4248 48.7287 18.6261 48.9735 18.6261L49.0338 18.6219C49.1936 18.5997 49.3137 18.4953 49.371 18.4352C49.461 18.3407 49.4967 18.2518 49.4924 18.2215C49.4868 18.1813 49.3787 18.122 49.1648 18.122ZM49.9702 24.7932C49.9115 24.7933 49.8538 24.7773 49.8035 24.7471C49.7531 24.7169 49.7119 24.6736 49.6843 24.6218C49.6567 24.57 49.6437 24.5116 49.6466 24.453C49.6496 24.3943 49.6685 24.3376 49.7013 24.2889C50.3915 23.258 50.2651 22.2068 50.143 21.1902C50.0908 20.7571 50.0372 20.3092 50.051 19.8794C50.0653 19.4372 50.1215 19.0724 50.1758 18.7196C50.2401 18.3015 50.3011 17.9067 50.2759 17.4379C50.2736 17.3954 50.2797 17.3528 50.2938 17.3127C50.308 17.2726 50.3299 17.2356 50.3583 17.2039C50.3867 17.1723 50.4211 17.1465 50.4595 17.1281C50.4979 17.1097 50.5395 17.0991 50.582 17.0968C50.6245 17.0945 50.667 17.1006 50.7072 17.1148C50.7473 17.1289 50.7843 17.1508 50.8159 17.1792C50.8476 17.2077 50.8734 17.242 50.8917 17.2804C50.9101 17.3188 50.9208 17.3604 50.923 17.4029C50.9519 17.9388 50.883 18.3856 50.8164 18.8181C50.765 19.1518 50.7118 19.4969 50.699 19.9001C50.6866 20.2808 50.7352 20.685 50.7865 21.1128C50.9165 22.1938 51.0638 23.4191 50.2399 24.6494C50.2103 24.6937 50.1701 24.73 50.1231 24.7551C50.076 24.7802 50.0235 24.7933 49.9702 24.7932Z" fill="black"/>
</g>
<path d="M69.082 18.2C69.5767 18.2 70.034 18.3353 70.454 18.606C70.874 18.8673 71.21 19.2267 71.462 19.684C71.714 20.1413 71.84 20.6547 71.84 21.224C71.84 21.7933 71.714 22.3113 71.462 22.778C71.21 23.2353 70.874 23.604 70.454 23.884C70.034 24.1547 69.5767 24.29 69.082 24.29H66.38L66.492 24.066V27.286C66.492 27.4913 66.4267 27.664 66.296 27.804C66.1747 27.9347 66.0113 28 65.806 28C65.61 28 65.4467 27.9347 65.316 27.804C65.1947 27.664 65.134 27.4913 65.134 27.286V18.914C65.134 18.7087 65.204 18.5407 65.344 18.41C65.484 18.27 65.652 18.2 65.848 18.2H69.082ZM69.082 22.946C69.3247 22.946 69.544 22.8667 69.74 22.708C69.9453 22.5493 70.1087 22.3393 70.23 22.078C70.3607 21.8167 70.426 21.532 70.426 21.224C70.426 20.916 70.3607 20.636 70.23 20.384C70.1087 20.132 69.9453 19.9313 69.74 19.782C69.544 19.6233 69.3247 19.544 69.082 19.544H66.352L66.492 19.334V23.128L66.366 22.946H69.082ZM80.3075 24.318C80.3075 25.0647 80.1442 25.7273 79.8175 26.306C79.4908 26.8753 79.0475 27.3233 78.4875 27.65C77.9275 27.9767 77.2975 28.14 76.5975 28.14C75.8975 28.14 75.2675 27.9767 74.7075 27.65C74.1475 27.3233 73.6995 26.8753 73.3635 26.306C73.0368 25.7273 72.8735 25.0647 72.8735 24.318C72.8735 23.562 73.0368 22.8993 73.3635 22.33C73.6995 21.7513 74.1475 21.2987 74.7075 20.972C75.2675 20.636 75.8975 20.468 76.5975 20.468C77.2975 20.468 77.9275 20.636 78.4875 20.972C79.0475 21.2987 79.4908 21.7513 79.8175 22.33C80.1442 22.8993 80.3075 23.562 80.3075 24.318ZM78.9075 24.318C78.9075 23.8047 78.8048 23.3613 78.5995 22.988C78.3942 22.6053 78.1142 22.3067 77.7595 22.092C77.4142 21.868 77.0268 21.756 76.5975 21.756C76.1682 21.756 75.7762 21.868 75.4215 22.092C75.0668 22.3067 74.7868 22.6053 74.5815 22.988C74.3762 23.3613 74.2735 23.8047 74.2735 24.318C74.2735 24.8127 74.3762 25.2513 74.5815 25.634C74.7868 26.0167 75.0668 26.3153 75.4215 26.53C75.7762 26.7447 76.1682 26.852 76.5975 26.852C77.0268 26.852 77.4142 26.7447 77.7595 26.53C78.1142 26.3153 78.3942 26.0167 78.5995 25.634C78.8048 25.2513 78.9075 24.8127 78.9075 24.318ZM81.4581 26.852C81.3741 26.7213 81.3368 26.572 81.3461 26.404C81.3554 26.2267 81.4534 26.0773 81.6401 25.956C81.7708 25.872 81.9061 25.8393 82.0461 25.858C82.1954 25.8673 82.3354 25.9373 82.4661 26.068C82.7274 26.3573 83.0168 26.586 83.3341 26.754C83.6608 26.922 84.0528 27.006 84.5101 27.006C84.6968 26.9967 84.8881 26.9687 85.0841 26.922C85.2801 26.866 85.4481 26.7727 85.5881 26.642C85.7281 26.502 85.7981 26.3013 85.7981 26.04C85.7981 25.8067 85.7234 25.62 85.5741 25.48C85.4248 25.34 85.2288 25.228 84.9861 25.144C84.7434 25.0507 84.4821 24.9667 84.2021 24.892C83.9034 24.808 83.6001 24.7147 83.2921 24.612C82.9934 24.5093 82.7228 24.3787 82.4801 24.22C82.2374 24.052 82.0368 23.8373 81.8781 23.576C81.7288 23.3147 81.6541 22.9927 81.6541 22.61C81.6541 22.1713 81.7754 21.7933 82.0181 21.476C82.2701 21.1587 82.5921 20.9113 82.9841 20.734C83.3854 20.5567 83.8194 20.468 84.2861 20.468C84.5568 20.468 84.8414 20.5053 85.1401 20.58C85.4388 20.6453 85.7281 20.7527 86.0081 20.902C86.2881 21.0513 86.5308 21.2473 86.7361 21.49C86.8294 21.6113 86.8808 21.756 86.8901 21.924C86.9088 22.092 86.8341 22.2413 86.6661 22.372C86.5541 22.4653 86.4188 22.5073 86.2601 22.498C86.1014 22.4887 85.9708 22.4373 85.8681 22.344C85.6908 22.12 85.4621 21.9473 85.1821 21.826C84.9021 21.6953 84.5848 21.63 84.2301 21.63C84.0528 21.63 83.8661 21.658 83.6701 21.714C83.4834 21.7607 83.3248 21.8493 83.1941 21.98C83.0634 22.1107 82.9981 22.302 82.9981 22.554C82.9981 22.7873 83.0728 22.974 83.2221 23.114C83.3808 23.254 83.5861 23.3707 83.8381 23.464C84.0901 23.5573 84.3654 23.6413 84.6641 23.716C84.9534 23.7907 85.2381 23.8793 85.5181 23.982C85.8074 24.0847 86.0641 24.22 86.2881 24.388C86.5214 24.5467 86.7081 24.7567 86.8481 25.018C86.9974 25.27 87.0721 25.592 87.0721 25.984C87.0721 26.4413 86.9368 26.8333 86.6661 27.16C86.4048 27.4773 86.0688 27.72 85.6581 27.888C85.2568 28.056 84.8321 28.14 84.3841 28.14C83.8521 28.14 83.3201 28.0467 82.7881 27.86C82.2654 27.664 81.8221 27.328 81.4581 26.852ZM88.4797 20.72H91.7697C91.9563 20.72 92.1103 20.7853 92.2317 20.916C92.3623 21.0373 92.4277 21.1913 92.4277 21.378C92.4277 21.5553 92.3623 21.7047 92.2317 21.826C92.1103 21.9473 91.9563 22.008 91.7697 22.008H88.4797C88.293 22.008 88.1343 21.9473 88.0037 21.826C87.8823 21.6953 87.8217 21.5413 87.8217 21.364C87.8217 21.1773 87.8823 21.0233 88.0037 20.902C88.1343 20.7807 88.293 20.72 88.4797 20.72ZM89.9497 18.9C90.155 18.9 90.323 18.97 90.4537 19.11C90.5843 19.2407 90.6497 19.4087 90.6497 19.614V26.11C90.6497 26.278 90.6777 26.4133 90.7337 26.516C90.7897 26.6187 90.8643 26.6887 90.9577 26.726C91.0603 26.7633 91.163 26.782 91.2657 26.782C91.3683 26.782 91.457 26.7633 91.5317 26.726C91.6157 26.6887 91.7137 26.67 91.8257 26.67C91.9377 26.67 92.0403 26.7213 92.1337 26.824C92.227 26.9267 92.2737 27.0667 92.2737 27.244C92.2737 27.468 92.1523 27.65 91.9097 27.79C91.667 27.93 91.4057 28 91.1257 28C90.967 28 90.7803 27.986 90.5657 27.958C90.351 27.93 90.141 27.86 89.9357 27.748C89.7397 27.636 89.5763 27.4587 89.4457 27.216C89.315 26.964 89.2497 26.614 89.2497 26.166V19.614C89.2497 19.4087 89.315 19.2407 89.4457 19.11C89.5857 18.97 89.7537 18.9 89.9497 18.9ZM96.9757 20.468C97.377 20.468 97.7457 20.5333 98.0817 20.664C98.4177 20.7947 98.707 20.9627 98.9497 21.168C99.2017 21.364 99.3977 21.5693 99.5377 21.784C99.6777 21.9987 99.7477 22.1853 99.7477 22.344L99.4257 22.358V21.238C99.4257 21.042 99.491 20.874 99.6217 20.734C99.7524 20.594 99.9204 20.524 100.126 20.524C100.331 20.524 100.499 20.594 100.63 20.734C100.76 20.8647 100.826 21.0327 100.826 21.238V27.412C100.826 28.2053 100.658 28.8493 100.322 29.344C99.9857 29.848 99.5377 30.2167 98.9777 30.45C98.427 30.6833 97.8204 30.8 97.1577 30.8C96.9244 30.8 96.649 30.7673 96.3317 30.702C96.0144 30.646 95.7204 30.576 95.4497 30.492C95.1884 30.408 95.0064 30.324 94.9037 30.24C94.689 30.128 94.5444 29.9973 94.4697 29.848C94.4044 29.6987 94.4044 29.5493 94.4697 29.4C94.563 29.1947 94.689 29.0687 94.8477 29.022C95.0064 28.9753 95.1884 28.9893 95.3937 29.064C95.487 29.092 95.6317 29.1433 95.8277 29.218C96.0237 29.2927 96.243 29.358 96.4857 29.414C96.7284 29.4793 96.957 29.512 97.1717 29.512C97.9184 29.512 98.4784 29.3393 98.8517 28.994C99.2344 28.6487 99.4257 28.1773 99.4257 27.58V26.32L99.5797 26.418C99.5517 26.614 99.463 26.8147 99.3137 27.02C99.1737 27.216 98.987 27.398 98.7537 27.566C98.5204 27.734 98.2497 27.874 97.9417 27.986C97.643 28.0887 97.335 28.14 97.0177 28.14C96.355 28.14 95.7624 27.9767 95.2397 27.65C94.717 27.314 94.3017 26.8613 93.9937 26.292C93.6857 25.7133 93.5317 25.0507 93.5317 24.304C93.5317 23.5573 93.6857 22.8993 93.9937 22.33C94.3017 21.7513 94.7124 21.2987 95.2257 20.972C95.7484 20.636 96.3317 20.468 96.9757 20.468ZM97.1857 21.756C96.7284 21.756 96.327 21.868 95.9817 22.092C95.6364 22.316 95.3657 22.6193 95.1697 23.002C94.9737 23.3847 94.8757 23.8187 94.8757 24.304C94.8757 24.7893 94.9737 25.2233 95.1697 25.606C95.3657 25.9887 95.6364 26.292 95.9817 26.516C96.327 26.74 96.7284 26.852 97.1857 26.852C97.643 26.852 98.0444 26.7447 98.3897 26.53C98.735 26.306 99.0057 26.0027 99.2017 25.62C99.3977 25.228 99.4957 24.7893 99.4957 24.304C99.4957 23.8187 99.3977 23.3847 99.2017 23.002C99.0057 22.61 98.735 22.3067 98.3897 22.092C98.0444 21.868 97.643 21.756 97.1857 21.756ZM103.469 28C103.264 28 103.096 27.9347 102.965 27.804C102.834 27.664 102.769 27.4913 102.769 27.286V21.35C102.769 21.1447 102.834 20.9767 102.965 20.846C103.096 20.706 103.264 20.636 103.469 20.636C103.665 20.636 103.828 20.706 103.959 20.846C104.099 20.9767 104.169 21.1447 104.169 21.35V22.918L104.029 22.316C104.104 22.0547 104.216 21.812 104.365 21.588C104.524 21.364 104.71 21.168 104.925 21C105.14 20.832 105.378 20.7013 105.639 20.608C105.91 20.5147 106.19 20.468 106.479 20.468C106.722 20.468 106.932 20.5333 107.109 20.664C107.286 20.7947 107.375 20.958 107.375 21.154C107.375 21.406 107.31 21.5927 107.179 21.714C107.048 21.826 106.904 21.882 106.745 21.882C106.605 21.882 106.47 21.854 106.339 21.798C106.208 21.7327 106.054 21.7 105.877 21.7C105.681 21.7 105.48 21.7513 105.275 21.854C105.07 21.9567 104.883 22.1107 104.715 22.316C104.547 22.512 104.412 22.7453 104.309 23.016C104.216 23.2867 104.169 23.59 104.169 23.926V27.286C104.169 27.4913 104.099 27.664 103.959 27.804C103.828 27.9347 103.665 28 103.469 28ZM111.736 28.14C110.962 28.14 110.29 27.9813 109.72 27.664C109.151 27.3373 108.708 26.894 108.39 26.334C108.082 25.7647 107.928 25.116 107.928 24.388C107.928 23.5667 108.092 22.8667 108.418 22.288C108.754 21.7 109.188 21.252 109.72 20.944C110.252 20.6267 110.817 20.468 111.414 20.468C111.872 20.468 112.306 20.5613 112.716 20.748C113.127 20.9253 113.491 21.1773 113.808 21.504C114.135 21.8213 114.392 22.1993 114.578 22.638C114.765 23.0673 114.863 23.5387 114.872 24.052C114.863 24.2387 114.788 24.3927 114.648 24.514C114.508 24.6353 114.345 24.696 114.158 24.696H108.712L108.376 23.506H113.64L113.374 23.758V23.408C113.356 23.0813 113.248 22.7967 113.052 22.554C112.856 22.302 112.614 22.1107 112.324 21.98C112.035 21.84 111.732 21.77 111.414 21.77C111.134 21.77 110.864 21.8167 110.602 21.91C110.35 21.994 110.122 22.134 109.916 22.33C109.72 22.526 109.562 22.7873 109.44 23.114C109.328 23.4313 109.272 23.828 109.272 24.304C109.272 24.8173 109.38 25.2653 109.594 25.648C109.809 26.0307 110.098 26.3293 110.462 26.544C110.826 26.7493 111.228 26.852 111.666 26.852C112.012 26.852 112.296 26.8193 112.52 26.754C112.744 26.6793 112.931 26.5907 113.08 26.488C113.23 26.3853 113.36 26.2873 113.472 26.194C113.612 26.11 113.752 26.068 113.892 26.068C114.06 26.068 114.2 26.1287 114.312 26.25C114.424 26.362 114.48 26.4973 114.48 26.656C114.48 26.8613 114.378 27.048 114.172 27.216C113.92 27.4587 113.57 27.6733 113.122 27.86C112.684 28.0467 112.222 28.14 111.736 28.14ZM119.619 28.14C118.947 28.14 118.349 28.0467 117.827 27.86C117.304 27.6733 116.805 27.3653 116.329 26.936C116.226 26.8613 116.147 26.7727 116.091 26.67C116.044 26.558 116.021 26.446 116.021 26.334C116.021 26.1567 116.086 25.998 116.217 25.858C116.347 25.718 116.511 25.648 116.707 25.648C116.856 25.648 116.996 25.6993 117.127 25.802C117.481 26.1287 117.85 26.376 118.233 26.544C118.625 26.712 119.082 26.796 119.605 26.796C119.978 26.796 120.319 26.7353 120.627 26.614C120.944 26.4927 121.196 26.3293 121.383 26.124C121.569 25.9187 121.663 25.6807 121.663 25.41C121.663 25.074 121.565 24.7987 121.369 24.584C121.182 24.36 120.907 24.178 120.543 24.038C120.188 23.8887 119.759 23.7627 119.255 23.66C118.788 23.576 118.368 23.4593 117.995 23.31C117.631 23.1607 117.318 22.974 117.057 22.75C116.795 22.5167 116.595 22.2413 116.455 21.924C116.315 21.6067 116.245 21.238 116.245 20.818C116.245 20.2487 116.394 19.7587 116.693 19.348C116.991 18.9373 117.397 18.62 117.911 18.396C118.424 18.172 119.003 18.06 119.647 18.06C120.235 18.06 120.785 18.1533 121.299 18.34C121.812 18.5173 122.227 18.76 122.545 19.068C122.769 19.264 122.881 19.474 122.881 19.698C122.881 19.866 122.811 20.0247 122.671 20.174C122.54 20.314 122.386 20.384 122.209 20.384C122.078 20.384 121.966 20.3467 121.873 20.272C121.723 20.1133 121.523 19.9733 121.271 19.852C121.019 19.7213 120.748 19.614 120.459 19.53C120.179 19.446 119.908 19.404 119.647 19.404C119.227 19.404 118.867 19.4647 118.569 19.586C118.27 19.698 118.041 19.8567 117.883 20.062C117.724 20.258 117.645 20.4913 117.645 20.762C117.645 21.0793 117.733 21.3407 117.911 21.546C118.097 21.7513 118.354 21.9193 118.681 22.05C119.007 22.1713 119.381 22.2833 119.801 22.386C120.314 22.498 120.771 22.624 121.173 22.764C121.583 22.904 121.929 23.086 122.209 23.31C122.489 23.5247 122.703 23.7953 122.853 24.122C123.002 24.4487 123.077 24.8547 123.077 25.34C123.077 25.9 122.918 26.39 122.601 26.81C122.283 27.23 121.863 27.5567 121.341 27.79C120.827 28.0233 120.253 28.14 119.619 28.14ZM133.982 28.518C134.15 28.518 134.299 28.5833 134.43 28.714C134.57 28.854 134.64 29.0127 134.64 29.19C134.64 29.386 134.547 29.5727 134.36 29.75C134.183 29.9273 133.949 30.086 133.66 30.226C133.38 30.366 133.081 30.4733 132.764 30.548C132.456 30.632 132.171 30.674 131.91 30.674C131.341 30.674 130.879 30.618 130.524 30.506C130.169 30.394 129.871 30.268 129.628 30.128C129.385 29.988 129.147 29.862 128.914 29.75C128.69 29.638 128.419 29.582 128.102 29.582C127.925 29.582 127.78 29.61 127.668 29.666C127.556 29.722 127.439 29.778 127.318 29.834C127.197 29.8993 127.043 29.932 126.856 29.932C126.66 29.932 126.497 29.8573 126.366 29.708C126.235 29.5587 126.17 29.3953 126.17 29.218C126.17 28.9193 126.305 28.7187 126.576 28.616L129.306 27.608L130.58 27.832L128.018 28.756L128.62 28.378C128.965 28.378 129.269 28.4293 129.53 28.532C129.801 28.6347 130.057 28.7513 130.3 28.882C130.552 29.022 130.809 29.1433 131.07 29.246C131.331 29.3487 131.635 29.4 131.98 29.4C132.269 29.4 132.512 29.3533 132.708 29.26C132.904 29.1667 133.067 29.0733 133.198 28.98C133.357 28.868 133.492 28.7607 133.604 28.658C133.725 28.5647 133.851 28.518 133.982 28.518ZM133.73 23.1C133.73 23.8093 133.613 24.472 133.38 25.088C133.147 25.6947 132.815 26.2267 132.386 26.684C131.966 27.1413 131.467 27.5007 130.888 27.762C130.309 28.014 129.675 28.14 128.984 28.14C128.303 28.14 127.673 28.014 127.094 27.762C126.515 27.5007 126.011 27.1413 125.582 26.684C125.162 26.2267 124.835 25.6947 124.602 25.088C124.378 24.472 124.266 23.8093 124.266 23.1C124.266 22.3907 124.378 21.7327 124.602 21.126C124.835 20.51 125.162 19.9733 125.582 19.516C126.011 19.0587 126.515 18.704 127.094 18.452C127.673 18.1907 128.303 18.06 128.984 18.06C129.675 18.06 130.309 18.1907 130.888 18.452C131.467 18.704 131.966 19.0587 132.386 19.516C132.815 19.9733 133.147 20.51 133.38 21.126C133.613 21.7327 133.73 22.3907 133.73 23.1ZM132.218 23.1C132.218 22.4093 132.078 21.7887 131.798 21.238C131.527 20.6873 131.149 20.2533 130.664 19.936C130.179 19.6187 129.619 19.46 128.984 19.46C128.359 19.46 127.803 19.6187 127.318 19.936C126.833 20.2533 126.455 20.6873 126.184 21.238C125.913 21.7793 125.778 22.4 125.778 23.1C125.778 23.7907 125.913 24.4113 126.184 24.962C126.455 25.5127 126.833 25.9467 127.318 26.264C127.803 26.5813 128.359 26.74 128.984 26.74C129.619 26.74 130.179 26.5813 130.664 26.264C131.149 25.9467 131.527 25.5127 131.798 24.962C132.078 24.4113 132.218 23.7907 132.218 23.1ZM140.88 26.628C141.076 26.628 141.239 26.6933 141.37 26.824C141.51 26.9547 141.58 27.118 141.58 27.314C141.58 27.51 141.51 27.6733 141.37 27.804C141.239 27.9347 141.076 28 140.88 28H136.176C135.971 28 135.798 27.9347 135.658 27.804C135.527 27.664 135.462 27.4913 135.462 27.286V18.914C135.462 18.7087 135.532 18.5407 135.672 18.41C135.812 18.27 135.994 18.2 136.218 18.2C136.405 18.2 136.568 18.27 136.708 18.41C136.857 18.5407 136.932 18.7087 136.932 18.914V26.866L136.638 26.628H140.88Z" fill="white"/>
<defs>
<linearGradient id="paint0_linear_1428_3442" x1="0" y1="23" x2="173" y2="23" gradientUnits="userSpaceOnUse">
<stop stop-color="#2B3631"/>
<stop offset="1" stop-color="#496A56"/>
</linearGradient>
<clipPath id="clip0_1428_3442">
<rect width="26" height="26" fill="white" transform="translate(30 10)"/>
</clipPath>
</defs>
</svg>
