<svg width="138" height="46" viewBox="0 0 138 46" fill="none" xmlns="http://www.w3.org/2000/svg">
<rect width="138" height="46" rx="23" fill="url(#paint0_linear_1428_3404)" fill-opacity="0.76"/>
<path d="M36.4012 16.1758H48.8536C49.0155 16.1758 49.1708 16.2401 49.2853 16.3546C49.3998 16.4691 49.4642 16.6244 49.4642 16.7864C49.4642 16.9483 49.3998 17.1036 49.2853 17.2181C49.1708 17.3326 49.0155 17.397 48.8536 17.397H36.4012C36.2394 17.3968 36.0843 17.3325 35.9699 17.2181C35.8555 17.1037 35.7912 16.9486 35.791 16.7868C35.791 16.6249 35.8553 16.4696 35.9697 16.355C36.0841 16.2405 36.2393 16.176 36.4012 16.1758Z" fill="white"/>
<path d="M36.5098 14.9414H39.0129V15.5191H36.5098V14.9414Z" fill="white"/>
<path d="M39.7842 14.9414H42.2875V15.5191H39.7842V14.9414Z" fill="white"/>
<path d="M43.0146 14.9414H45.5188V15.5191H43.0146V14.9414Z" fill="white"/>
<path d="M46.2314 14.9414H48.7348V15.5191H46.2314V14.9414ZM46.2314 18.033H48.7348V22.2651H46.2314V18.033Z" fill="white"/>
<path d="M43.0146 18.0312H45.5236V24.9064H43.0146V18.0312Z" fill="white"/>
<path d="M39.7842 18.0312H42.2875V28.3293H39.7842V18.0312Z" fill="white"/>
<path d="M36.5098 18.0312H39.0129V30.5828H36.5098V18.0312Z" fill="white"/>
<path d="M69.082 18.2C69.5767 18.2 70.034 18.3353 70.454 18.606C70.874 18.8673 71.21 19.2267 71.462 19.684C71.714 20.1413 71.84 20.6547 71.84 21.224C71.84 21.7933 71.714 22.3113 71.462 22.778C71.21 23.2353 70.874 23.604 70.454 23.884C70.034 24.1547 69.5767 24.29 69.082 24.29H66.38L66.492 24.066V27.286C66.492 27.4913 66.4267 27.664 66.296 27.804C66.1747 27.9347 66.0113 28 65.806 28C65.61 28 65.4467 27.9347 65.316 27.804C65.1947 27.664 65.134 27.4913 65.134 27.286V18.914C65.134 18.7087 65.204 18.5407 65.344 18.41C65.484 18.27 65.652 18.2 65.848 18.2H69.082ZM69.082 22.946C69.3247 22.946 69.544 22.8667 69.74 22.708C69.9453 22.5493 70.1087 22.3393 70.23 22.078C70.3607 21.8167 70.426 21.532 70.426 21.224C70.426 20.916 70.3607 20.636 70.23 20.384C70.1087 20.132 69.9453 19.9313 69.74 19.782C69.544 19.6233 69.3247 19.544 69.082 19.544H66.352L66.492 19.334V23.128L66.366 22.946H69.082ZM78.9989 20.58C79.2043 20.58 79.3723 20.65 79.5029 20.79C79.6336 20.9207 79.6989 21.0887 79.6989 21.294V27.314C79.6989 28.1353 79.5403 28.8027 79.2229 29.316C78.9149 29.8293 78.4949 30.2027 77.9629 30.436C77.4403 30.6787 76.8476 30.8 76.1849 30.8C75.8489 30.8 75.5129 30.7673 75.1769 30.702C74.8409 30.646 74.5656 30.562 74.3509 30.45C74.1269 30.3473 73.9683 30.2213 73.8749 30.072C73.7816 29.9227 73.7676 29.7593 73.8329 29.582C73.8983 29.358 74.0103 29.204 74.1689 29.12C74.3276 29.0453 74.4909 29.0407 74.6589 29.106C74.8176 29.1713 75.0276 29.2553 75.2889 29.358C75.5503 29.4607 75.8489 29.512 76.1849 29.512C76.6423 29.512 77.0296 29.4373 77.3469 29.288C77.6643 29.1387 77.9023 28.9053 78.0609 28.588C78.2289 28.2707 78.3129 27.86 78.3129 27.356V26.39L78.5369 26.726C78.3876 27.034 78.1916 27.2907 77.9489 27.496C77.7063 27.7013 77.4169 27.86 77.0809 27.972C76.7543 28.084 76.3903 28.14 75.9889 28.14C75.4756 28.14 75.0323 28.028 74.6589 27.804C74.2949 27.5707 74.0149 27.2533 73.8189 26.852C73.6229 26.4413 73.5249 25.9747 73.5249 25.452V21.294C73.5249 21.0887 73.5903 20.9207 73.7209 20.79C73.8516 20.65 74.0196 20.58 74.2249 20.58C74.4209 20.58 74.5843 20.65 74.7149 20.79C74.8549 20.9207 74.9249 21.0887 74.9249 21.294V25.074C74.9249 25.69 75.0603 26.1427 75.3309 26.432C75.6016 26.712 76.0029 26.852 76.5349 26.852C76.8896 26.852 77.1976 26.7773 77.4589 26.628C77.7203 26.4787 77.9256 26.2733 78.0749 26.012C78.2243 25.7413 78.2989 25.4287 78.2989 25.074V21.294C78.2989 21.0887 78.3643 20.9207 78.4949 20.79C78.6349 20.65 78.8029 20.58 78.9989 20.58ZM84.869 28C84.645 28 84.463 27.9347 84.323 27.804C84.1923 27.664 84.127 27.4913 84.127 27.286V18.9H85.625V27.286C85.625 27.4913 85.5503 27.664 85.401 27.804C85.261 27.9347 85.0836 28 84.869 28ZM81.691 19.544C81.495 19.544 81.327 19.4833 81.187 19.362C81.047 19.2313 80.977 19.0633 80.977 18.858C80.977 18.662 81.047 18.5033 81.187 18.382C81.327 18.2607 81.495 18.2 81.691 18.2H88.061C88.257 18.2 88.4203 18.2653 88.551 18.396C88.691 18.5173 88.761 18.676 88.761 18.872C88.761 19.0773 88.691 19.2407 88.551 19.362C88.4203 19.4833 88.257 19.544 88.061 19.544H81.691ZM91.9393 28.14C91.1646 28.14 90.4926 27.9813 89.9233 27.664C89.354 27.3373 88.9106 26.894 88.5933 26.334C88.2853 25.7647 88.1313 25.116 88.1313 24.388C88.1313 23.5667 88.2946 22.8667 88.6213 22.288C88.9573 21.7 89.3913 21.252 89.9233 20.944C90.4553 20.6267 91.02 20.468 91.6173 20.468C92.0746 20.468 92.5086 20.5613 92.9193 20.748C93.33 20.9253 93.694 21.1773 94.0113 21.504C94.338 21.8213 94.5946 22.1993 94.7813 22.638C94.968 23.0673 95.066 23.5387 95.0753 24.052C95.066 24.2387 94.9913 24.3927 94.8513 24.514C94.7113 24.6353 94.548 24.696 94.3613 24.696H88.9153L88.5793 23.506H93.8433L93.5773 23.758V23.408C93.5586 23.0813 93.4513 22.7967 93.2553 22.554C93.0593 22.302 92.8166 22.1107 92.5273 21.98C92.238 21.84 91.9346 21.77 91.6173 21.77C91.3373 21.77 91.0666 21.8167 90.8053 21.91C90.5533 21.994 90.3246 22.134 90.1193 22.33C89.9233 22.526 89.7646 22.7873 89.6433 23.114C89.5313 23.4313 89.4753 23.828 89.4753 24.304C89.4753 24.8173 89.5826 25.2653 89.7973 25.648C90.012 26.0307 90.3013 26.3293 90.6653 26.544C91.0293 26.7493 91.4306 26.852 91.8693 26.852C92.2146 26.852 92.4993 26.8193 92.7233 26.754C92.9473 26.6793 93.134 26.5907 93.2833 26.488C93.4326 26.3853 93.5633 26.2873 93.6753 26.194C93.8153 26.11 93.9553 26.068 94.0953 26.068C94.2633 26.068 94.4033 26.1287 94.5153 26.25C94.6273 26.362 94.6833 26.4973 94.6833 26.656C94.6833 26.8613 94.5806 27.048 94.3753 27.216C94.1233 27.4587 93.7733 27.6733 93.3253 27.86C92.8866 28.0467 92.4246 28.14 91.9393 28.14ZM96.2237 26.852C96.1397 26.7213 96.1024 26.572 96.1117 26.404C96.1211 26.2267 96.2191 26.0773 96.4057 25.956C96.5364 25.872 96.6717 25.8393 96.8117 25.858C96.9611 25.8673 97.1011 25.9373 97.2317 26.068C97.4931 26.3573 97.7824 26.586 98.0997 26.754C98.4264 26.922 98.8184 27.006 99.2757 27.006C99.4624 26.9967 99.6537 26.9687 99.8497 26.922C100.046 26.866 100.214 26.7727 100.354 26.642C100.494 26.502 100.564 26.3013 100.564 26.04C100.564 25.8067 100.489 25.62 100.34 25.48C100.19 25.34 99.9944 25.228 99.7517 25.144C99.5091 25.0507 99.2477 24.9667 98.9677 24.892C98.6691 24.808 98.3657 24.7147 98.0577 24.612C97.7591 24.5093 97.4884 24.3787 97.2457 24.22C97.0031 24.052 96.8024 23.8373 96.6437 23.576C96.4944 23.3147 96.4197 22.9927 96.4197 22.61C96.4197 22.1713 96.5411 21.7933 96.7837 21.476C97.0357 21.1587 97.3577 20.9113 97.7497 20.734C98.1511 20.5567 98.5851 20.468 99.0517 20.468C99.3224 20.468 99.6071 20.5053 99.9057 20.58C100.204 20.6453 100.494 20.7527 100.774 20.902C101.054 21.0513 101.296 21.2473 101.502 21.49C101.595 21.6113 101.646 21.756 101.656 21.924C101.674 22.092 101.6 22.2413 101.432 22.372C101.32 22.4653 101.184 22.5073 101.026 22.498C100.867 22.4887 100.736 22.4373 100.634 22.344C100.456 22.12 100.228 21.9473 99.9477 21.826C99.6677 21.6953 99.3504 21.63 98.9957 21.63C98.8184 21.63 98.6317 21.658 98.4357 21.714C98.2491 21.7607 98.0904 21.8493 97.9597 21.98C97.8291 22.1107 97.7637 22.302 97.7637 22.554C97.7637 22.7873 97.8384 22.974 97.9877 23.114C98.1464 23.254 98.3517 23.3707 98.6037 23.464C98.8557 23.5573 99.1311 23.6413 99.4297 23.716C99.7191 23.7907 100.004 23.8793 100.284 23.982C100.573 24.0847 100.83 24.22 101.054 24.388C101.287 24.5467 101.474 24.7567 101.614 25.018C101.763 25.27 101.838 25.592 101.838 25.984C101.838 26.4413 101.702 26.8333 101.432 27.16C101.17 27.4773 100.834 27.72 100.424 27.888C100.022 28.056 99.5977 28.14 99.1497 28.14C98.6177 28.14 98.0857 28.0467 97.5537 27.86C97.0311 27.664 96.5877 27.328 96.2237 26.852ZM103.245 20.72H106.535C106.722 20.72 106.876 20.7853 106.997 20.916C107.128 21.0373 107.193 21.1913 107.193 21.378C107.193 21.5553 107.128 21.7047 106.997 21.826C106.876 21.9473 106.722 22.008 106.535 22.008H103.245C103.059 22.008 102.9 21.9473 102.769 21.826C102.648 21.6953 102.587 21.5413 102.587 21.364C102.587 21.1773 102.648 21.0233 102.769 20.902C102.9 20.7807 103.059 20.72 103.245 20.72ZM104.715 18.9C104.921 18.9 105.089 18.97 105.219 19.11C105.35 19.2407 105.415 19.4087 105.415 19.614V26.11C105.415 26.278 105.443 26.4133 105.499 26.516C105.555 26.6187 105.63 26.6887 105.723 26.726C105.826 26.7633 105.929 26.782 106.031 26.782C106.134 26.782 106.223 26.7633 106.297 26.726C106.381 26.6887 106.479 26.67 106.591 26.67C106.703 26.67 106.806 26.7213 106.899 26.824C106.993 26.9267 107.039 27.0667 107.039 27.244C107.039 27.468 106.918 27.65 106.675 27.79C106.433 27.93 106.171 28 105.891 28C105.733 28 105.546 27.986 105.331 27.958C105.117 27.93 104.907 27.86 104.701 27.748C104.505 27.636 104.342 27.4587 104.211 27.216C104.081 26.964 104.015 26.614 104.015 26.166V19.614C104.015 19.4087 104.081 19.2407 104.211 19.11C104.351 18.97 104.519 18.9 104.715 18.9Z" fill="white"/>
<defs>
<linearGradient id="paint0_linear_1428_3404" x1="0" y1="23" x2="138" y2="23" gradientUnits="userSpaceOnUse">
<stop stop-color="#2B3631"/>
<stop offset="1" stop-color="#496A56"/>
</linearGradient>
</defs>
</svg>
