<svg width="148" height="46" viewBox="0 0 148 46" fill="none" xmlns="http://www.w3.org/2000/svg">
<rect width="148" height="46" rx="23" fill="url(#paint0_linear_1428_3581)" fill-opacity="0.76"/>
<path d="M50.333 17.7797L48.4643 19.6484C51.5314 22.7156 51.5314 27.6516 48.4643 30.6781C45.3971 33.7453 40.4611 33.7453 37.4346 30.6781C34.3674 27.6109 34.3674 22.675 37.4346 19.6484L42.3096 14.7734L43.0002 14.0828V10.4062L35.6471 17.7594C31.5643 21.8422 31.5643 28.4438 35.6471 32.5469C39.7299 36.65 46.3314 36.6297 50.3533 32.5469C54.4361 28.4438 54.4361 21.8828 50.333 17.7797Z" fill="white"/>
<path d="M48.0317 15.9905C48.0456 15.239 47.4477 14.6186 46.6962 14.6047C45.9447 14.5907 45.3243 15.1886 45.3104 15.9401C45.2964 16.6916 45.8943 17.3121 46.6458 17.326C47.3973 17.3399 48.0178 16.742 48.0317 15.9905Z" fill="white"/>
<path d="M69.082 18.2C69.5767 18.2 70.034 18.3353 70.454 18.606C70.874 18.8673 71.21 19.2267 71.462 19.684C71.714 20.1413 71.84 20.6547 71.84 21.224C71.84 21.7933 71.714 22.3113 71.462 22.778C71.21 23.2353 70.874 23.604 70.454 23.884C70.034 24.1547 69.5767 24.29 69.082 24.29H66.38L66.492 24.066V27.286C66.492 27.4913 66.4267 27.664 66.296 27.804C66.1747 27.9347 66.0113 28 65.806 28C65.61 28 65.4467 27.9347 65.316 27.804C65.1947 27.664 65.134 27.4913 65.134 27.286V18.914C65.134 18.7087 65.204 18.5407 65.344 18.41C65.484 18.27 65.652 18.2 65.848 18.2H69.082ZM69.082 22.946C69.3247 22.946 69.544 22.8667 69.74 22.708C69.9453 22.5493 70.1087 22.3393 70.23 22.078C70.3607 21.8167 70.426 21.532 70.426 21.224C70.426 20.916 70.3607 20.636 70.23 20.384C70.1087 20.132 69.9453 19.9313 69.74 19.782C69.544 19.6233 69.3247 19.544 69.082 19.544H66.352L66.492 19.334V23.128L66.366 22.946H69.082ZM78.9989 20.58C79.2043 20.58 79.3723 20.65 79.5029 20.79C79.6336 20.9207 79.6989 21.0887 79.6989 21.294V27.314C79.6989 28.1353 79.5403 28.8027 79.2229 29.316C78.9149 29.8293 78.4949 30.2027 77.9629 30.436C77.4403 30.6787 76.8476 30.8 76.1849 30.8C75.8489 30.8 75.5129 30.7673 75.1769 30.702C74.8409 30.646 74.5656 30.562 74.3509 30.45C74.1269 30.3473 73.9683 30.2213 73.8749 30.072C73.7816 29.9227 73.7676 29.7593 73.8329 29.582C73.8983 29.358 74.0103 29.204 74.1689 29.12C74.3276 29.0453 74.4909 29.0407 74.6589 29.106C74.8176 29.1713 75.0276 29.2553 75.2889 29.358C75.5503 29.4607 75.8489 29.512 76.1849 29.512C76.6423 29.512 77.0296 29.4373 77.3469 29.288C77.6643 29.1387 77.9023 28.9053 78.0609 28.588C78.2289 28.2707 78.3129 27.86 78.3129 27.356V26.39L78.5369 26.726C78.3876 27.034 78.1916 27.2907 77.9489 27.496C77.7063 27.7013 77.4169 27.86 77.0809 27.972C76.7543 28.084 76.3903 28.14 75.9889 28.14C75.4756 28.14 75.0323 28.028 74.6589 27.804C74.2949 27.5707 74.0149 27.2533 73.8189 26.852C73.6229 26.4413 73.5249 25.9747 73.5249 25.452V21.294C73.5249 21.0887 73.5903 20.9207 73.7209 20.79C73.8516 20.65 74.0196 20.58 74.2249 20.58C74.4209 20.58 74.5843 20.65 74.7149 20.79C74.8549 20.9207 74.9249 21.0887 74.9249 21.294V25.074C74.9249 25.69 75.0603 26.1427 75.3309 26.432C75.6016 26.712 76.0029 26.852 76.5349 26.852C76.8896 26.852 77.1976 26.7773 77.4589 26.628C77.7203 26.4787 77.9256 26.2733 78.0749 26.012C78.2243 25.7413 78.2989 25.4287 78.2989 25.074V21.294C78.2989 21.0887 78.3643 20.9207 78.4949 20.79C78.6349 20.65 78.8029 20.58 78.9989 20.58ZM84.869 28C84.645 28 84.463 27.9347 84.323 27.804C84.1923 27.664 84.127 27.4913 84.127 27.286V18.9H85.625V27.286C85.625 27.4913 85.5503 27.664 85.401 27.804C85.261 27.9347 85.0836 28 84.869 28ZM81.691 19.544C81.495 19.544 81.327 19.4833 81.187 19.362C81.047 19.2313 80.977 19.0633 80.977 18.858C80.977 18.662 81.047 18.5033 81.187 18.382C81.327 18.2607 81.495 18.2 81.691 18.2H88.061C88.257 18.2 88.4203 18.2653 88.551 18.396C88.691 18.5173 88.761 18.676 88.761 18.872C88.761 19.0773 88.691 19.2407 88.551 19.362C88.4203 19.4833 88.257 19.544 88.061 19.544H81.691ZM95.5653 24.318C95.5653 25.0647 95.402 25.7273 95.0753 26.306C94.7486 26.8753 94.3053 27.3233 93.7453 27.65C93.1853 27.9767 92.5553 28.14 91.8553 28.14C91.1553 28.14 90.5253 27.9767 89.9653 27.65C89.4053 27.3233 88.9573 26.8753 88.6213 26.306C88.2946 25.7273 88.1313 25.0647 88.1313 24.318C88.1313 23.562 88.2946 22.8993 88.6213 22.33C88.9573 21.7513 89.4053 21.2987 89.9653 20.972C90.5253 20.636 91.1553 20.468 91.8553 20.468C92.5553 20.468 93.1853 20.636 93.7453 20.972C94.3053 21.2987 94.7486 21.7513 95.0753 22.33C95.402 22.8993 95.5653 23.562 95.5653 24.318ZM94.1653 24.318C94.1653 23.8047 94.0626 23.3613 93.8573 22.988C93.652 22.6053 93.372 22.3067 93.0173 22.092C92.672 21.868 92.2846 21.756 91.8553 21.756C91.426 21.756 91.034 21.868 90.6793 22.092C90.3246 22.3067 90.0446 22.6053 89.8393 22.988C89.634 23.3613 89.5313 23.8047 89.5313 24.318C89.5313 24.8127 89.634 25.2513 89.8393 25.634C90.0446 26.0167 90.3246 26.3153 90.6793 26.53C91.034 26.7447 91.426 26.852 91.8553 26.852C92.2846 26.852 92.672 26.7447 93.0173 26.53C93.372 26.3153 93.652 26.0167 93.8573 25.634C94.0626 25.2513 94.1653 24.8127 94.1653 24.318ZM97.8499 28C97.6446 28 97.4766 27.9347 97.3459 27.804C97.2153 27.664 97.1499 27.4913 97.1499 27.286V21.35C97.1499 21.1447 97.2153 20.9767 97.3459 20.846C97.4766 20.706 97.6446 20.636 97.8499 20.636C98.0459 20.636 98.2093 20.706 98.3399 20.846C98.4799 20.9767 98.5499 21.1447 98.5499 21.35V22.918L98.4099 22.316C98.4846 22.0547 98.5966 21.812 98.7459 21.588C98.9046 21.364 99.0913 21.168 99.3059 21C99.5206 20.832 99.7586 20.7013 100.02 20.608C100.291 20.5147 100.571 20.468 100.86 20.468C101.103 20.468 101.313 20.5333 101.49 20.664C101.667 20.7947 101.756 20.958 101.756 21.154C101.756 21.406 101.691 21.5927 101.56 21.714C101.429 21.826 101.285 21.882 101.126 21.882C100.986 21.882 100.851 21.854 100.72 21.798C100.589 21.7327 100.435 21.7 100.258 21.7C100.062 21.7 99.8613 21.7513 99.6559 21.854C99.4506 21.9567 99.2639 22.1107 99.0959 22.316C98.9279 22.512 98.7926 22.7453 98.6899 23.016C98.5966 23.2867 98.5499 23.59 98.5499 23.926V27.286C98.5499 27.4913 98.4799 27.664 98.3399 27.804C98.2093 27.9347 98.0459 28 97.8499 28ZM105.949 20.468C106.453 20.468 106.901 20.524 107.293 20.636C107.685 20.7387 107.988 20.888 108.203 21.084C108.427 21.2707 108.539 21.49 108.539 21.742C108.539 21.9007 108.492 22.05 108.399 22.19C108.306 22.3207 108.166 22.386 107.979 22.386C107.848 22.386 107.736 22.3627 107.643 22.316C107.559 22.2693 107.48 22.2133 107.405 22.148C107.33 22.0827 107.237 22.0173 107.125 21.952C107.022 21.896 106.868 21.8493 106.663 21.812C106.467 21.7747 106.29 21.756 106.131 21.756C105.636 21.756 105.207 21.868 104.843 22.092C104.488 22.316 104.208 22.6193 104.003 23.002C103.807 23.3847 103.709 23.8187 103.709 24.304C103.709 24.7893 103.807 25.2233 104.003 25.606C104.208 25.9887 104.484 26.292 104.829 26.516C105.184 26.74 105.594 26.852 106.061 26.852C106.341 26.852 106.57 26.8333 106.747 26.796C106.924 26.7493 107.078 26.6933 107.209 26.628C107.349 26.544 107.466 26.46 107.559 26.376C107.662 26.2827 107.802 26.236 107.979 26.236C108.184 26.236 108.338 26.3013 108.441 26.432C108.553 26.5533 108.609 26.7073 108.609 26.894C108.609 27.0993 108.483 27.3 108.231 27.496C107.988 27.6827 107.662 27.8367 107.251 27.958C106.84 28.0793 106.388 28.14 105.893 28.14C105.165 28.14 104.53 27.972 103.989 27.636C103.457 27.3 103.042 26.8427 102.743 26.264C102.454 25.6853 102.309 25.032 102.309 24.304C102.309 23.5667 102.463 22.9133 102.771 22.344C103.079 21.7653 103.508 21.308 104.059 20.972C104.61 20.636 105.24 20.468 105.949 20.468ZM113.657 20.51C114.301 20.51 114.8 20.65 115.155 20.93C115.509 21.2007 115.757 21.5693 115.897 22.036C116.046 22.5027 116.121 23.016 116.121 23.576V27.286C116.121 27.4913 116.051 27.664 115.911 27.804C115.78 27.9347 115.617 28 115.421 28C115.215 28 115.047 27.9347 114.917 27.804C114.786 27.664 114.721 27.4913 114.721 27.286V23.576C114.721 23.2493 114.674 22.9507 114.581 22.68C114.497 22.4093 114.343 22.1947 114.119 22.036C113.904 21.8773 113.601 21.798 113.209 21.798C112.845 21.798 112.518 21.8773 112.229 22.036C111.949 22.1947 111.729 22.4093 111.571 22.68C111.421 22.9507 111.347 23.2493 111.347 23.576V27.286C111.347 27.4913 111.277 27.664 111.137 27.804C111.006 27.9347 110.843 28 110.647 28C110.441 28 110.273 27.9347 110.143 27.804C110.012 27.664 109.947 27.4913 109.947 27.286V18.354C109.947 18.1487 110.012 17.9807 110.143 17.85C110.273 17.71 110.441 17.64 110.647 17.64C110.843 17.64 111.006 17.71 111.137 17.85C111.277 17.9807 111.347 18.1487 111.347 18.354V22.176L111.095 22.316C111.16 22.1107 111.267 21.9007 111.417 21.686C111.575 21.4713 111.767 21.2753 111.991 21.098C112.224 20.9207 112.481 20.7807 112.761 20.678C113.041 20.566 113.339 20.51 113.657 20.51Z" fill="white"/>
<defs>
<linearGradient id="paint0_linear_1428_3581" x1="0" y1="23" x2="148" y2="23" gradientUnits="userSpaceOnUse">
<stop stop-color="#2B3631"/>
<stop offset="1" stop-color="#496A56"/>
</linearGradient>
</defs>
</svg>
