<svg width="170" height="46" viewBox="0 0 170 46" fill="none" xmlns="http://www.w3.org/2000/svg">
<rect width="170" height="46" rx="23" fill="url(#paint0_linear_1428_3603)" fill-opacity="0.76"/>
<path d="M49.9424 27.9014C53.1173 24.7286 53.6454 20.1095 51.1206 17.5867C48.5957 15.0639 43.9767 15.592 40.8018 18.7649C37.627 21.9377 38.5451 28.003 39.6237 29.0795C40.4951 29.951 46.7676 31.0742 49.9424 27.9014Z" fill="white"/>
<path d="M36.9147 23.3156C35.0723 21.4753 32.3911 21.1686 30.9265 22.6311C29.462 24.0956 29.7687 26.7749 31.6111 28.6152C33.4534 30.4575 36.9736 29.9233 37.5992 29.2997C38.105 28.7939 38.759 25.156 36.9147 23.3156Z" fill="white"/>
<path d="M55.1513 27.4056C55.0335 27.4056 54.9746 27.3345 54.9746 27.1903C54.9746 27.0827 55.0457 26.847 55.1859 26.4875C55.391 25.9614 55.4946 25.5836 55.4946 25.3541C55.4946 25.2159 55.454 25.1002 55.3727 25.0087C55.2915 24.9173 55.1899 24.8706 55.068 24.8706C54.8893 24.8706 54.6841 24.9539 54.4526 25.1225C54.221 25.2911 53.9102 25.5938 53.5182 26.0325C53.5751 25.7481 53.697 25.3581 53.8798 24.8625L53.0043 25.0311C52.8052 25.4617 52.661 25.8497 52.5716 26.195C52.527 26.3636 52.4945 26.5383 52.4721 26.715C52.1979 26.9811 52.0191 27.1416 51.942 27.2005C51.8627 27.2594 51.7795 27.2878 51.6941 27.2878C51.6149 27.2878 51.552 27.2573 51.5052 27.1984C51.4585 27.1395 51.4362 27.0583 51.4362 26.9588C51.4362 26.8511 51.4565 26.7272 51.4971 26.587C51.5377 26.4469 51.6271 26.1828 51.7673 25.7948L52.1004 24.8767L51.7734 24.8909C51.4768 25.4556 51.1295 25.7603 50.7313 25.803C50.839 25.5227 50.8938 25.3073 50.8938 25.157C50.8938 24.9661 50.8004 24.8706 50.6135 24.8706C50.3921 24.8706 50.2195 24.9742 50.0955 25.1834C49.9696 25.3927 49.9066 25.5897 49.9066 25.7745C49.9066 25.9594 50.0102 26.0894 50.2154 26.1808C50.0813 26.3778 49.931 26.5627 49.7685 26.7373C49.5755 26.9283 49.4252 27.0745 49.3155 27.17C49.2038 27.2695 49.1002 27.3183 49.0068 27.3183C48.8605 27.3183 48.7874 27.2147 48.7874 27.0095C48.7874 26.8044 48.8687 26.4509 49.0312 25.9228L49.348 24.8706H49.147L48.4137 25.2769C48.2938 25.0027 48.0846 24.8645 47.786 24.8645C47.5484 24.8645 47.2762 24.9661 46.9674 25.1672C46.6587 25.3683 46.4048 25.6303 46.2077 25.9573C46.0554 26.2092 45.962 26.4733 45.9274 26.7455C45.6512 27.0217 45.444 27.2005 45.3059 27.2838C45.1616 27.3691 45.0113 27.4117 44.8529 27.4117C44.4487 27.4117 44.1988 27.1781 44.1034 26.7109C45.1576 26.4022 45.6837 26 45.6837 25.5044C45.6837 25.3175 45.6166 25.1672 45.4826 25.0514C45.3485 24.9356 45.1698 24.8787 44.9484 24.8787C44.5198 24.8787 44.1298 25.0839 43.7784 25.4942C43.4595 25.8659 43.2868 26.2783 43.2563 26.7313C42.9659 27.0177 42.7465 27.2066 42.6043 27.298C42.458 27.3914 42.3199 27.4381 42.192 27.4381C42.064 27.4381 41.9624 27.3772 41.8873 27.2553C41.8101 27.1334 41.7715 26.9689 41.7715 26.7597C41.7715 26.6663 41.7816 26.4956 41.7999 26.2458C42.2793 25.7258 42.6307 25.2383 42.8562 24.7813C43.0816 24.3242 43.1934 23.8509 43.1934 23.3634C43.1934 23.1908 43.171 23.0547 43.1263 22.9531C43.0816 22.8516 43.0248 22.8008 42.9557 22.8008C42.9415 22.8008 42.9191 22.8048 42.8907 22.815L41.9787 23.1522C41.6679 23.7453 41.4018 24.3933 41.1845 25.0981C40.9671 25.8009 40.8574 26.4042 40.8574 26.9059C40.8574 27.2411 40.9346 27.5072 41.093 27.7063C41.2495 27.9053 41.4566 28.0048 41.7126 28.0048C41.936 28.0048 42.1696 27.9338 42.4154 27.7916C42.6612 27.6494 42.9455 27.428 43.2726 27.1294C43.5996 26.8308 43.2726 27.1253 43.2726 27.1253C43.3112 27.3508 43.4046 27.5397 43.5509 27.6941C43.752 27.9012 44.014 28.0069 44.339 28.0069C44.6315 28.0069 44.8976 27.9358 45.1393 27.7936C45.3729 27.6575 45.6349 27.4442 45.9274 27.1619C45.9518 27.3731 46.0209 27.5559 46.1366 27.7123C46.2849 27.9094 46.4637 28.0089 46.6729 28.0089C46.8821 28.0089 47.0974 27.9277 47.3005 27.7652C47.5037 27.6027 47.723 27.3488 47.9627 27.0075C47.9404 27.6758 48.1191 28.0089 48.497 28.0089C48.6473 28.0089 48.8057 27.9541 48.9702 27.8444C49.1348 27.7347 49.409 27.497 49.7929 27.1334C50.126 26.8044 50.3698 26.4956 50.5262 26.2072C50.7374 26.1706 50.9304 26.1077 51.1071 26.0162C50.7455 26.583 50.5648 27.0359 50.5648 27.3731C50.5648 27.5559 50.6155 27.7083 50.7151 27.8302C50.8146 27.952 50.9385 28.015 51.0848 28.015C51.4037 28.015 51.8566 27.7286 52.4416 27.1619C52.4416 27.2066 52.4376 27.2492 52.4376 27.2939C52.4376 27.4523 52.4518 27.692 52.4762 28.015L53.2704 27.8281C53.2704 27.6128 53.2745 27.4422 53.2805 27.3142C53.2927 27.1436 53.3171 26.9567 53.3516 26.7536C53.374 26.6338 53.4288 26.52 53.5162 26.4123L53.7173 26.1788C53.7904 26.0934 53.8615 26.0163 53.9245 25.9492C53.9996 25.87 54.0666 25.803 54.1255 25.7481C54.1926 25.6892 54.2515 25.6405 54.3023 25.608C54.3571 25.5755 54.4018 25.5572 54.4343 25.5572C54.4932 25.5572 54.5237 25.5958 54.5237 25.673C54.5237 25.7502 54.4668 25.9289 54.3551 26.2113C54.1438 26.7373 54.0382 27.1294 54.0382 27.3853C54.0382 27.5742 54.087 27.7245 54.1865 27.8383C54.284 27.95 54.414 28.0069 54.5745 28.0069C54.9685 28.0069 55.4438 27.7144 55.9963 27.1314V26.7191C55.6043 27.1802 55.322 27.4117 55.1473 27.4117L55.1513 27.4056ZM41.8954 25.7217C42.0579 24.9275 42.2245 24.312 42.393 23.8713C42.5616 23.4305 42.6916 23.2091 42.779 23.2091C42.8196 23.2091 42.8541 23.2355 42.8805 23.2903C42.907 23.3431 42.9191 23.4163 42.9191 23.5036C42.9191 23.8063 42.8257 24.1658 42.6348 24.5863C42.4459 25.0047 42.198 25.3845 41.8954 25.7217ZM44.2902 25.5227C44.4345 25.2809 44.5848 25.1611 44.7432 25.1611C44.9098 25.1611 44.9951 25.2769 44.9951 25.5064C44.9951 25.9716 44.6884 26.2884 44.0749 26.4611C44.0749 26.0752 44.146 25.7623 44.2902 25.5227ZM47.8409 26.7109C47.6296 27.1192 47.4021 27.3223 47.1645 27.3223C47.067 27.3223 46.9857 27.2817 46.9227 27.2025C46.8598 27.1233 46.8273 27.0177 46.8273 26.8877C46.8273 26.5464 46.9349 26.1706 47.1482 25.7644C47.3615 25.3581 47.589 25.155 47.8287 25.155C47.9282 25.155 48.0095 25.1916 48.0684 25.2688C48.1273 25.3439 48.1577 25.4495 48.1577 25.5836C48.1577 25.9289 48.0521 26.3047 47.8409 26.713V26.7109Z" fill="#010101"/>
<path d="M45.328 23.1794C45.3585 23.222 45.3727 23.2769 45.3727 23.3419C45.3727 23.4069 45.3544 23.4658 45.3179 23.5206C45.2813 23.5755 45.2285 23.6202 45.1574 23.6506C45.0883 23.6811 45.0091 23.6973 44.9218 23.6973C44.7755 23.6973 44.6658 23.6669 44.5886 23.6059C44.5114 23.545 44.4627 23.4556 44.4424 23.3358L44.6313 23.3053C44.6414 23.3805 44.6719 23.4394 44.7186 23.478C44.7674 23.5186 44.8344 23.5389 44.9218 23.5389C45.0091 23.5389 45.0741 23.5206 45.1168 23.4861C45.1594 23.4516 45.1797 23.4089 45.1797 23.3602C45.1797 23.3175 45.1614 23.283 45.1229 23.2586C45.0964 23.2423 45.0314 23.22 44.9279 23.1936C44.7877 23.1591 44.6922 23.1286 44.6374 23.1022C44.5825 23.0758 44.5419 23.0413 44.5155 22.9945C44.4891 22.9478 44.4729 22.8991 44.4729 22.8442C44.4729 22.7934 44.485 22.7488 44.5074 22.7061C44.5297 22.6634 44.5622 22.6289 44.6008 22.6005C44.6313 22.5781 44.6699 22.5598 44.7207 22.5456C44.7714 22.5314 44.8263 22.5233 44.8852 22.5233C44.9725 22.5233 45.0497 22.5355 45.1168 22.5619C45.1838 22.5863 45.2325 22.6208 45.265 22.6655C45.2975 22.7081 45.3179 22.767 45.33 22.8402L45.1432 22.8645C45.135 22.8077 45.1107 22.7609 45.07 22.7284C45.0294 22.6959 44.9725 22.6797 44.8974 22.6797C44.81 22.6797 44.7471 22.6939 44.7105 22.7223C44.6739 22.7508 44.6536 22.7853 44.6536 22.8239C44.6536 22.8483 44.6618 22.8706 44.676 22.8909C44.6922 22.9113 44.7166 22.9275 44.7491 22.9417C44.7674 22.9478 44.8243 22.9641 44.9177 22.9905C45.0518 23.027 45.1452 23.0555 45.2 23.0778C45.2529 23.1002 45.2955 23.1347 45.326 23.1773L45.328 23.1794ZM46.236 23.4719C46.1852 23.5186 46.1243 23.5409 46.0491 23.5409C45.9557 23.5409 45.8805 23.5064 45.8236 23.4394C45.7668 23.3723 45.7363 23.2606 45.7363 23.1103C45.7363 22.96 45.7668 22.8523 45.8257 22.7853C45.8846 22.7183 45.9638 22.6817 46.0593 22.6817C46.1222 22.6817 46.1771 22.7 46.2218 22.7386C46.2664 22.7772 46.2969 22.8341 46.3152 22.9092L46.5 22.8808C46.4777 22.767 46.4289 22.6797 46.3518 22.6188C46.2746 22.5578 46.175 22.5273 46.0532 22.5273C45.9557 22.5273 45.8683 22.5497 45.785 22.5964C45.7038 22.6411 45.6408 22.7102 45.6022 22.8016C45.5616 22.893 45.5413 22.9986 45.5413 23.1205C45.5413 23.3073 45.588 23.4516 45.6814 23.5511C45.7749 23.6506 45.8988 23.7014 46.0511 23.7014C46.173 23.7014 46.2766 23.6648 46.3619 23.5917C46.4452 23.5186 46.498 23.417 46.5183 23.2891L46.3314 23.2647C46.3172 23.3602 46.2868 23.4292 46.236 23.4759V23.4719ZM46.6808 23.6709H46.8718V22.5497H46.6808V23.6709ZM46.6808 22.3405H46.8718V22.1211H46.6808V22.3405ZM48.0479 22.5477H47.8021L47.3511 23.0047V22.1211H47.1602V23.6689H47.3511V23.2241L47.4852 23.0961L47.8569 23.6689H48.0925L47.6193 22.9641L48.0479 22.5477ZM48.2429 22.3405H48.4338V22.1211H48.2429V22.3405ZM48.2429 23.6709H48.4338V22.5497H48.2429V23.6709ZM49.1386 23.5003C49.1041 23.5044 49.0757 23.5084 49.0554 23.5084C49.0269 23.5084 49.0046 23.5044 48.9904 23.4942C48.9761 23.4841 48.9639 23.4719 48.9579 23.4577C48.9518 23.4414 48.9477 23.4069 48.9477 23.3541V22.698H49.1386V22.5497H48.9477V22.1577L48.7588 22.2714V22.5497H48.6186V22.698H48.7588V23.3439C48.7588 23.4577 48.7669 23.5328 48.7811 23.5673C48.7974 23.6039 48.8238 23.6323 48.8604 23.6527C48.8989 23.675 48.9518 23.6852 49.0208 23.6852C49.0635 23.6852 49.1102 23.6791 49.165 23.6689L49.1366 23.5003H49.1386Z" fill="black"/>
<path d="M68.144 28.14C67.472 28.14 66.8747 28.0467 66.352 27.86C65.8293 27.6733 65.33 27.3653 64.854 26.936C64.7513 26.8613 64.672 26.7727 64.616 26.67C64.5693 26.558 64.546 26.446 64.546 26.334C64.546 26.1567 64.6113 25.998 64.742 25.858C64.8727 25.718 65.036 25.648 65.232 25.648C65.3813 25.648 65.5213 25.6993 65.652 25.802C66.0067 26.1287 66.3753 26.376 66.758 26.544C67.15 26.712 67.6073 26.796 68.13 26.796C68.5033 26.796 68.844 26.7353 69.152 26.614C69.4693 26.4927 69.7213 26.3293 69.908 26.124C70.0947 25.9187 70.188 25.6807 70.188 25.41C70.188 25.074 70.09 24.7987 69.894 24.584C69.7073 24.36 69.432 24.178 69.068 24.038C68.7133 23.8887 68.284 23.7627 67.78 23.66C67.3133 23.576 66.8933 23.4593 66.52 23.31C66.156 23.1607 65.8433 22.974 65.582 22.75C65.3207 22.5167 65.12 22.2413 64.98 21.924C64.84 21.6067 64.77 21.238 64.77 20.818C64.77 20.2487 64.9193 19.7587 65.218 19.348C65.5167 18.9373 65.9227 18.62 66.436 18.396C66.9493 18.172 67.528 18.06 68.172 18.06C68.76 18.06 69.3107 18.1533 69.824 18.34C70.3373 18.5173 70.7527 18.76 71.07 19.068C71.294 19.264 71.406 19.474 71.406 19.698C71.406 19.866 71.336 20.0247 71.196 20.174C71.0653 20.314 70.9113 20.384 70.734 20.384C70.6033 20.384 70.4913 20.3467 70.398 20.272C70.2487 20.1133 70.048 19.9733 69.796 19.852C69.544 19.7213 69.2733 19.614 68.984 19.53C68.704 19.446 68.4333 19.404 68.172 19.404C67.752 19.404 67.3927 19.4647 67.094 19.586C66.7953 19.698 66.5667 19.8567 66.408 20.062C66.2493 20.258 66.17 20.4913 66.17 20.762C66.17 21.0793 66.2587 21.3407 66.436 21.546C66.6227 21.7513 66.8793 21.9193 67.206 22.05C67.5327 22.1713 67.906 22.2833 68.326 22.386C68.8393 22.498 69.2967 22.624 69.698 22.764C70.1087 22.904 70.454 23.086 70.734 23.31C71.014 23.5247 71.2287 23.7953 71.378 24.122C71.5273 24.4487 71.602 24.8547 71.602 25.34C71.602 25.9 71.4433 26.39 71.126 26.81C70.8087 27.23 70.3887 27.5567 69.866 27.79C69.3527 28.0233 68.7787 28.14 68.144 28.14ZM76.4315 20.468C76.9355 20.468 77.3835 20.524 77.7755 20.636C78.1675 20.7387 78.4708 20.888 78.6855 21.084C78.9095 21.2707 79.0215 21.49 79.0215 21.742C79.0215 21.9007 78.9748 22.05 78.8815 22.19C78.7881 22.3207 78.6481 22.386 78.4615 22.386C78.3308 22.386 78.2188 22.3627 78.1255 22.316C78.0415 22.2693 77.9621 22.2133 77.8875 22.148C77.8128 22.0827 77.7195 22.0173 77.6075 21.952C77.5048 21.896 77.3508 21.8493 77.1455 21.812C76.9495 21.7747 76.7721 21.756 76.6135 21.756C76.1188 21.756 75.6895 21.868 75.3255 22.092C74.9708 22.316 74.6908 22.6193 74.4855 23.002C74.2895 23.3847 74.1915 23.8187 74.1915 24.304C74.1915 24.7893 74.2895 25.2233 74.4855 25.606C74.6908 25.9887 74.9661 26.292 75.3115 26.516C75.6661 26.74 76.0768 26.852 76.5435 26.852C76.8235 26.852 77.0521 26.8333 77.2295 26.796C77.4068 26.7493 77.5608 26.6933 77.6915 26.628C77.8315 26.544 77.9481 26.46 78.0415 26.376C78.1441 26.2827 78.2841 26.236 78.4615 26.236C78.6668 26.236 78.8208 26.3013 78.9235 26.432C79.0355 26.5533 79.0915 26.7073 79.0915 26.894C79.0915 27.0993 78.9655 27.3 78.7135 27.496C78.4708 27.6827 78.1441 27.8367 77.7335 27.958C77.3228 28.0793 76.8701 28.14 76.3755 28.14C75.6475 28.14 75.0128 27.972 74.4715 27.636C73.9395 27.3 73.5241 26.8427 73.2255 26.264C72.9361 25.6853 72.7915 25.032 72.7915 24.304C72.7915 23.5667 72.9455 22.9133 73.2535 22.344C73.5615 21.7653 73.9908 21.308 74.5415 20.972C75.0921 20.636 75.7221 20.468 76.4315 20.468ZM81.7452 27.286C81.7452 27.4913 81.6799 27.664 81.5492 27.804C81.4186 27.9347 81.2506 28 81.0452 28C80.8492 28 80.6812 27.9347 80.5412 27.804C80.4106 27.664 80.3452 27.4913 80.3452 27.286V21.294C80.3452 21.0887 80.4106 20.9207 80.5412 20.79C80.6812 20.65 80.8492 20.58 81.0452 20.58C81.2506 20.58 81.4186 20.65 81.5492 20.79C81.6799 20.9207 81.7452 21.0887 81.7452 21.294V27.286ZM81.0312 19.656C80.7606 19.656 80.5646 19.6093 80.4432 19.516C80.3219 19.4133 80.2612 19.2453 80.2612 19.012V18.788C80.2612 18.5547 80.3266 18.3913 80.4572 18.298C80.5879 18.2047 80.7839 18.158 81.0452 18.158C81.3252 18.158 81.5259 18.2093 81.6472 18.312C81.7686 18.4053 81.8292 18.564 81.8292 18.788V19.012C81.8292 19.2547 81.7639 19.4227 81.6332 19.516C81.5119 19.6093 81.3112 19.656 81.0312 19.656ZM84.4404 28C84.2444 28 84.0764 27.9347 83.9364 27.804C83.8058 27.664 83.7404 27.4913 83.7404 27.286V18.354C83.7404 18.1487 83.8058 17.9807 83.9364 17.85C84.0764 17.71 84.2444 17.64 84.4404 17.64C84.6458 17.64 84.8138 17.71 84.9444 17.85C85.0751 17.9807 85.1404 18.1487 85.1404 18.354V27.286C85.1404 27.4913 85.0751 27.664 84.9444 27.804C84.8138 27.9347 84.6458 28 84.4404 28ZM89.0044 20.608C89.1818 20.608 89.3358 20.6827 89.4664 20.832C89.5971 20.9813 89.6624 21.1307 89.6624 21.28C89.6624 21.4667 89.5738 21.6393 89.3964 21.798L85.0144 25.718L84.9584 24.108L88.4864 20.832C88.6358 20.6827 88.8084 20.608 89.0044 20.608ZM89.1724 27.986C88.9764 27.986 88.8084 27.9067 88.6684 27.748L85.8684 24.794L86.9324 23.814L89.6624 26.768C89.8118 26.9267 89.8864 27.104 89.8864 27.3C89.8864 27.5053 89.8024 27.6733 89.6344 27.804C89.4758 27.9253 89.3218 27.986 89.1724 27.986ZM92.7511 27.286C92.7511 27.4913 92.6857 27.664 92.5551 27.804C92.4244 27.9347 92.2564 28 92.0511 28C91.8551 28 91.6871 27.9347 91.5471 27.804C91.4164 27.664 91.3511 27.4913 91.3511 27.286V21.294C91.3511 21.0887 91.4164 20.9207 91.5471 20.79C91.6871 20.65 91.8551 20.58 92.0511 20.58C92.2564 20.58 92.4244 20.65 92.5551 20.79C92.6857 20.9207 92.7511 21.0887 92.7511 21.294V27.286ZM92.0371 19.656C91.7664 19.656 91.5704 19.6093 91.4491 19.516C91.3277 19.4133 91.2671 19.2453 91.2671 19.012V18.788C91.2671 18.5547 91.3324 18.3913 91.4631 18.298C91.5937 18.2047 91.7897 18.158 92.0511 18.158C92.3311 18.158 92.5317 18.2093 92.6531 18.312C92.7744 18.4053 92.8351 18.564 92.8351 18.788V19.012C92.8351 19.2547 92.7697 19.4227 92.6391 19.516C92.5177 19.6093 92.3171 19.656 92.0371 19.656ZM94.5363 20.72H97.8263C98.013 20.72 98.167 20.7853 98.2883 20.916C98.419 21.0373 98.4843 21.1913 98.4843 21.378C98.4843 21.5553 98.419 21.7047 98.2883 21.826C98.167 21.9473 98.013 22.008 97.8263 22.008H94.5363C94.3496 22.008 94.191 21.9473 94.0603 21.826C93.939 21.6953 93.8783 21.5413 93.8783 21.364C93.8783 21.1773 93.939 21.0233 94.0603 20.902C94.191 20.7807 94.3496 20.72 94.5363 20.72ZM96.0063 18.9C96.2116 18.9 96.3796 18.97 96.5103 19.11C96.641 19.2407 96.7063 19.4087 96.7063 19.614V26.11C96.7063 26.278 96.7343 26.4133 96.7903 26.516C96.8463 26.6187 96.921 26.6887 97.0143 26.726C97.117 26.7633 97.2196 26.782 97.3223 26.782C97.425 26.782 97.5136 26.7633 97.5883 26.726C97.6723 26.6887 97.7703 26.67 97.8823 26.67C97.9943 26.67 98.097 26.7213 98.1903 26.824C98.2836 26.9267 98.3303 27.0667 98.3303 27.244C98.3303 27.468 98.209 27.65 97.9663 27.79C97.7236 27.93 97.4623 28 97.1823 28C97.0236 28 96.837 27.986 96.6223 27.958C96.4076 27.93 96.1976 27.86 95.9923 27.748C95.7963 27.636 95.633 27.4587 95.5023 27.216C95.3716 26.964 95.3063 26.614 95.3063 26.166V19.614C95.3063 19.4087 95.3716 19.2407 95.5023 19.11C95.6423 18.97 95.8103 18.9 96.0063 18.9ZM100.497 24.374C100.301 24.374 100.133 24.3087 99.9927 24.178C99.862 24.038 99.7967 23.87 99.7967 23.674C99.7967 23.4687 99.862 23.3053 99.9927 23.184C100.133 23.0533 100.301 22.988 100.497 22.988H103.129C103.325 22.988 103.493 23.058 103.633 23.198C103.773 23.3287 103.843 23.4967 103.843 23.702C103.843 23.8887 103.773 24.0473 103.633 24.178C103.493 24.3087 103.325 24.374 103.129 24.374H100.497ZM107.056 27.286C107.056 27.4913 106.986 27.664 106.846 27.804C106.716 27.9347 106.552 28 106.356 28C106.16 28 105.992 27.9347 105.852 27.804C105.722 27.664 105.656 27.4913 105.656 27.286V18.354C105.656 18.1487 105.726 17.9807 105.866 17.85C106.006 17.71 106.174 17.64 106.37 17.64C106.576 17.64 106.739 17.71 106.86 17.85C106.991 17.9807 107.056 18.1487 107.056 18.354V27.286ZM112.433 28.14C111.659 28.14 110.987 27.9813 110.417 27.664C109.848 27.3373 109.405 26.894 109.087 26.334C108.779 25.7647 108.625 25.116 108.625 24.388C108.625 23.5667 108.789 22.8667 109.115 22.288C109.451 21.7 109.885 21.252 110.417 20.944C110.949 20.6267 111.514 20.468 112.111 20.468C112.569 20.468 113.003 20.5613 113.413 20.748C113.824 20.9253 114.188 21.1773 114.505 21.504C114.832 21.8213 115.089 22.1993 115.275 22.638C115.462 23.0673 115.56 23.5387 115.569 24.052C115.56 24.2387 115.485 24.3927 115.345 24.514C115.205 24.6353 115.042 24.696 114.855 24.696H109.409L109.073 23.506H114.337L114.071 23.758V23.408C114.053 23.0813 113.945 22.7967 113.749 22.554C113.553 22.302 113.311 22.1107 113.021 21.98C112.732 21.84 112.429 21.77 112.111 21.77C111.831 21.77 111.561 21.8167 111.299 21.91C111.047 21.994 110.819 22.134 110.613 22.33C110.417 22.526 110.259 22.7873 110.137 23.114C110.025 23.4313 109.969 23.828 109.969 24.304C109.969 24.8173 110.077 25.2653 110.291 25.648C110.506 26.0307 110.795 26.3293 111.159 26.544C111.523 26.7493 111.925 26.852 112.363 26.852C112.709 26.852 112.993 26.8193 113.217 26.754C113.441 26.6793 113.628 26.5907 113.777 26.488C113.927 26.3853 114.057 26.2873 114.169 26.194C114.309 26.11 114.449 26.068 114.589 26.068C114.757 26.068 114.897 26.1287 115.009 26.25C115.121 26.362 115.177 26.4973 115.177 26.656C115.177 26.8613 115.075 27.048 114.869 27.216C114.617 27.4587 114.267 27.6733 113.819 27.86C113.381 28.0467 112.919 28.14 112.433 28.14ZM123.241 20.524C123.446 20.524 123.614 20.594 123.745 20.734C123.875 20.8647 123.941 21.0327 123.941 21.238V27.286C123.941 27.4913 123.875 27.664 123.745 27.804C123.614 27.9347 123.446 28 123.241 28C123.045 28 122.877 27.9347 122.737 27.804C122.606 27.664 122.541 27.4913 122.541 27.286V26.278L122.835 26.32C122.835 26.488 122.765 26.6747 122.625 26.88C122.494 27.0853 122.312 27.286 122.079 27.482C121.845 27.6687 121.57 27.8273 121.253 27.958C120.935 28.0793 120.595 28.14 120.231 28.14C119.587 28.14 119.008 27.9767 118.495 27.65C117.981 27.314 117.575 26.8567 117.277 26.278C116.978 25.6993 116.829 25.0413 116.829 24.304C116.829 23.548 116.978 22.8853 117.277 22.316C117.575 21.7373 117.977 21.2847 118.481 20.958C118.994 20.6313 119.563 20.468 120.189 20.468C120.59 20.468 120.959 20.5333 121.295 20.664C121.64 20.7947 121.939 20.9627 122.191 21.168C122.443 21.3733 122.634 21.5927 122.765 21.826C122.905 22.05 122.975 22.2647 122.975 22.47L122.541 22.512V21.238C122.541 21.042 122.606 20.874 122.737 20.734C122.877 20.594 123.045 20.524 123.241 20.524ZM120.385 26.852C120.823 26.852 121.211 26.74 121.547 26.516C121.883 26.292 122.144 25.9887 122.331 25.606C122.517 25.214 122.611 24.78 122.611 24.304C122.611 23.8187 122.517 23.3847 122.331 23.002C122.144 22.6193 121.883 22.316 121.547 22.092C121.211 21.868 120.823 21.756 120.385 21.756C119.955 21.756 119.573 21.868 119.237 22.092C118.91 22.316 118.649 22.6193 118.453 23.002C118.266 23.3847 118.173 23.8187 118.173 24.304C118.173 24.78 118.266 25.214 118.453 25.606C118.649 25.9887 118.91 26.292 119.237 26.516C119.573 26.74 119.955 26.852 120.385 26.852ZM126.602 28C126.397 28 126.229 27.9347 126.098 27.804C125.967 27.664 125.902 27.4913 125.902 27.286V21.35C125.902 21.1447 125.967 20.9767 126.098 20.846C126.229 20.706 126.397 20.636 126.602 20.636C126.798 20.636 126.961 20.706 127.092 20.846C127.232 20.9767 127.302 21.1447 127.302 21.35V22.918L127.162 22.316C127.237 22.0547 127.349 21.812 127.498 21.588C127.657 21.364 127.843 21.168 128.058 21C128.273 20.832 128.511 20.7013 128.772 20.608C129.043 20.5147 129.323 20.468 129.612 20.468C129.855 20.468 130.065 20.5333 130.242 20.664C130.419 20.7947 130.508 20.958 130.508 21.154C130.508 21.406 130.443 21.5927 130.312 21.714C130.181 21.826 130.037 21.882 129.878 21.882C129.738 21.882 129.603 21.854 129.472 21.798C129.341 21.7327 129.187 21.7 129.01 21.7C128.814 21.7 128.613 21.7513 128.408 21.854C128.203 21.9567 128.016 22.1107 127.848 22.316C127.68 22.512 127.545 22.7453 127.442 23.016C127.349 23.2867 127.302 23.59 127.302 23.926V27.286C127.302 27.4913 127.232 27.664 127.092 27.804C126.961 27.9347 126.798 28 126.602 28ZM135.547 20.468C136.21 20.468 136.723 20.608 137.087 20.888C137.451 21.1587 137.703 21.5273 137.843 21.994C137.993 22.4513 138.067 22.9647 138.067 23.534V27.286C138.067 27.4913 137.997 27.664 137.857 27.804C137.727 27.9347 137.563 28 137.367 28C137.162 28 136.994 27.9347 136.863 27.804C136.733 27.664 136.667 27.4913 136.667 27.286V23.548C136.667 23.212 136.621 22.9133 136.527 22.652C136.434 22.3813 136.271 22.1667 136.037 22.008C135.813 21.84 135.496 21.756 135.085 21.756C134.703 21.756 134.367 21.84 134.077 22.008C133.788 22.1667 133.559 22.3813 133.391 22.652C133.233 22.9133 133.153 23.212 133.153 23.548V27.286C133.153 27.4913 133.083 27.664 132.943 27.804C132.813 27.9347 132.649 28 132.453 28C132.248 28 132.08 27.9347 131.949 27.804C131.819 27.664 131.753 27.4913 131.753 27.286V21.35C131.753 21.1447 131.819 20.9767 131.949 20.846C132.08 20.706 132.248 20.636 132.453 20.636C132.649 20.636 132.813 20.706 132.943 20.846C133.083 20.9767 133.153 21.1447 133.153 21.35V22.134L132.901 22.274C132.967 22.0687 133.079 21.8633 133.237 21.658C133.405 21.4433 133.606 21.2473 133.839 21.07C134.073 20.8833 134.334 20.7387 134.623 20.636C134.913 20.524 135.221 20.468 135.547 20.468Z" fill="white"/>
<defs>
<linearGradient id="paint0_linear_1428_3603" x1="0" y1="23" x2="170" y2="23" gradientUnits="userSpaceOnUse">
<stop stop-color="#2B3631"/>
<stop offset="1" stop-color="#496A56"/>
</linearGradient>
</defs>
</svg>
