<svg width="170" height="46" viewBox="0 0 170 46" fill="none" xmlns="http://www.w3.org/2000/svg">
<rect width="170" height="46" rx="23" fill="url(#paint0_linear_1428_3561)"/>
<path d="M38.667 31.4523L42.4587 33.6189V12.1641L38.667 14.3307V31.4523Z" fill="white"/>
<path d="M42.4583 16.7331L33.25 22.0506V17.4464L42.4583 12.1289V16.7331Z" fill="white"/>
<path d="M47.3337 31.4523L43.542 33.6189V12.1641L47.3337 14.3307V31.4523Z" fill="white"/>
<path d="M43.542 16.7331L52.7503 22.0506V17.4464L43.542 12.1289V16.7331Z" fill="white"/>
<path d="M45.708 20.6875V24.822L49.4997 27.0115V22.8775L45.708 20.6875Z" fill="white"/>
<path d="M68.326 28C68.102 28 67.92 27.9347 67.78 27.804C67.6493 27.664 67.584 27.4913 67.584 27.286V18.9H69.082V27.286C69.082 27.4913 69.0073 27.664 68.858 27.804C68.718 27.9347 68.5407 28 68.326 28ZM65.148 19.544C64.952 19.544 64.784 19.4833 64.644 19.362C64.504 19.2313 64.434 19.0633 64.434 18.858C64.434 18.662 64.504 18.5033 64.644 18.382C64.784 18.2607 64.952 18.2 65.148 18.2H71.518C71.714 18.2 71.8773 18.2653 72.008 18.396C72.148 18.5173 72.218 18.676 72.218 18.872C72.218 19.0773 72.148 19.2407 72.008 19.362C71.8773 19.4833 71.714 19.544 71.518 19.544H65.148ZM75.3963 28.14C74.6217 28.14 73.9497 27.9813 73.3803 27.664C72.811 27.3373 72.3677 26.894 72.0503 26.334C71.7423 25.7647 71.5883 25.116 71.5883 24.388C71.5883 23.5667 71.7517 22.8667 72.0783 22.288C72.4143 21.7 72.8483 21.252 73.3803 20.944C73.9123 20.6267 74.477 20.468 75.0743 20.468C75.5317 20.468 75.9657 20.5613 76.3763 20.748C76.787 20.9253 77.151 21.1773 77.4683 21.504C77.795 21.8213 78.0517 22.1993 78.2383 22.638C78.425 23.0673 78.523 23.5387 78.5323 24.052C78.523 24.2387 78.4483 24.3927 78.3083 24.514C78.1683 24.6353 78.005 24.696 77.8183 24.696H72.3723L72.0363 23.506H77.3003L77.0343 23.758V23.408C77.0157 23.0813 76.9083 22.7967 76.7123 22.554C76.5163 22.302 76.2737 22.1107 75.9843 21.98C75.695 21.84 75.3917 21.77 75.0743 21.77C74.7943 21.77 74.5237 21.8167 74.2623 21.91C74.0103 21.994 73.7817 22.134 73.5763 22.33C73.3803 22.526 73.2217 22.7873 73.1003 23.114C72.9883 23.4313 72.9323 23.828 72.9323 24.304C72.9323 24.8173 73.0397 25.2653 73.2543 25.648C73.469 26.0307 73.7583 26.3293 74.1223 26.544C74.4863 26.7493 74.8877 26.852 75.3263 26.852C75.6717 26.852 75.9563 26.8193 76.1803 26.754C76.4043 26.6793 76.591 26.5907 76.7403 26.488C76.8897 26.3853 77.0203 26.2873 77.1323 26.194C77.2723 26.11 77.4123 26.068 77.5523 26.068C77.7203 26.068 77.8603 26.1287 77.9723 26.25C78.0843 26.362 78.1403 26.4973 78.1403 26.656C78.1403 26.8613 78.0377 27.048 77.8323 27.216C77.5803 27.4587 77.2303 27.6733 76.7823 27.86C76.3437 28.0467 75.8817 28.14 75.3963 28.14ZM83.9088 20.468C84.5714 20.468 85.0848 20.608 85.4488 20.888C85.8128 21.1587 86.0648 21.5273 86.2048 21.994C86.3541 22.4513 86.4288 22.9647 86.4288 23.534V27.286C86.4288 27.4913 86.3588 27.664 86.2188 27.804C86.0881 27.9347 85.9248 28 85.7288 28C85.5234 28 85.3554 27.9347 85.2248 27.804C85.0941 27.664 85.0288 27.4913 85.0288 27.286V23.548C85.0288 23.212 84.9821 22.9133 84.8888 22.652C84.7954 22.3813 84.6321 22.1667 84.3988 22.008C84.1748 21.84 83.8574 21.756 83.4468 21.756C83.0641 21.756 82.7281 21.84 82.4388 22.008C82.1494 22.1667 81.9208 22.3813 81.7528 22.652C81.5941 22.9133 81.5148 23.212 81.5148 23.548V27.286C81.5148 27.4913 81.4448 27.664 81.3048 27.804C81.1741 27.9347 81.0108 28 80.8148 28C80.6094 28 80.4414 27.9347 80.3108 27.804C80.1801 27.664 80.1148 27.4913 80.1148 27.286V21.35C80.1148 21.1447 80.1801 20.9767 80.3108 20.846C80.4414 20.706 80.6094 20.636 80.8148 20.636C81.0108 20.636 81.1741 20.706 81.3048 20.846C81.4448 20.9767 81.5148 21.1447 81.5148 21.35V22.134L81.2628 22.274C81.3281 22.0687 81.4401 21.8633 81.5988 21.658C81.7668 21.4433 81.9674 21.2473 82.2008 21.07C82.4341 20.8833 82.6954 20.7387 82.9848 20.636C83.2741 20.524 83.5821 20.468 83.9088 20.468ZM87.9386 26.852C87.8546 26.7213 87.8172 26.572 87.8266 26.404C87.8359 26.2267 87.9339 26.0773 88.1206 25.956C88.2512 25.872 88.3866 25.8393 88.5266 25.858C88.6759 25.8673 88.8159 25.9373 88.9466 26.068C89.2079 26.3573 89.4972 26.586 89.8146 26.754C90.1412 26.922 90.5332 27.006 90.9906 27.006C91.1772 26.9967 91.3686 26.9687 91.5646 26.922C91.7606 26.866 91.9286 26.7727 92.0686 26.642C92.2086 26.502 92.2786 26.3013 92.2786 26.04C92.2786 25.8067 92.2039 25.62 92.0546 25.48C91.9052 25.34 91.7092 25.228 91.4666 25.144C91.2239 25.0507 90.9626 24.9667 90.6826 24.892C90.3839 24.808 90.0806 24.7147 89.7726 24.612C89.4739 24.5093 89.2032 24.3787 88.9606 24.22C88.7179 24.052 88.5172 23.8373 88.3586 23.576C88.2092 23.3147 88.1346 22.9927 88.1346 22.61C88.1346 22.1713 88.2559 21.7933 88.4986 21.476C88.7506 21.1587 89.0726 20.9113 89.4646 20.734C89.8659 20.5567 90.2999 20.468 90.7666 20.468C91.0372 20.468 91.3219 20.5053 91.6206 20.58C91.9192 20.6453 92.2086 20.7527 92.4886 20.902C92.7686 21.0513 93.0112 21.2473 93.2166 21.49C93.3099 21.6113 93.3612 21.756 93.3706 21.924C93.3892 22.092 93.3146 22.2413 93.1466 22.372C93.0346 22.4653 92.8992 22.5073 92.7406 22.498C92.5819 22.4887 92.4512 22.4373 92.3486 22.344C92.1712 22.12 91.9426 21.9473 91.6626 21.826C91.3826 21.6953 91.0652 21.63 90.7106 21.63C90.5332 21.63 90.3466 21.658 90.1506 21.714C89.9639 21.7607 89.8052 21.8493 89.6746 21.98C89.5439 22.1107 89.4786 22.302 89.4786 22.554C89.4786 22.7873 89.5532 22.974 89.7026 23.114C89.8612 23.254 90.0666 23.3707 90.3186 23.464C90.5706 23.5573 90.8459 23.6413 91.1446 23.716C91.4339 23.7907 91.7186 23.8793 91.9986 23.982C92.2879 24.0847 92.5446 24.22 92.7686 24.388C93.0019 24.5467 93.1886 24.7567 93.3286 25.018C93.4779 25.27 93.5526 25.592 93.5526 25.984C93.5526 26.4413 93.4172 26.8333 93.1466 27.16C92.8852 27.4773 92.5492 27.72 92.1386 27.888C91.7372 28.056 91.3126 28.14 90.8646 28.14C90.3326 28.14 89.8006 28.0467 89.2686 27.86C88.7459 27.664 88.3026 27.328 87.9386 26.852ZM102.114 24.318C102.114 25.0647 101.951 25.7273 101.624 26.306C101.297 26.8753 100.854 27.3233 100.294 27.65C99.7341 27.9767 99.1041 28.14 98.4041 28.14C97.7041 28.14 97.0741 27.9767 96.5141 27.65C95.9541 27.3233 95.5061 26.8753 95.1701 26.306C94.8435 25.7273 94.6801 25.0647 94.6801 24.318C94.6801 23.562 94.8435 22.8993 95.1701 22.33C95.5061 21.7513 95.9541 21.2987 96.5141 20.972C97.0741 20.636 97.7041 20.468 98.4041 20.468C99.1041 20.468 99.7341 20.636 100.294 20.972C100.854 21.2987 101.297 21.7513 101.624 22.33C101.951 22.8993 102.114 23.562 102.114 24.318ZM100.714 24.318C100.714 23.8047 100.611 23.3613 100.406 22.988C100.201 22.6053 99.9208 22.3067 99.5661 22.092C99.2208 21.868 98.8335 21.756 98.4041 21.756C97.9748 21.756 97.5828 21.868 97.2281 22.092C96.8735 22.3067 96.5935 22.6053 96.3881 22.988C96.1828 23.3613 96.0801 23.8047 96.0801 24.318C96.0801 24.8127 96.1828 25.2513 96.3881 25.634C96.5935 26.0167 96.8735 26.3153 97.2281 26.53C97.5828 26.7447 97.9748 26.852 98.4041 26.852C98.8335 26.852 99.2208 26.7447 99.5661 26.53C99.9208 26.3153 100.201 26.0167 100.406 25.634C100.611 25.2513 100.714 24.8127 100.714 24.318ZM104.399 28C104.193 28 104.025 27.9347 103.895 27.804C103.764 27.664 103.699 27.4913 103.699 27.286V21.35C103.699 21.1447 103.764 20.9767 103.895 20.846C104.025 20.706 104.193 20.636 104.399 20.636C104.595 20.636 104.758 20.706 104.889 20.846C105.029 20.9767 105.099 21.1447 105.099 21.35V22.918L104.959 22.316C105.033 22.0547 105.145 21.812 105.295 21.588C105.453 21.364 105.64 21.168 105.855 21C106.069 20.832 106.307 20.7013 106.569 20.608C106.839 20.5147 107.119 20.468 107.409 20.468C107.651 20.468 107.861 20.5333 108.039 20.664C108.216 20.7947 108.305 20.958 108.305 21.154C108.305 21.406 108.239 21.5927 108.109 21.714C107.978 21.826 107.833 21.882 107.675 21.882C107.535 21.882 107.399 21.854 107.269 21.798C107.138 21.7327 106.984 21.7 106.807 21.7C106.611 21.7 106.41 21.7513 106.205 21.854C105.999 21.9567 105.813 22.1107 105.645 22.316C105.477 22.512 105.341 22.7453 105.239 23.016C105.145 23.2867 105.099 23.59 105.099 23.926V27.286C105.099 27.4913 105.029 27.664 104.889 27.804C104.758 27.9347 104.595 28 104.399 28ZM110.446 28C110.222 28 110.04 27.9347 109.9 27.804C109.77 27.664 109.704 27.4913 109.704 27.286V18.914C109.704 18.7087 109.774 18.5407 109.914 18.41C110.054 18.27 110.222 18.2 110.418 18.2H115.15C115.356 18.2 115.524 18.2653 115.654 18.396C115.794 18.5267 115.864 18.69 115.864 18.886C115.864 19.0633 115.794 19.2173 115.654 19.348C115.524 19.4787 115.356 19.544 115.15 19.544H111.062L111.16 19.404V22.526L111.076 22.358H114.52C114.726 22.358 114.894 22.4233 115.024 22.554C115.164 22.6847 115.234 22.848 115.234 23.044C115.234 23.2213 115.164 23.3753 115.024 23.506C114.894 23.6367 114.726 23.702 114.52 23.702H111.048L111.16 23.59V27.286C111.16 27.4913 111.09 27.664 110.95 27.804C110.81 27.9347 110.642 28 110.446 28ZM118.951 27.286C118.951 27.4913 118.881 27.664 118.741 27.804C118.61 27.9347 118.447 28 118.251 28C118.055 28 117.887 27.9347 117.747 27.804C117.616 27.664 117.551 27.4913 117.551 27.286V18.354C117.551 18.1487 117.621 17.9807 117.761 17.85C117.901 17.71 118.069 17.64 118.265 17.64C118.47 17.64 118.634 17.71 118.755 17.85C118.886 17.9807 118.951 18.1487 118.951 18.354V27.286ZM127.954 24.318C127.954 25.0647 127.791 25.7273 127.464 26.306C127.137 26.8753 126.694 27.3233 126.134 27.65C125.574 27.9767 124.944 28.14 124.244 28.14C123.544 28.14 122.914 27.9767 122.354 27.65C121.794 27.3233 121.346 26.8753 121.01 26.306C120.683 25.7273 120.52 25.0647 120.52 24.318C120.52 23.562 120.683 22.8993 121.01 22.33C121.346 21.7513 121.794 21.2987 122.354 20.972C122.914 20.636 123.544 20.468 124.244 20.468C124.944 20.468 125.574 20.636 126.134 20.972C126.694 21.2987 127.137 21.7513 127.464 22.33C127.791 22.8993 127.954 23.562 127.954 24.318ZM126.554 24.318C126.554 23.8047 126.451 23.3613 126.246 22.988C126.041 22.6053 125.761 22.3067 125.406 22.092C125.061 21.868 124.673 21.756 124.244 21.756C123.815 21.756 123.423 21.868 123.068 22.092C122.713 22.3067 122.433 22.6053 122.228 22.988C122.023 23.3613 121.92 23.8047 121.92 24.318C121.92 24.8127 122.023 25.2513 122.228 25.634C122.433 26.0167 122.713 26.3153 123.068 26.53C123.423 26.7447 123.815 26.852 124.244 26.852C124.673 26.852 125.061 26.7447 125.406 26.53C125.761 26.3153 126.041 26.0167 126.246 25.634C126.451 25.2513 126.554 24.8127 126.554 24.318ZM138.121 20.566C138.298 20.566 138.452 20.636 138.583 20.776C138.723 20.9067 138.793 21.0793 138.793 21.294C138.793 21.3407 138.788 21.3873 138.779 21.434C138.769 21.4807 138.755 21.5227 138.737 21.56L136.595 27.552C136.539 27.7107 136.441 27.832 136.301 27.916C136.161 27.9907 136.016 28.0187 135.867 28C135.596 27.9813 135.395 27.832 135.265 27.552L133.683 23.352L134.005 23.38L132.549 27.552C132.418 27.832 132.217 27.9813 131.947 28C131.807 28.0187 131.662 27.9907 131.513 27.916C131.373 27.832 131.275 27.7107 131.219 27.552L129.063 21.56C129.025 21.476 129.007 21.3873 129.007 21.294C129.007 21.098 129.067 20.93 129.189 20.79C129.319 20.6407 129.492 20.566 129.707 20.566C129.856 20.566 129.987 20.6033 130.099 20.678C130.22 20.7527 130.304 20.8647 130.351 21.014L132.143 26.068L131.821 26.04L133.277 22.218C133.398 21.9287 133.613 21.784 133.921 21.784C134.089 21.784 134.219 21.8213 134.313 21.896C134.406 21.9707 134.481 22.078 134.537 22.218L136.021 26.054L135.643 26.096L137.449 21.014C137.542 20.7153 137.766 20.566 138.121 20.566Z" fill="white"/>
<defs>
<linearGradient id="paint0_linear_1428_3561" x1="0" y1="23" x2="170" y2="23" gradientUnits="userSpaceOnUse">
<stop stop-color="#2B3631"/>
<stop offset="1" stop-color="#496A56"/>
</linearGradient>
</defs>
</svg>
