<svg width="150" height="46" viewBox="0 0 150 46" fill="none" xmlns="http://www.w3.org/2000/svg">
<rect width="150" height="46" rx="23" fill="url(#paint0_linear_1428_3458)" fill-opacity="0.76"/>
<g clip-path="url(#clip0_1428_3458)">
<mask id="mask0_1428_3458" style="mask-type:alpha" maskUnits="userSpaceOnUse" x="30" y="10" width="26" height="26">
<path fill-rule="evenodd" clip-rule="evenodd" d="M48.4371 35.8215C48.644 35.9021 48.8653 35.9394 49.0872 35.9308C49.3091 35.9223 49.5269 35.8682 49.727 35.7719L55.0799 33.1961C55.3556 33.0634 55.5882 32.8555 55.751 32.5965C55.9138 32.3374 56.0001 32.0377 56.0001 31.7317V14.2664C56.0001 13.9605 55.9138 13.6607 55.751 13.4016C55.5882 13.1425 55.3556 12.9346 55.0799 12.8019L49.727 10.2265C49.4245 10.081 49.0843 10.033 48.7533 10.0894C48.4224 10.1457 48.1172 10.3035 47.8799 10.5409L37.6323 19.89L33.1688 16.5016C32.9675 16.3488 32.719 16.2712 32.4664 16.2824C32.2138 16.2936 31.9732 16.3929 31.7862 16.563L30.3545 17.8652C30.243 17.9667 30.1538 18.0903 30.0928 18.2282C30.0317 18.3661 30.0001 18.5153 30 18.6661C29.9999 18.8169 30.0313 18.9661 30.0921 19.104C30.1529 19.242 30.2419 19.3658 30.3533 19.4675L34.2243 22.999L30.3535 26.5307C30.2422 26.6324 30.1532 26.7562 30.0924 26.8941C30.0316 27.0321 30.0003 27.1812 30.0004 27.332C30.0005 27.4828 30.0321 27.6319 30.0931 27.7698C30.1541 27.9076 30.2432 28.0313 30.3547 28.1328L31.7864 29.435C31.9733 29.6052 32.214 29.7045 32.4666 29.7158C32.7191 29.727 32.9677 29.6494 33.169 29.4966L37.6325 26.1084L47.8802 35.4573C48.0386 35.616 48.2281 35.74 48.4371 35.8215ZM49.5039 17.0968L41.7285 22.999L49.5041 28.9014L49.5039 17.0968Z" fill="white"/>
</mask>
<g mask="url(#mask0_1428_3458)">
<path d="M55.0802 12.8063L49.723 10.2266C49.4204 10.081 49.08 10.033 48.749 10.0894C48.4179 10.1457 48.1126 10.3035 47.8752 10.5411L30.3378 26.5309C30.2263 26.6325 30.1373 26.7562 30.0765 26.8942C30.0156 27.0322 29.9843 27.1814 29.9844 27.3322C29.9845 27.483 30.0161 27.6321 30.0772 27.77C30.1382 27.9079 30.2274 28.0315 30.339 28.1329L31.7714 29.4351C31.9586 29.6053 32.1994 29.7046 32.452 29.7159C32.7047 29.7271 32.9534 29.6496 33.1549 29.4967L54.274 13.4752C54.9825 12.9377 56.0002 13.4431 56.0002 14.3324V14.2702C56.0002 13.9644 55.9138 13.6647 55.7511 13.4057C55.5883 13.1467 55.3558 12.9391 55.0802 12.8063Z" fill="white"/>
<g filter="url(#filter1_d_1428_3458)">
<path d="M55.0802 33.1921L49.723 35.7714C49.4205 35.917 49.0801 35.9651 48.749 35.9088C48.418 35.8526 48.1126 35.6948 47.8752 35.4573L30.3378 19.4673C30.2263 19.3657 30.1373 19.242 30.0765 19.104C30.0156 18.966 29.9843 18.8168 29.9844 18.666C29.9845 18.5152 30.0161 18.3661 30.0772 18.2282C30.1382 18.0903 30.2274 17.9667 30.339 17.8653L31.7714 16.563C31.9586 16.3929 32.1994 16.2936 32.452 16.2823C32.7047 16.2711 32.9534 16.3486 33.1549 16.5015L54.274 32.5228C54.9825 33.0604 56.0002 32.5551 56.0002 31.6658V31.7279C56.0002 32.0338 55.9138 32.3335 55.7511 32.5925C55.5883 32.8515 55.3558 33.0593 55.0802 33.1921Z" fill="white"/>
</g>
<g filter="url(#filter2_d_1428_3458)">
<path d="M49.723 35.7723C49.4204 35.9178 49.08 35.9657 48.7489 35.9093C48.4178 35.853 48.1124 35.6951 47.875 35.4576C48.4746 36.0573 49.5 35.6325 49.5 34.7845V11.2141C49.5 10.366 48.4746 9.94127 47.875 10.5411C48.1124 10.3036 48.4178 10.1458 48.7489 10.0894C49.08 10.033 49.4204 10.0809 49.723 10.2265L55.0792 12.8025C55.3551 12.9351 55.5878 13.143 55.7507 13.402C55.9136 13.6611 56 13.961 56 14.267V31.7321C56 32.0382 55.9136 32.338 55.7507 32.5971C55.5878 32.8562 55.3551 33.064 55.0792 33.1966L49.723 35.7723Z" fill="white"/>
</g>
<path opacity="0.25" fill-rule="evenodd" clip-rule="evenodd" d="M48.4216 35.8215C48.6285 35.9021 48.8497 35.9393 49.0716 35.9308C49.2934 35.9223 49.5112 35.8682 49.7112 35.7719L55.0642 33.1961C55.3399 33.0633 55.5725 32.8555 55.7353 32.5964C55.8981 32.3373 55.9844 32.0375 55.9843 31.7315V14.2664C55.9844 13.9605 55.8981 13.6607 55.7353 13.4016C55.5725 13.1425 55.3399 12.9346 55.0642 12.8019L49.7112 10.2265C49.4088 10.081 49.0685 10.033 48.7376 10.0894C48.4067 10.1457 48.1015 10.3035 47.8642 10.5409L37.6166 19.89L33.1531 16.5018C32.9518 16.349 32.7032 16.2714 32.4507 16.2826C32.1981 16.2938 31.9574 16.3931 31.7704 16.5632L30.3388 17.8654C30.2273 17.9669 30.1381 18.0905 30.0771 18.2284C30.0161 18.3663 29.9845 18.5155 29.9844 18.6663C29.9843 18.8171 30.0156 18.9662 30.0764 19.1042C30.1373 19.2422 30.2262 19.366 30.3376 19.4677L34.2085 22.999L30.3378 26.5305C30.2264 26.6322 30.1374 26.7559 30.0766 26.8939C30.0157 27.0319 29.9844 27.1811 29.9845 27.3319C29.9846 27.4827 30.0162 27.6319 30.0772 27.7698C30.1383 27.9077 30.2274 28.0313 30.339 28.1328L31.7706 29.435C31.9576 29.6051 32.1983 29.7045 32.4508 29.7157C32.7034 29.7269 32.9519 29.6494 33.1533 29.4966L37.617 26.1082L47.8646 35.4573C48.023 35.616 48.2127 35.74 48.4216 35.8215ZM49.4884 17.0966L41.7128 22.999L49.4884 28.9012V17.0966Z" fill="url(#paint1_linear_1428_3458)" style="mix-blend-mode:overlay"/>
</g>
</g>
<path d="M72.274 18.172C72.47 18.172 72.638 18.2373 72.778 18.368C72.918 18.4987 72.988 18.6573 72.988 18.844C72.988 18.9467 72.9647 19.054 72.918 19.166L69.376 27.538C69.3013 27.6967 69.1987 27.8133 69.068 27.888C68.9467 27.9627 68.8207 28 68.69 28C68.5593 27.9907 68.4333 27.9487 68.312 27.874C68.2 27.7993 68.1113 27.692 68.046 27.552L64.504 19.166C64.4853 19.1193 64.4713 19.0727 64.462 19.026C64.4527 18.97 64.448 18.914 64.448 18.858C64.448 18.6433 64.5273 18.4753 64.686 18.354C64.8447 18.2327 64.9987 18.172 65.148 18.172C65.4467 18.172 65.666 18.326 65.806 18.634L69.012 26.236H68.606L71.63 18.62C71.7607 18.3213 71.9753 18.172 72.274 18.172ZM77.4409 28.14C76.7689 28.14 76.1715 28.0467 75.6489 27.86C75.1262 27.6733 74.6269 27.3653 74.1509 26.936C74.0482 26.8613 73.9689 26.7727 73.9129 26.67C73.8662 26.558 73.8429 26.446 73.8429 26.334C73.8429 26.1567 73.9082 25.998 74.0389 25.858C74.1695 25.718 74.3329 25.648 74.5289 25.648C74.6782 25.648 74.8182 25.6993 74.9489 25.802C75.3035 26.1287 75.6722 26.376 76.0549 26.544C76.4469 26.712 76.9042 26.796 77.4269 26.796C77.8002 26.796 78.1409 26.7353 78.4489 26.614C78.7662 26.4927 79.0182 26.3293 79.2049 26.124C79.3915 25.9187 79.4849 25.6807 79.4849 25.41C79.4849 25.074 79.3869 24.7987 79.1909 24.584C79.0042 24.36 78.7289 24.178 78.3649 24.038C78.0102 23.8887 77.5809 23.7627 77.0769 23.66C76.6102 23.576 76.1902 23.4593 75.8169 23.31C75.4529 23.1607 75.1402 22.974 74.8789 22.75C74.6175 22.5167 74.4169 22.2413 74.2769 21.924C74.1369 21.6067 74.0669 21.238 74.0669 20.818C74.0669 20.2487 74.2162 19.7587 74.5149 19.348C74.8135 18.9373 75.2195 18.62 75.7329 18.396C76.2462 18.172 76.8249 18.06 77.4689 18.06C78.0569 18.06 78.6075 18.1533 79.1209 18.34C79.6342 18.5173 80.0495 18.76 80.3669 19.068C80.5909 19.264 80.7029 19.474 80.7029 19.698C80.7029 19.866 80.6329 20.0247 80.4929 20.174C80.3622 20.314 80.2082 20.384 80.0309 20.384C79.9002 20.384 79.7882 20.3467 79.6949 20.272C79.5455 20.1133 79.3449 19.9733 79.0929 19.852C78.8409 19.7213 78.5702 19.614 78.2809 19.53C78.0009 19.446 77.7302 19.404 77.4689 19.404C77.0489 19.404 76.6895 19.4647 76.3909 19.586C76.0922 19.698 75.8635 19.8567 75.7049 20.062C75.5462 20.258 75.4669 20.4913 75.4669 20.762C75.4669 21.0793 75.5555 21.3407 75.7329 21.546C75.9195 21.7513 76.1762 21.9193 76.5029 22.05C76.8295 22.1713 77.2029 22.2833 77.6229 22.386C78.1362 22.498 78.5935 22.624 78.9949 22.764C79.4055 22.904 79.7509 23.086 80.0309 23.31C80.3109 23.5247 80.5255 23.7953 80.6749 24.122C80.8242 24.4487 80.8989 24.8547 80.8989 25.34C80.8989 25.9 80.7402 26.39 80.4229 26.81C80.1055 27.23 79.6855 27.5567 79.1629 27.79C78.6495 28.0233 78.0755 28.14 77.4409 28.14ZM93.4748 18.76C93.6801 18.8627 93.7968 19.0213 93.8248 19.236C93.8621 19.4507 93.8108 19.6467 93.6708 19.824C93.5681 19.964 93.4328 20.0433 93.2648 20.062C93.1061 20.0807 92.9475 20.048 92.7888 19.964C92.5181 19.824 92.2335 19.712 91.9348 19.628C91.6361 19.544 91.3188 19.502 90.9828 19.502C90.4508 19.502 89.9701 19.5907 89.5408 19.768C89.1208 19.936 88.7568 20.1833 88.4488 20.51C88.1408 20.8273 87.9028 21.2053 87.7348 21.644C87.5761 22.0827 87.4968 22.568 87.4968 23.1C87.4968 23.688 87.5855 24.2107 87.7628 24.668C87.9401 25.116 88.1828 25.4987 88.4908 25.816C88.8081 26.124 89.1768 26.3573 89.5968 26.516C90.0261 26.6653 90.4881 26.74 90.9828 26.74C91.3001 26.74 91.6081 26.7027 91.9068 26.628C92.2148 26.5533 92.5041 26.4413 92.7748 26.292C92.9428 26.208 93.1061 26.18 93.2648 26.208C93.4328 26.2267 93.5681 26.306 93.6708 26.446C93.8295 26.642 93.8855 26.8427 93.8388 27.048C93.8015 27.244 93.6848 27.3933 93.4888 27.496C93.2555 27.6267 92.9988 27.7387 92.7188 27.832C92.4388 27.9253 92.1541 28 91.8648 28.056C91.5755 28.112 91.2815 28.14 90.9828 28.14C90.3108 28.14 89.6761 28.028 89.0788 27.804C88.4815 27.58 87.9495 27.2533 87.4828 26.824C87.0161 26.3947 86.6475 25.8673 86.3768 25.242C86.1155 24.6167 85.9848 23.9027 85.9848 23.1C85.9848 22.3813 86.1061 21.7187 86.3488 21.112C86.6008 20.496 86.9508 19.9687 87.3988 19.53C87.8561 19.082 88.3881 18.7367 88.9948 18.494C89.6015 18.242 90.2641 18.116 90.9828 18.116C91.4308 18.116 91.8648 18.172 92.2848 18.284C92.7141 18.396 93.1108 18.5547 93.4748 18.76ZM102.319 24.318C102.319 25.0647 102.156 25.7273 101.829 26.306C101.503 26.8753 101.059 27.3233 100.499 27.65C99.9392 27.9767 99.3092 28.14 98.6092 28.14C97.9092 28.14 97.2792 27.9767 96.7192 27.65C96.1592 27.3233 95.7112 26.8753 95.3752 26.306C95.0485 25.7273 94.8852 25.0647 94.8852 24.318C94.8852 23.562 95.0485 22.8993 95.3752 22.33C95.7112 21.7513 96.1592 21.2987 96.7192 20.972C97.2792 20.636 97.9092 20.468 98.6092 20.468C99.3092 20.468 99.9392 20.636 100.499 20.972C101.059 21.2987 101.503 21.7513 101.829 22.33C102.156 22.8993 102.319 23.562 102.319 24.318ZM100.919 24.318C100.919 23.8047 100.817 23.3613 100.611 22.988C100.406 22.6053 100.126 22.3067 99.7712 22.092C99.4259 21.868 99.0385 21.756 98.6092 21.756C98.1799 21.756 97.7879 21.868 97.4332 22.092C97.0785 22.3067 96.7985 22.6053 96.5932 22.988C96.3879 23.3613 96.2852 23.8047 96.2852 24.318C96.2852 24.8127 96.3879 25.2513 96.5932 25.634C96.7985 26.0167 97.0785 26.3153 97.4332 26.53C97.7879 26.7447 98.1799 26.852 98.6092 26.852C99.0385 26.852 99.4259 26.7447 99.7712 26.53C100.126 26.3153 100.406 26.0167 100.611 25.634C100.817 25.2513 100.919 24.8127 100.919 24.318ZM109.938 17.64C110.143 17.64 110.311 17.7053 110.442 17.836C110.572 17.9667 110.638 18.1393 110.638 18.354V27.286C110.638 27.4913 110.572 27.664 110.442 27.804C110.311 27.9347 110.143 28 109.938 28C109.742 28 109.574 27.9347 109.434 27.804C109.303 27.664 109.238 27.4913 109.238 27.286V26.278L109.532 26.292C109.532 26.46 109.462 26.6513 109.322 26.866C109.191 27.0713 109.009 27.272 108.776 27.468C108.542 27.664 108.267 27.8273 107.95 27.958C107.632 28.0793 107.292 28.14 106.928 28.14C106.284 28.14 105.705 27.9767 105.192 27.65C104.678 27.314 104.272 26.8613 103.974 26.292C103.675 25.7133 103.526 25.0507 103.526 24.304C103.526 23.5573 103.675 22.8993 103.974 22.33C104.272 21.7513 104.674 21.2987 105.178 20.972C105.691 20.636 106.26 20.468 106.886 20.468C107.278 20.468 107.642 20.5333 107.978 20.664C108.323 20.7947 108.622 20.9627 108.874 21.168C109.126 21.3733 109.322 21.5927 109.462 21.826C109.602 22.05 109.672 22.2647 109.672 22.47L109.238 22.512V18.354C109.238 18.1487 109.303 17.9807 109.434 17.85C109.574 17.71 109.742 17.64 109.938 17.64ZM107.082 26.852C107.53 26.852 107.917 26.74 108.244 26.516C108.58 26.292 108.841 25.9887 109.028 25.606C109.214 25.2233 109.308 24.7893 109.308 24.304C109.308 23.8187 109.214 23.3847 109.028 23.002C108.841 22.6193 108.58 22.316 108.244 22.092C107.908 21.868 107.52 21.756 107.082 21.756C106.652 21.756 106.27 21.868 105.934 22.092C105.607 22.316 105.346 22.6193 105.15 23.002C104.963 23.3847 104.87 23.8187 104.87 24.304C104.87 24.7893 104.963 25.2233 105.15 25.606C105.346 25.9887 105.607 26.292 105.934 26.516C106.27 26.74 106.652 26.852 107.082 26.852ZM116.029 28.14C115.254 28.14 114.582 27.9813 114.013 27.664C113.444 27.3373 113 26.894 112.683 26.334C112.375 25.7647 112.221 25.116 112.221 24.388C112.221 23.5667 112.384 22.8667 112.711 22.288C113.047 21.7 113.481 21.252 114.013 20.944C114.545 20.6267 115.11 20.468 115.707 20.468C116.164 20.468 116.598 20.5613 117.009 20.748C117.42 20.9253 117.784 21.1773 118.101 21.504C118.428 21.8213 118.684 22.1993 118.871 22.638C119.058 23.0673 119.156 23.5387 119.165 24.052C119.156 24.2387 119.081 24.3927 118.941 24.514C118.801 24.6353 118.638 24.696 118.451 24.696H113.005L112.669 23.506H117.933L117.667 23.758V23.408C117.648 23.0813 117.541 22.7967 117.345 22.554C117.149 22.302 116.906 22.1107 116.617 21.98C116.328 21.84 116.024 21.77 115.707 21.77C115.427 21.77 115.156 21.8167 114.895 21.91C114.643 21.994 114.414 22.134 114.209 22.33C114.013 22.526 113.854 22.7873 113.733 23.114C113.621 23.4313 113.565 23.828 113.565 24.304C113.565 24.8173 113.672 25.2653 113.887 25.648C114.102 26.0307 114.391 26.3293 114.755 26.544C115.119 26.7493 115.52 26.852 115.959 26.852C116.304 26.852 116.589 26.8193 116.813 26.754C117.037 26.6793 117.224 26.5907 117.373 26.488C117.522 26.3853 117.653 26.2873 117.765 26.194C117.905 26.11 118.045 26.068 118.185 26.068C118.353 26.068 118.493 26.1287 118.605 26.25C118.717 26.362 118.773 26.4973 118.773 26.656C118.773 26.8613 118.67 27.048 118.465 27.216C118.213 27.4587 117.863 27.6733 117.415 27.86C116.976 28.0467 116.514 28.14 116.029 28.14Z" fill="white"/>
<defs>
<filter id="filter1_d_1428_3458" x="21.651" y="7.94791" width="42.6823" height="36.319" filterUnits="userSpaceOnUse" color-interpolation-filters="sRGB">
<feFlood flood-opacity="0" result="BackgroundImageFix"/>
<feColorMatrix in="SourceAlpha" type="matrix" values="0 0 0 0 0 0 0 0 0 0 0 0 0 0 0 0 0 0 127 0" result="hardAlpha"/>
<feOffset/>
<feGaussianBlur stdDeviation="4.16667"/>
<feColorMatrix type="matrix" values="0 0 0 0 0 0 0 0 0 0 0 0 0 0 0 0 0 0 0.25 0"/>
<feBlend mode="overlay" in2="BackgroundImageFix" result="effect1_dropShadow_1428_3458"/>
<feBlend mode="normal" in="SourceGraphic" in2="effect1_dropShadow_1428_3458" result="shape"/>
</filter>
<filter id="filter2_d_1428_3458" x="39.5417" y="1.73307" width="24.7917" height="42.5339" filterUnits="userSpaceOnUse" color-interpolation-filters="sRGB">
<feFlood flood-opacity="0" result="BackgroundImageFix"/>
<feColorMatrix in="SourceAlpha" type="matrix" values="0 0 0 0 0 0 0 0 0 0 0 0 0 0 0 0 0 0 127 0" result="hardAlpha"/>
<feOffset/>
<feGaussianBlur stdDeviation="4.16667"/>
<feColorMatrix type="matrix" values="0 0 0 0 0 0 0 0 0 0 0 0 0 0 0 0 0 0 0.25 0"/>
<feBlend mode="overlay" in2="BackgroundImageFix" result="effect1_dropShadow_1428_3458"/>
<feBlend mode="normal" in="SourceGraphic" in2="effect1_dropShadow_1428_3458" result="shape"/>
</filter>
<linearGradient id="paint0_linear_1428_3458" x1="0" y1="23" x2="150" y2="23" gradientUnits="userSpaceOnUse">
<stop stop-color="#2B3631"/>
<stop offset="1" stop-color="#496A56"/>
</linearGradient>
<linearGradient id="paint1_linear_1428_3458" x1="42.9844" y1="10.066" x2="42.9844" y2="35.932" gradientUnits="userSpaceOnUse">
<stop stop-color="white"/>
<stop offset="1" stop-color="white" stop-opacity="0"/>
</linearGradient>
<clipPath id="clip0_1428_3458">
<rect width="26" height="26" fill="white" transform="translate(30 10)"/>
</clipPath>
</defs>
</svg>
